<svg width="283" height="146" viewBox="0 0 283 146" fill="none" xmlns="http://www.w3.org/2000/svg">
<g opacity="0.8" filter="url(#filter0_d)">
<rect x="4.24463" width="249.946" height="46.0217" rx="15" fill="#007B77"/>
</g>
<path d="M39.2153 22.9871H33.6694V27.5223H40.1118V28.9022H31.9819V16.1053H40.0239V17.494H33.6694V21.6072H39.2153V22.9871ZM43.4956 19.3924L43.5483 20.5877C44.2749 19.6736 45.2241 19.2166 46.3959 19.2166C48.4057 19.2166 49.4194 20.3504 49.437 22.618V28.9022H47.811V22.6092C47.8051 21.9236 47.6469 21.4168 47.3364 21.0887C47.0317 20.7606 46.5541 20.5965 45.9038 20.5965C45.3764 20.5965 44.9135 20.7371 44.5151 21.0184C44.1166 21.2996 43.8061 21.6688 43.5834 22.1258V28.9022H41.9575V19.3924H43.4956ZM51.5024 24.0682C51.5024 22.5858 51.8452 21.408 52.5307 20.535C53.2163 19.6561 54.1245 19.2166 55.2553 19.2166C56.4155 19.2166 57.3208 19.6268 57.9711 20.4471L58.0502 19.3924H59.5356V28.6736C59.5356 29.9041 59.1694 30.8738 58.437 31.5828C57.7104 32.2918 56.7319 32.6463 55.5014 32.6463C54.8159 32.6463 54.145 32.4998 53.4887 32.2068C52.8325 31.9139 52.3315 31.5125 51.9858 31.0027L52.8295 30.0272C53.5268 30.8885 54.3793 31.3192 55.3872 31.3192C56.1782 31.3192 56.7934 31.0965 57.2329 30.6512C57.6782 30.2059 57.9008 29.5789 57.9008 28.7703V27.9529C57.2504 28.7029 56.3627 29.0779 55.2377 29.0779C54.1245 29.0779 53.2221 28.6297 52.5307 27.7332C51.8452 26.8367 51.5024 25.6151 51.5024 24.0682ZM53.1372 24.2527C53.1372 25.325 53.3569 26.1688 53.7963 26.784C54.2358 27.3934 54.851 27.6981 55.642 27.6981C56.6674 27.6981 57.4204 27.2322 57.9008 26.3006V21.9588C57.4028 21.0506 56.6557 20.5965 55.6596 20.5965C54.8686 20.5965 54.2504 20.9041 53.8051 21.5193C53.3598 22.1346 53.1372 23.0457 53.1372 24.2527ZM67.8676 28.9022C67.7739 28.7147 67.6977 28.3807 67.6391 27.9002C66.8833 28.6854 65.9809 29.0779 64.9321 29.0779C63.9946 29.0779 63.2241 28.8143 62.6206 28.2869C62.0229 27.7537 61.7241 27.0799 61.7241 26.2654C61.7241 25.2752 62.0991 24.5076 62.8491 23.9627C63.6049 23.4119 64.6655 23.1365 66.0307 23.1365H67.6127V22.3895C67.6127 21.8211 67.4428 21.3699 67.103 21.0359C66.7631 20.6961 66.2622 20.5262 65.6 20.5262C65.02 20.5262 64.5336 20.6727 64.1411 20.9656C63.7485 21.2586 63.5522 21.6131 63.5522 22.0291H61.9174C61.9174 21.5545 62.0844 21.0975 62.4184 20.658C62.7583 20.2127 63.2153 19.8611 63.7895 19.6033C64.3696 19.3455 65.0053 19.2166 65.6967 19.2166C66.7924 19.2166 67.6508 19.492 68.2719 20.0428C68.893 20.5877 69.2153 21.3406 69.2387 22.3016V26.6785C69.2387 27.5516 69.35 28.2459 69.5727 28.7615V28.9022H67.8676ZM65.1694 27.6629C65.6791 27.6629 66.1625 27.5311 66.6196 27.2674C67.0766 27.0037 67.4077 26.6609 67.6127 26.2391V24.2879H66.3383C64.3461 24.2879 63.35 24.8709 63.35 26.0369C63.35 26.5467 63.52 26.9451 63.8598 27.2322C64.1997 27.5193 64.6362 27.6629 65.1694 27.6629ZM73.4663 19.3924V30.0008C73.4663 31.8289 72.6372 32.743 70.979 32.743C70.6215 32.743 70.2905 32.6902 69.9858 32.5848V31.284C70.1733 31.3309 70.4194 31.3543 70.7241 31.3543C71.0874 31.3543 71.3627 31.2547 71.5502 31.0555C71.7436 30.8621 71.8403 30.5223 71.8403 30.0359V19.3924H73.4663ZM71.6733 16.8699C71.6733 16.6121 71.7524 16.3924 71.9106 16.2108C72.0747 16.0233 72.312 15.9295 72.6225 15.9295C72.9389 15.9295 73.1791 16.0203 73.3432 16.202C73.5073 16.3836 73.5893 16.6063 73.5893 16.8699C73.5893 17.1336 73.5073 17.3533 73.3432 17.5291C73.1791 17.7049 72.9389 17.7928 72.6225 17.7928C72.3061 17.7928 72.0688 17.7049 71.9106 17.5291C71.7524 17.3533 71.6733 17.1336 71.6733 16.8699ZM81.9653 28.9022C81.8715 28.7147 81.7954 28.3807 81.7368 27.9002C80.9809 28.6854 80.0786 29.0779 79.0297 29.0779C78.0922 29.0779 77.3217 28.8143 76.7182 28.2869C76.1206 27.7537 75.8217 27.0799 75.8217 26.2654C75.8217 25.2752 76.1967 24.5076 76.9467 23.9627C77.7026 23.4119 78.7631 23.1365 80.1284 23.1365H81.7104V22.3895C81.7104 21.8211 81.5405 21.3699 81.2006 21.0359C80.8608 20.6961 80.3598 20.5262 79.6977 20.5262C79.1176 20.5262 78.6313 20.6727 78.2387 20.9656C77.8461 21.2586 77.6499 21.6131 77.6499 22.0291H76.0151C76.0151 21.5545 76.1821 21.0975 76.5161 20.658C76.8559 20.2127 77.3129 19.8611 77.8872 19.6033C78.4672 19.3455 79.103 19.2166 79.7944 19.2166C80.8901 19.2166 81.7485 19.492 82.3696 20.0428C82.9907 20.5877 83.3129 21.3406 83.3364 22.3016V26.6785C83.3364 27.5516 83.4477 28.2459 83.6704 28.7615V28.9022H81.9653ZM79.267 27.6629C79.7768 27.6629 80.2602 27.5311 80.7172 27.2674C81.1743 27.0037 81.5053 26.6609 81.7104 26.2391V24.2879H80.436C78.4438 24.2879 77.4477 24.8709 77.4477 26.0369C77.4477 26.5467 77.6176 26.9451 77.9575 27.2322C78.2973 27.5193 78.7338 27.6629 79.267 27.6629ZM87.4145 19.3924L87.4584 20.4471C88.1557 19.6268 89.0961 19.2166 90.2797 19.2166C91.6098 19.2166 92.5151 19.7264 92.9956 20.7459C93.312 20.2889 93.7221 19.9197 94.226 19.6385C94.7358 19.3572 95.3364 19.2166 96.0278 19.2166C98.1137 19.2166 99.1743 20.3211 99.2094 22.5301V28.9022H97.5834V22.6268C97.5834 21.9471 97.4282 21.4402 97.1176 21.1063C96.8071 20.7664 96.2856 20.5965 95.5532 20.5965C94.9497 20.5965 94.4487 20.7781 94.0502 21.1414C93.6518 21.4988 93.4204 21.9822 93.3559 22.5916V28.9022H91.7211V22.6707C91.7211 21.2879 91.0444 20.5965 89.6909 20.5965C88.6245 20.5965 87.895 21.0506 87.5024 21.9588V28.9022H85.8764V19.3924H87.4145ZM105.617 29.0779C104.328 29.0779 103.279 28.6561 102.47 27.8123C101.662 26.9627 101.257 25.8289 101.257 24.4109V24.1121C101.257 23.1688 101.436 22.3279 101.793 21.5897C102.157 20.8455 102.661 20.2654 103.305 19.8494C103.956 19.4276 104.659 19.2166 105.415 19.2166C106.651 19.2166 107.612 19.6238 108.297 20.4383C108.983 21.2527 109.326 22.4188 109.326 23.9363V24.6131H102.883C102.907 25.5506 103.179 26.3094 103.701 26.8895C104.228 27.4637 104.896 27.7508 105.705 27.7508C106.279 27.7508 106.765 27.6336 107.164 27.3992C107.562 27.1649 107.911 26.8543 108.209 26.4676L109.203 27.241C108.406 28.4656 107.21 29.0779 105.617 29.0779ZM105.415 20.5526C104.758 20.5526 104.207 20.7928 103.762 21.2733C103.317 21.7479 103.041 22.4158 102.936 23.2772H107.7V23.1541C107.653 22.3279 107.43 21.6893 107.032 21.2381C106.633 20.7811 106.094 20.5526 105.415 20.5526ZM112.753 19.3924L112.806 20.5877C113.533 19.6736 114.482 19.2166 115.654 19.2166C117.664 19.2166 118.677 20.3504 118.695 22.618V28.9022H117.069V22.6092C117.063 21.9236 116.905 21.4168 116.594 21.0887C116.29 20.7606 115.812 20.5965 115.162 20.5965C114.634 20.5965 114.171 20.7371 113.773 21.0184C113.374 21.2996 113.064 21.6688 112.841 22.1258V28.9022H111.215V19.3924H112.753ZM123.353 17.0897V19.3924H125.128V20.6492H123.353V26.5467C123.353 26.9276 123.432 27.2147 123.59 27.408C123.748 27.5955 124.018 27.6893 124.399 27.6893C124.586 27.6893 124.844 27.6541 125.172 27.5838V28.9022C124.745 29.0193 124.329 29.0779 123.924 29.0779C123.198 29.0779 122.65 28.8582 122.281 28.4188C121.912 27.9793 121.727 27.3553 121.727 26.5467V20.6492H119.996V19.3924H121.727V17.0897H123.353ZM126.429 24.0594C126.429 23.1277 126.611 22.2899 126.974 21.5457C127.343 20.8016 127.853 20.2274 128.503 19.8231C129.16 19.4188 129.907 19.2166 130.745 19.2166C132.04 19.2166 133.085 19.6649 133.882 20.5613C134.685 21.4578 135.086 22.6502 135.086 24.1385V24.2527C135.086 25.1785 134.908 26.0106 134.55 26.7488C134.199 27.4813 133.692 28.0526 133.03 28.4627C132.373 28.8729 131.618 29.0779 130.762 29.0779C129.473 29.0779 128.427 28.6297 127.624 27.7332C126.828 26.8367 126.429 25.6502 126.429 24.1736V24.0594ZM128.064 24.2527C128.064 25.3074 128.307 26.1541 128.793 26.7928C129.286 27.4315 129.942 27.7508 130.762 27.7508C131.588 27.7508 132.245 27.4285 132.731 26.784C133.217 26.1336 133.46 25.2254 133.46 24.0594C133.46 23.0164 133.211 22.1727 132.713 21.5281C132.221 20.8777 131.565 20.5526 130.745 20.5526C129.942 20.5526 129.294 20.8719 128.802 21.5106C128.31 22.1492 128.064 23.0633 128.064 24.2527Z" fill="#F5F5F5"/>
<rect opacity="0.8" x="15.3533" y="49.9891" width="249.946" height="46.0217" rx="15" fill="#7F0027"/>
<path d="M42.133 78.8913V66.0944H45.7453C46.8586 66.0944 47.843 66.3405 48.6984 66.8327C49.5539 67.3249 50.2131 68.0251 50.676 68.9333C51.1447 69.8415 51.382 70.8845 51.3879 72.0622V72.8796C51.3879 74.0866 51.1535 75.1442 50.6848 76.0524C50.2219 76.9606 49.5568 77.6579 48.6897 78.1442C47.8283 78.6306 46.8234 78.8796 45.675 78.8913H42.133ZM43.8205 67.4831V77.5114H45.5959C46.8967 77.5114 47.9074 77.1071 48.6281 76.2985C49.3547 75.4899 49.718 74.3386 49.718 72.8444V72.0974C49.718 70.6442 49.3752 69.5163 48.6897 68.7136C48.01 67.905 47.0432 67.4948 45.7893 67.4831H43.8205ZM57.6369 79.0671C56.3479 79.0671 55.299 78.6452 54.4904 77.8015C53.6818 76.9518 53.2775 75.8181 53.2775 74.4001V74.1013C53.2775 73.1579 53.4563 72.3171 53.8137 71.5788C54.177 70.8347 54.6809 70.2546 55.3254 69.8386C55.9758 69.4167 56.6789 69.2057 57.4348 69.2057C58.6711 69.2057 59.632 69.613 60.3176 70.4274C61.0031 71.2419 61.3459 72.4079 61.3459 73.9255V74.6022H54.9035C54.927 75.5397 55.1994 76.2985 55.7209 76.8786C56.2483 77.4528 56.9162 77.7399 57.7248 77.7399C58.299 77.7399 58.7854 77.6227 59.1838 77.3884C59.5822 77.154 59.9309 76.8434 60.2297 76.4567L61.2229 77.2302C60.426 78.4548 59.2307 79.0671 57.6369 79.0671ZM57.4348 70.5417C56.7785 70.5417 56.2277 70.7819 55.7824 71.2624C55.3371 71.737 55.0617 72.405 54.9563 73.2663H59.7199V73.1432C59.6731 72.3171 59.4504 71.6784 59.052 71.2272C58.6535 70.7702 58.1145 70.5417 57.4348 70.5417ZM68.7727 76.3688C68.7727 75.9294 68.6057 75.5895 68.2717 75.3493C67.9436 75.1032 67.3664 74.8923 66.5402 74.7165C65.7199 74.5407 65.0666 74.3298 64.5803 74.0837C64.0998 73.8376 63.7424 73.5446 63.508 73.2048C63.2795 72.8649 63.1652 72.4606 63.1652 71.9919C63.1652 71.2126 63.4934 70.5534 64.1496 70.0143C64.8117 69.4753 65.6555 69.2057 66.6809 69.2057C67.759 69.2057 68.632 69.4841 69.3 70.0407C69.9738 70.5974 70.3108 71.3093 70.3108 72.1765H68.676C68.676 71.7311 68.4856 71.3474 68.1047 71.0251C67.7297 70.7028 67.2551 70.5417 66.6809 70.5417C66.0891 70.5417 65.6262 70.6706 65.2922 70.9284C64.9582 71.1862 64.7912 71.5231 64.7912 71.9391C64.7912 72.3317 64.9465 72.6276 65.257 72.8268C65.5676 73.0261 66.1272 73.2165 66.9358 73.3981C67.7502 73.5798 68.4094 73.7966 68.9133 74.0485C69.4172 74.3005 69.7893 74.6052 70.0295 74.9626C70.2756 75.3141 70.3986 75.7448 70.3986 76.2546C70.3986 77.1042 70.0588 77.7868 69.3791 78.3024C68.6994 78.8122 67.8176 79.0671 66.7336 79.0671C65.9719 79.0671 65.2981 78.9323 64.7121 78.6628C64.1262 78.3932 63.6662 78.0182 63.3322 77.5378C63.0041 77.0515 62.84 76.527 62.84 75.9645H64.466C64.4953 76.5095 64.7121 76.9431 65.1164 77.2653C65.5266 77.5817 66.0656 77.7399 66.7336 77.7399C67.3488 77.7399 67.841 77.6169 68.2102 77.3708C68.5852 77.1188 68.7727 76.7849 68.7727 76.3688ZM76.4631 79.0671C75.174 79.0671 74.1252 78.6452 73.3166 77.8015C72.508 76.9518 72.1037 75.8181 72.1037 74.4001V74.1013C72.1037 73.1579 72.2824 72.3171 72.6399 71.5788C73.0031 70.8347 73.507 70.2546 74.1516 69.8386C74.802 69.4167 75.5051 69.2057 76.2609 69.2057C77.4973 69.2057 78.4582 69.613 79.1438 70.4274C79.8293 71.2419 80.1721 72.4079 80.1721 73.9255V74.6022H73.7297C73.7531 75.5397 74.0256 76.2985 74.5471 76.8786C75.0744 77.4528 75.7424 77.7399 76.551 77.7399C77.1252 77.7399 77.6115 77.6227 78.01 77.3884C78.4084 77.154 78.757 76.8434 79.0559 76.4567L80.049 77.2302C79.2522 78.4548 78.0568 79.0671 76.4631 79.0671ZM76.2609 70.5417C75.6047 70.5417 75.0539 70.7819 74.6086 71.2624C74.1633 71.737 73.8879 72.405 73.7824 73.2663H78.5461V73.1432C78.4992 72.3171 78.2766 71.6784 77.8781 71.2272C77.4797 70.7702 76.9406 70.5417 76.2609 70.5417ZM83.591 69.3815L83.635 70.4362C84.3322 69.6159 85.2727 69.2057 86.4563 69.2057C87.7863 69.2057 88.6916 69.7155 89.1721 70.735C89.4885 70.278 89.8986 69.9089 90.4025 69.6276C90.9123 69.3464 91.5129 69.2057 92.2043 69.2057C94.2902 69.2057 95.3508 70.3102 95.3859 72.5192V78.8913H93.76V72.6159C93.76 71.9362 93.6047 71.4294 93.2942 71.0954C92.9836 70.7556 92.4621 70.5856 91.7297 70.5856C91.1262 70.5856 90.6252 70.7673 90.2268 71.1306C89.8283 71.488 89.5969 71.9714 89.5324 72.5807V78.8913H87.8977V72.6599C87.8977 71.277 87.2209 70.5856 85.8674 70.5856C84.801 70.5856 84.0715 71.0397 83.6789 71.9479V78.8913H82.0529V69.3815H83.591ZM105.88 74.2419C105.88 75.6891 105.549 76.8552 104.887 77.7399C104.225 78.6247 103.328 79.0671 102.197 79.0671C101.043 79.0671 100.135 78.7009 99.4729 77.9684V82.5475H97.8469V69.3815H99.3322L99.4113 70.4362C100.073 69.6159 100.993 69.2057 102.171 69.2057C103.314 69.2057 104.216 69.6364 104.878 70.4977C105.546 71.3591 105.88 72.5573 105.88 74.0925V74.2419ZM104.254 74.0573C104.254 72.985 104.026 72.1384 103.569 71.5173C103.112 70.8962 102.485 70.5856 101.688 70.5856C100.703 70.5856 99.965 71.0222 99.4729 71.8952V76.4391C99.9592 77.3063 100.703 77.7399 101.705 77.7399C102.485 77.7399 103.103 77.4323 103.56 76.8171C104.023 76.196 104.254 75.2761 104.254 74.0573ZM111.901 79.0671C110.612 79.0671 109.563 78.6452 108.754 77.8015C107.946 76.9518 107.541 75.8181 107.541 74.4001V74.1013C107.541 73.1579 107.72 72.3171 108.077 71.5788C108.441 70.8347 108.945 70.2546 109.589 69.8386C110.239 69.4167 110.943 69.2057 111.698 69.2057C112.935 69.2057 113.896 69.613 114.581 70.4274C115.267 71.2419 115.61 72.4079 115.61 73.9255V74.6022H109.167C109.191 75.5397 109.463 76.2985 109.985 76.8786C110.512 77.4528 111.18 77.7399 111.988 77.7399C112.563 77.7399 113.049 77.6227 113.447 77.3884C113.846 77.154 114.195 76.8434 114.493 76.4567L115.487 77.2302C114.69 78.4548 113.494 79.0671 111.901 79.0671ZM111.698 70.5417C111.042 70.5417 110.491 70.7819 110.046 71.2624C109.601 71.737 109.325 72.405 109.22 73.2663H113.984V73.1432C113.937 72.3171 113.714 71.6784 113.316 71.2272C112.917 70.7702 112.378 70.5417 111.698 70.5417ZM119.037 69.3815L119.09 70.5768C119.817 69.6628 120.766 69.2057 121.938 69.2057C123.947 69.2057 124.961 70.3395 124.979 72.6071V78.8913H123.353V72.5983C123.347 71.9128 123.189 71.4059 122.878 71.0778C122.573 70.7497 122.096 70.5856 121.446 70.5856C120.918 70.5856 120.455 70.7263 120.057 71.0075C119.658 71.2888 119.348 71.6579 119.125 72.1149V78.8913H117.499V69.3815H119.037ZM129.057 70.5329C129.778 69.6481 130.715 69.2057 131.869 69.2057C133.879 69.2057 134.893 70.3395 134.91 72.6071V78.8913H133.284V72.5983C133.279 71.9128 133.12 71.4059 132.81 71.0778C132.505 70.7497 132.028 70.5856 131.377 70.5856C130.85 70.5856 130.387 70.7263 129.988 71.0075C129.59 71.2888 129.28 71.6579 129.057 72.1149V78.8913H127.431V65.3913H129.057V70.5329ZM136.914 74.0485C136.914 73.1169 137.096 72.279 137.459 71.5349C137.828 70.7907 138.338 70.2165 138.988 69.8122C139.645 69.4079 140.392 69.2057 141.23 69.2057C142.525 69.2057 143.571 69.654 144.367 70.5505C145.17 71.447 145.571 72.6393 145.571 74.1276V74.2419C145.571 75.1677 145.393 75.9997 145.035 76.738C144.684 77.4704 144.177 78.0417 143.515 78.4518C142.859 78.862 142.103 79.0671 141.247 79.0671C139.958 79.0671 138.912 78.6188 138.11 77.7224C137.313 76.8259 136.914 75.6393 136.914 74.1628V74.0485ZM138.549 74.2419C138.549 75.2966 138.792 76.1432 139.279 76.7819C139.771 77.4206 140.427 77.7399 141.247 77.7399C142.073 77.7399 142.73 77.4177 143.216 76.7731C143.702 76.1227 143.946 75.2145 143.946 74.0485C143.946 73.0056 143.696 72.1618 143.198 71.5173C142.706 70.8669 142.05 70.5417 141.23 70.5417C140.427 70.5417 139.78 70.861 139.287 71.4997C138.795 72.1384 138.549 73.0524 138.549 74.2419ZM156.672 70.8405C156.426 70.7995 156.159 70.779 155.872 70.779C154.806 70.779 154.082 71.2331 153.701 72.1413V78.8913H152.075V69.3815H153.657L153.684 70.4802C154.217 69.6306 154.973 69.2057 155.951 69.2057C156.268 69.2057 156.508 69.2468 156.672 69.3288V70.8405ZM161.946 79.0671C160.656 79.0671 159.608 78.6452 158.799 77.8015C157.99 76.9518 157.586 75.8181 157.586 74.4001V74.1013C157.586 73.1579 157.765 72.3171 158.122 71.5788C158.486 70.8347 158.989 70.2546 159.634 69.8386C160.284 69.4167 160.988 69.2057 161.743 69.2057C162.98 69.2057 163.941 69.613 164.626 70.4274C165.312 71.2419 165.655 72.4079 165.655 73.9255V74.6022H159.212C159.236 75.5397 159.508 76.2985 160.03 76.8786C160.557 77.4528 161.225 77.7399 162.033 77.7399C162.608 77.7399 163.094 77.6227 163.492 77.3884C163.891 77.154 164.239 76.8434 164.538 76.4567L165.531 77.2302C164.735 78.4548 163.539 79.0671 161.946 79.0671ZM161.743 70.5417C161.087 70.5417 160.536 70.7819 160.091 71.2624C159.646 71.737 159.37 72.405 159.265 73.2663H164.029V73.1432C163.982 72.3171 163.759 71.6784 163.361 71.2272C162.962 70.7702 162.423 70.5417 161.743 70.5417ZM171.359 77.7399C171.939 77.7399 172.446 77.5641 172.879 77.2126C173.313 76.861 173.553 76.4216 173.6 75.8942H175.138C175.109 76.4391 174.921 76.9577 174.575 77.4499C174.23 77.9421 173.767 78.3347 173.187 78.6276C172.613 78.9206 172.003 79.0671 171.359 79.0671C170.064 79.0671 169.032 78.6364 168.265 77.7751C167.503 76.9079 167.122 75.7243 167.122 74.2243V73.9518C167.122 73.0261 167.292 72.2028 167.632 71.4821C167.972 70.7614 168.458 70.2018 169.091 69.8034C169.73 69.405 170.483 69.2057 171.35 69.2057C172.416 69.2057 173.301 69.5251 174.004 70.1638C174.713 70.8024 175.091 71.6315 175.138 72.6511H173.6C173.553 72.0358 173.319 71.5319 172.897 71.1393C172.481 70.7409 171.965 70.5417 171.35 70.5417C170.524 70.5417 169.882 70.8405 169.425 71.4382C168.974 72.03 168.748 72.8884 168.748 74.0134V74.321C168.748 75.4167 168.974 76.2604 169.425 76.8522C169.876 77.444 170.521 77.7399 171.359 77.7399ZM180.912 79.0671C179.623 79.0671 178.574 78.6452 177.766 77.8015C176.957 76.9518 176.553 75.8181 176.553 74.4001V74.1013C176.553 73.1579 176.732 72.3171 177.089 71.5788C177.452 70.8347 177.956 70.2546 178.601 69.8386C179.251 69.4167 179.954 69.2057 180.71 69.2057C181.947 69.2057 182.907 69.613 183.593 70.4274C184.279 71.2419 184.621 72.4079 184.621 73.9255V74.6022H178.179C178.202 75.5397 178.475 76.2985 178.996 76.8786C179.524 77.4528 180.192 77.7399 181 77.7399C181.574 77.7399 182.061 77.6227 182.459 77.3884C182.858 77.154 183.206 76.8434 183.505 76.4567L184.498 77.2302C183.701 78.4548 182.506 79.0671 180.912 79.0671ZM180.71 70.5417C180.054 70.5417 179.503 70.7819 179.058 71.2624C178.613 71.737 178.337 72.405 178.232 73.2663H182.995V73.1432C182.948 72.3171 182.726 71.6784 182.327 71.2272C181.929 70.7702 181.39 70.5417 180.71 70.5417ZM188.049 69.3815L188.102 70.5768C188.828 69.6628 189.778 69.2057 190.949 69.2057C192.959 69.2057 193.973 70.3395 193.99 72.6071V78.8913H192.364V72.5983C192.359 71.9128 192.2 71.4059 191.89 71.0778C191.585 70.7497 191.108 70.5856 190.457 70.5856C189.93 70.5856 189.467 70.7263 189.069 71.0075C188.67 71.2888 188.36 71.6579 188.137 72.1149V78.8913H186.511V69.3815H188.049ZM198.649 67.0788V69.3815H200.424V70.6384H198.649V76.5358C198.649 76.9167 198.728 77.2038 198.886 77.3972C199.044 77.5847 199.314 77.6784 199.695 77.6784C199.882 77.6784 200.14 77.6432 200.468 77.5729V78.8913C200.04 79.0085 199.624 79.0671 199.22 79.0671C198.493 79.0671 197.946 78.8474 197.576 78.4079C197.207 77.9684 197.023 77.3444 197.023 76.5358V70.6384H195.291V69.3815H197.023V67.0788H198.649ZM206.278 79.0671C204.988 79.0671 203.94 78.6452 203.131 77.8015C202.322 76.9518 201.918 75.8181 201.918 74.4001V74.1013C201.918 73.1579 202.097 72.3171 202.454 71.5788C202.818 70.8347 203.322 70.2546 203.966 69.8386C204.616 69.4167 205.32 69.2057 206.075 69.2057C207.312 69.2057 208.273 69.613 208.958 70.4274C209.644 71.2419 209.987 72.4079 209.987 73.9255V74.6022H203.544C203.568 75.5397 203.84 76.2985 204.362 76.8786C204.889 77.4528 205.557 77.7399 206.365 77.7399C206.94 77.7399 207.426 77.6227 207.824 77.3884C208.223 77.154 208.572 76.8434 208.87 76.4567L209.863 77.2302C209.067 78.4548 207.871 79.0671 206.278 79.0671ZM206.075 70.5417C205.419 70.5417 204.868 70.7819 204.423 71.2624C203.978 71.737 203.702 72.405 203.597 73.2663H208.361V73.1432C208.314 72.3171 208.091 71.6784 207.693 71.2272C207.294 70.7702 206.755 70.5417 206.075 70.5417Z" fill="#F5F5F5"/>
<rect opacity="0.8" x="32.8098" y="99.9783" width="249.946" height="46.0217" rx="15" fill="#4E4E4E"/>
<path d="M65.3525 123.176C63.9052 122.76 62.8505 122.251 62.1884 121.647C61.5321 121.038 61.204 120.288 61.204 119.397C61.204 118.389 61.6054 117.557 62.4081 116.901C63.2167 116.239 64.2655 115.908 65.5546 115.908C66.4335 115.908 67.2157 116.078 67.9013 116.418C68.5927 116.757 69.1259 117.226 69.5009 117.824C69.8818 118.421 70.0722 119.075 70.0722 119.784H68.3759C68.3759 119.01 68.1298 118.404 67.6376 117.964C67.1454 117.519 66.4511 117.296 65.5546 117.296C64.7226 117.296 64.0722 117.481 63.6034 117.85C63.1405 118.213 62.9091 118.72 62.9091 119.371C62.9091 119.892 63.1288 120.335 63.5683 120.698C64.0136 121.055 64.7665 121.383 65.8271 121.682C66.8935 121.981 67.7255 122.312 68.3232 122.675C68.9267 123.033 69.372 123.452 69.6591 123.932C69.9521 124.413 70.0985 124.978 70.0985 125.628C70.0985 126.666 69.6943 127.498 68.8857 128.125C68.0771 128.746 66.996 129.056 65.6425 129.056C64.7636 129.056 63.9433 128.889 63.1816 128.555C62.4198 128.215 61.831 127.753 61.415 127.167C61.0048 126.581 60.7997 125.916 60.7997 125.171H62.496C62.496 125.945 62.7802 126.557 63.3485 127.008C63.9228 127.454 64.6874 127.676 65.6425 127.676C66.5331 127.676 67.2157 127.495 67.6903 127.131C68.165 126.768 68.4023 126.273 68.4023 125.646C68.4023 125.019 68.1825 124.536 67.7431 124.196C67.3036 123.85 66.5068 123.51 65.3525 123.176ZM80.0478 124.231C80.0478 125.678 79.7167 126.844 79.0546 127.729C78.3925 128.614 77.496 129.056 76.3652 129.056C75.2109 129.056 74.3027 128.69 73.6405 127.958V132.537H72.0146V119.371H73.4999L73.579 120.425C74.2411 119.605 75.161 119.195 76.3388 119.195C77.4814 119.195 78.3837 119.626 79.0458 120.487C79.7138 121.348 80.0478 122.546 80.0478 124.082V124.231ZM78.4218 124.046C78.4218 122.974 78.1933 122.128 77.7362 121.506C77.2792 120.885 76.6523 120.575 75.8554 120.575C74.871 120.575 74.1327 121.011 73.6405 121.884V126.428C74.1269 127.295 74.871 127.729 75.873 127.729C76.6523 127.729 77.2704 127.421 77.7275 126.806C78.1903 126.185 78.4218 125.265 78.4218 124.046ZM86.7187 120.83C86.4726 120.789 86.206 120.768 85.9189 120.768C84.8525 120.768 84.1288 121.222 83.748 122.13V128.88H82.122V119.371H83.704L83.7304 120.469C84.2636 119.62 85.0194 119.195 85.998 119.195C86.3144 119.195 86.5546 119.236 86.7187 119.318V120.83ZM91.9921 129.056C90.703 129.056 89.6542 128.634 88.8456 127.791C88.037 126.941 87.6327 125.807 87.6327 124.389V124.09C87.6327 123.147 87.8114 122.306 88.1689 121.568C88.5321 120.824 89.036 120.244 89.6806 119.828C90.331 119.406 91.0341 119.195 91.79 119.195C93.0263 119.195 93.9872 119.602 94.6728 120.417C95.3583 121.231 95.7011 122.397 95.7011 123.915V124.591H89.2587C89.2821 125.529 89.5546 126.288 90.0761 126.868C90.6034 127.442 91.2714 127.729 92.08 127.729C92.6542 127.729 93.1405 127.612 93.539 127.378C93.9374 127.143 94.286 126.833 94.5849 126.446L95.578 127.219C94.7812 128.444 93.5859 129.056 91.9921 129.056ZM91.79 120.531C91.1337 120.531 90.5829 120.771 90.1376 121.252C89.6923 121.726 89.4169 122.394 89.3114 123.255H94.0751V123.132C94.0282 122.306 93.8056 121.668 93.4071 121.216C93.0087 120.759 92.4696 120.531 91.79 120.531ZM103.462 128.88C103.368 128.693 103.292 128.359 103.233 127.878C102.477 128.664 101.575 129.056 100.526 129.056C99.5888 129.056 98.8183 128.793 98.2148 128.265C97.6171 127.732 97.3183 127.058 97.3183 126.244C97.3183 125.253 97.6933 124.486 98.4433 123.941C99.1991 123.39 100.26 123.115 101.625 123.115H103.207V122.368C103.207 121.799 103.037 121.348 102.697 121.014C102.357 120.674 101.856 120.504 101.194 120.504C100.614 120.504 100.128 120.651 99.7353 120.944C99.3427 121.237 99.1464 121.591 99.1464 122.007H97.5116C97.5116 121.533 97.6786 121.076 98.0126 120.636C98.3525 120.191 98.8095 119.839 99.3837 119.582C99.9638 119.324 100.6 119.195 101.291 119.195C102.387 119.195 103.245 119.47 103.866 120.021C104.487 120.566 104.809 121.319 104.833 122.28V126.657C104.833 127.53 104.944 128.224 105.167 128.74V128.88H103.462ZM100.764 127.641C101.273 127.641 101.757 127.509 102.214 127.246C102.671 126.982 103.002 126.639 103.207 126.217V124.266H101.933C99.9403 124.266 98.9443 124.849 98.9443 126.015C98.9443 126.525 99.1142 126.923 99.454 127.211C99.7939 127.498 100.23 127.641 100.764 127.641ZM106.986 124.046C106.986 122.587 107.332 121.416 108.023 120.531C108.715 119.64 109.62 119.195 110.739 119.195C111.852 119.195 112.734 119.576 113.385 120.337V115.38H115.011V128.88H113.517L113.437 127.861C112.787 128.658 111.882 129.056 110.722 129.056C109.62 129.056 108.721 128.605 108.023 127.703C107.332 126.8 106.986 125.623 106.986 124.169V124.046ZM108.612 124.231C108.612 125.309 108.835 126.153 109.28 126.762C109.726 127.372 110.341 127.676 111.126 127.676C112.157 127.676 112.91 127.213 113.385 126.288V121.919C112.898 121.023 112.151 120.575 111.143 120.575C110.347 120.575 109.726 120.882 109.28 121.498C108.835 122.113 108.612 123.024 108.612 124.231ZM121.611 124.046C121.611 122.587 121.957 121.416 122.648 120.531C123.34 119.64 124.245 119.195 125.364 119.195C126.477 119.195 127.359 119.576 128.01 120.337V115.38H129.636V128.88H128.142L128.062 127.861C127.412 128.658 126.507 129.056 125.347 129.056C124.245 129.056 123.346 128.605 122.648 127.703C121.957 126.8 121.611 125.623 121.611 124.169V124.046ZM123.237 124.231C123.237 125.309 123.46 126.153 123.905 126.762C124.351 127.372 124.966 127.676 125.751 127.676C126.782 127.676 127.535 127.213 128.01 126.288V121.919C127.523 121.023 126.776 120.575 125.768 120.575C124.972 120.575 124.351 120.882 123.905 121.498C123.46 122.113 123.237 123.024 123.237 124.231ZM136.113 129.056C134.824 129.056 133.775 128.634 132.967 127.791C132.158 126.941 131.754 125.807 131.754 124.389V124.09C131.754 123.147 131.933 122.306 132.29 121.568C132.653 120.824 133.157 120.244 133.802 119.828C134.452 119.406 135.155 119.195 135.911 119.195C137.147 119.195 138.108 119.602 138.794 120.417C139.479 121.231 139.822 122.397 139.822 123.915V124.591H133.38C133.403 125.529 133.676 126.288 134.197 126.868C134.725 127.442 135.392 127.729 136.201 127.729C136.775 127.729 137.262 127.612 137.66 127.378C138.059 127.143 138.407 126.833 138.706 126.446L139.699 127.219C138.902 128.444 137.707 129.056 136.113 129.056ZM135.911 120.531C135.255 120.531 134.704 120.771 134.259 121.252C133.813 121.726 133.538 122.394 133.433 123.255H138.196V123.132C138.149 122.306 137.927 121.668 137.528 121.216C137.13 120.759 136.591 120.531 135.911 120.531ZM149.314 126.674L151.67 119.371H153.331L149.921 128.88H148.682L145.236 119.371H146.897L149.314 126.674ZM156.662 128.88H155.036V119.371H156.662V128.88ZM154.904 116.848C154.904 116.585 154.983 116.362 155.142 116.18C155.306 115.999 155.546 115.908 155.862 115.908C156.179 115.908 156.419 115.999 156.583 116.18C156.747 116.362 156.829 116.585 156.829 116.848C156.829 117.112 156.747 117.332 156.583 117.507C156.419 117.683 156.179 117.771 155.862 117.771C155.546 117.771 155.306 117.683 155.142 117.507C154.983 117.332 154.904 117.112 154.904 116.848ZM163.219 129.056C161.93 129.056 160.881 128.634 160.072 127.791C159.264 126.941 158.859 125.807 158.859 124.389V124.09C158.859 123.147 159.038 122.306 159.395 121.568C159.759 120.824 160.263 120.244 160.907 119.828C161.558 119.406 162.261 119.195 163.017 119.195C164.253 119.195 165.214 119.602 165.899 120.417C166.585 121.231 166.928 122.397 166.928 123.915V124.591H160.485C160.509 125.529 160.781 126.288 161.303 126.868C161.83 127.442 162.498 127.729 163.307 127.729C163.881 127.729 164.367 127.612 164.766 127.378C165.164 127.143 165.513 126.833 165.811 126.446L166.805 127.219C166.008 128.444 164.812 129.056 163.219 129.056ZM163.017 120.531C162.36 120.531 161.809 120.771 161.364 121.252C160.919 121.726 160.643 122.394 160.538 123.255H165.302V123.132C165.255 122.306 165.032 121.668 164.634 121.216C164.235 120.759 163.696 120.531 163.017 120.531ZM177.237 126.639L179.065 119.371H180.691L177.923 128.88H176.604L174.293 121.673L172.043 128.88H170.725L167.965 119.371H169.582L171.454 126.49L173.669 119.371H174.978L177.237 126.639ZM187.89 126.358C187.89 125.919 187.723 125.579 187.389 125.338C187.06 125.092 186.483 124.881 185.657 124.706C184.837 124.53 184.184 124.319 183.697 124.073C183.217 123.827 182.859 123.534 182.625 123.194C182.396 122.854 182.282 122.45 182.282 121.981C182.282 121.202 182.61 120.543 183.267 120.003C183.929 119.464 184.772 119.195 185.798 119.195C186.876 119.195 187.749 119.473 188.417 120.03C189.091 120.586 189.428 121.298 189.428 122.166H187.793C187.793 121.72 187.602 121.336 187.222 121.014C186.847 120.692 186.372 120.531 185.798 120.531C185.206 120.531 184.743 120.66 184.409 120.918C184.075 121.175 183.908 121.512 183.908 121.928C183.908 122.321 184.063 122.617 184.374 122.816C184.684 123.015 185.244 123.206 186.053 123.387C186.867 123.569 187.526 123.786 188.03 124.038C188.534 124.29 188.906 124.594 189.146 124.952C189.392 125.303 189.516 125.734 189.516 126.244C189.516 127.093 189.176 127.776 188.496 128.292C187.816 128.801 186.934 129.056 185.851 129.056C185.089 129.056 184.415 128.921 183.829 128.652C183.243 128.382 182.783 128.007 182.449 127.527C182.121 127.041 181.957 126.516 181.957 125.954H183.583C183.612 126.499 183.829 126.932 184.233 127.254C184.643 127.571 185.183 127.729 185.851 127.729C186.466 127.729 186.958 127.606 187.327 127.36C187.702 127.108 187.89 126.774 187.89 126.358Z" fill="#F5F5F5"/>
<defs>
<filter id="filter0_d" x="0.244629" y="0" width="257.946" height="54.0217" filterUnits="userSpaceOnUse" color-interpolation-filters="sRGB">
<feFlood flood-opacity="0" result="BackgroundImageFix"/>
<feColorMatrix in="SourceAlpha" type="matrix" values="0 0 0 0 0 0 0 0 0 0 0 0 0 0 0 0 0 0 127 0" result="hardAlpha"/>
<feOffset dy="4"/>
<feGaussianBlur stdDeviation="2"/>
<feComposite in2="hardAlpha" operator="out"/>
<feColorMatrix type="matrix" values="0 0 0 0 0 0 0 0 0 0 0 0 0 0 0 0 0 0 0.25 0"/>
<feBlend mode="normal" in2="BackgroundImageFix" result="effect1_dropShadow"/>
<feBlend mode="normal" in="SourceGraphic" in2="effect1_dropShadow" result="shape"/>
</filter>
</defs>
</svg>
