<svg width="621" height="411" viewBox="0 0 621 411" fill="none" xmlns="http://www.w3.org/2000/svg">
<path d="M454.011 411C436.841 408.309 420.332 406.019 404.485 404.132L410.587 391.912C408.469 391.205 399.29 398.274 399.29 398.274L407.057 362.926C396.466 364.34 391.523 400.395 391.523 400.395L379.52 388.377L385.428 401.984C336.934 396.882 295.087 395.29 259.911 395.655L265.134 385.195C263.016 384.488 253.837 391.558 253.837 391.558L261.604 356.209C251.013 357.623 246.07 393.679 246.07 393.679L234.067 381.661L240.325 396.073C216.229 396.774 192.186 398.712 168.288 401.881C173.5 385.624 191.702 369.995 191.702 369.995C177.707 374.355 170.426 381.457 166.657 388.041C165.895 354.641 171.027 321.368 181.816 289.754C181.816 289.754 153.573 353.382 157.81 395.8L158.347 403.335C133.776 407.173 121.446 411 121.446 411H454.011Z" fill="#3F3D56"/>
<path d="M518.74 323.431C517.064 323.431 515.426 322.934 514.032 322.001C512.639 321.069 511.553 319.744 510.912 318.194C510.27 316.644 510.102 314.938 510.429 313.292C510.756 311.647 511.563 310.135 512.748 308.949C513.933 307.762 515.443 306.954 517.087 306.627C518.73 306.299 520.434 306.467 521.982 307.109C523.53 307.752 524.854 308.839 525.785 310.234C526.716 311.629 527.213 313.269 527.213 314.947C527.21 317.197 526.317 319.353 524.728 320.943C523.14 322.534 520.986 323.429 518.74 323.431ZM518.74 307.878C517.343 307.878 515.978 308.292 514.817 309.069C513.656 309.846 512.751 310.95 512.216 312.242C511.682 313.534 511.542 314.955 511.814 316.327C512.087 317.698 512.759 318.958 513.747 319.947C514.734 320.935 515.992 321.609 517.362 321.881C518.732 322.154 520.151 322.014 521.442 321.479C522.732 320.944 523.835 320.038 524.61 318.875C525.386 317.713 525.8 316.346 525.8 314.947C525.798 313.073 525.054 311.276 523.73 309.951C522.406 308.625 520.612 307.88 518.74 307.878Z" fill="#3F3D56"/>
<path d="M586.402 409.887H572.463V395.93H586.402V409.887ZM573.535 408.813H585.33V397.004H573.535V408.813Z" fill="#3F3D56"/>
<path d="M114.487 410.651L104.979 400.445L115.173 390.925L124.68 401.131L114.487 410.651ZM106.495 400.497L114.54 409.133L123.165 401.078L115.12 392.442L106.495 400.497Z" fill="#3F3D56"/>
<path d="M621 409.099H15.3025V410.513H621V409.099Z" fill="#3F3D56"/>
<path d="M390.799 94.5649V140.999C390.798 141.428 390.627 141.839 390.324 142.142C390.021 142.446 389.611 142.617 389.182 142.618H388.032V384.509C388.031 391.203 385.375 397.622 380.648 402.356C375.921 407.089 369.51 409.748 362.824 409.748H211.871C208.561 409.748 205.284 409.095 202.226 407.826C199.168 406.558 196.39 404.698 194.05 402.355C191.71 400.011 189.854 397.229 188.588 394.167C187.321 391.105 186.67 387.823 186.671 384.509V151.102H185.838C185.535 151.102 185.245 150.983 185.031 150.769C184.816 150.556 184.695 150.266 184.694 149.963V123.537C184.694 123.386 184.723 123.237 184.781 123.098C184.838 122.959 184.922 122.833 185.029 122.727C185.135 122.62 185.261 122.536 185.4 122.479C185.539 122.421 185.687 122.391 185.838 122.391H186.671V112.437H185.83C185.513 112.436 185.209 112.309 184.986 112.083C184.762 111.858 184.637 111.553 184.637 111.235V85.1692C184.638 84.8526 184.764 84.5492 184.988 84.3253C185.211 84.1014 185.514 83.9753 185.83 83.9744H186.671V70.3864H185.816C185.677 70.3866 185.539 70.3593 185.411 70.306C185.282 70.2528 185.165 70.1747 185.067 70.0762C184.969 69.9777 184.891 69.8607 184.837 69.732C184.784 69.6032 184.757 69.4652 184.757 69.3259V55.1016C184.757 54.8195 184.868 54.5487 185.066 54.3485C185.265 54.1484 185.535 54.0353 185.816 54.0341H186.671V25.2319C186.671 18.5401 189.326 12.1224 194.052 7.39054C198.778 2.65869 205.187 0.000258994 211.871 1.5259e-05H362.824C369.508 -1.49937e-05 375.919 2.6581 380.646 7.3898C385.373 12.1215 388.03 18.5393 388.031 25.2319V92.9459H389.182C389.611 92.9471 390.021 93.118 390.324 93.4214C390.627 93.7247 390.798 94.1359 390.799 94.5649Z" fill="#3F3D56"/>
<path d="M294.62 12.9424H270.091C269.1 12.9424 268.296 13.747 268.296 14.7395V16.8623C268.296 17.8548 269.1 18.6593 270.091 18.6593H294.62C295.612 18.6593 296.415 17.8548 296.415 16.8623V14.7395C296.415 13.747 295.612 12.9424 294.62 12.9424Z" fill="#E6E8EC"/>
<path d="M303.905 19.0435C305.694 19.0435 307.144 17.5917 307.144 15.8009C307.144 14.01 305.694 12.5582 303.905 12.5582C302.116 12.5582 300.667 14.01 300.667 15.8009C300.667 17.5917 302.116 19.0435 303.905 19.0435Z" fill="#E6E8EC"/>
<path d="M375.961 30.2235V386.602C375.963 388.919 375.462 391.209 374.491 393.313C373.521 395.416 372.104 397.283 370.341 398.783C367.447 401.253 363.77 402.609 359.968 402.608H215.468C212.897 402.612 210.363 401.994 208.083 400.805C207.547 400.531 207.028 400.224 206.529 399.886C204.358 398.419 202.579 396.441 201.349 394.125C200.119 391.808 199.476 389.225 199.476 386.602V30.2235C199.475 28.1206 199.889 26.0383 200.693 24.0955C201.496 22.1527 202.674 20.3874 204.16 18.9004C205.645 17.4135 207.408 16.234 209.348 15.4293C211.288 14.6246 213.368 14.2105 215.468 14.2106H237.096V16.989C237.096 20.4859 238.483 23.8395 240.953 26.3122C243.422 28.7849 246.772 30.174 250.264 30.174H323.753C327.246 30.174 330.595 28.7849 333.065 26.3122C335.534 23.8395 336.922 20.4859 336.922 16.989V14.2106H359.968C362.069 14.2099 364.149 14.6236 366.089 15.4281C368.03 16.2326 369.793 17.412 371.278 18.8991C372.764 20.3862 373.942 22.1517 374.745 24.0948C375.549 26.0379 375.962 28.1205 375.961 30.2235Z" fill="#007B77" fill-opacity="0.29"/>
<path d="M388.536 184.803V205.413C388.536 205.413 390.182 228.497 399.239 240.039C399.239 240.039 414.06 261.061 416.119 256.527L413.583 241.599L405.003 233.443L400.475 207.887L399.239 184.803H388.536Z" fill="#FFB8B8"/>
<path d="M479.518 371.12V386.371L467.168 390.906V373.181L479.518 371.12Z" fill="#FFB8B8"/>
<path d="M454.405 369.471L462.639 388.02L451.112 392.967L448.642 374.83L454.405 369.471Z" fill="#FFB8B8"/>
<path d="M474.99 227.26C474.99 227.26 491.457 376.066 485.282 376.479C479.106 376.891 467.168 384.723 467.168 379.364C467.168 374.005 457.699 304.343 457.699 304.343L448.642 268.481V317.945L458.11 374.005C458.11 374.005 449.053 385.959 442.466 378.952L428.469 324.129C428.469 324.129 409.943 240.863 410.767 234.268C410.767 234.268 453.17 197.994 474.99 227.26Z" fill="#2F2E41"/>
<path d="M471.696 387.196C471.696 387.196 474.99 380.188 482.4 384.723L488.575 392.143C488.575 392.143 504.496 405.344 493.199 408.172C481.555 411.087 474.578 407.986 474.578 407.986C474.578 407.986 472.52 406.749 470.873 406.749C469.226 406.749 465.521 403.864 465.521 403.04C465.521 402.215 466.756 387.608 466.756 387.608C467.223 387.381 467.746 387.298 468.26 387.372C468.774 387.445 469.254 387.671 469.638 388.02C470.873 389.257 471.696 387.196 471.696 387.196Z" fill="#2F2E41"/>
<path d="M447.407 384.723C447.407 384.723 455.229 378.54 458.934 385.547C458.934 385.547 461.267 386.372 461.541 385.547C461.816 384.723 463.874 384.311 463.874 388.845C463.874 393.379 466.11 404.688 464.051 405.101C461.993 405.513 459.935 406.749 460.346 408.398C460.758 410.047 458.111 410.279 448.642 409.867C439.173 409.455 438.761 405.745 438.761 405.745C438.761 405.745 438.761 400.387 441.232 397.501C443.702 394.616 447.407 384.723 447.407 384.723Z" fill="#2F2E41"/>
<path d="M432.174 114.728C432.174 114.728 430.116 129.98 443.29 135.338C456.464 140.697 414.06 158.422 409.943 148.117C405.827 137.812 410.767 134.514 410.767 134.514C410.767 134.514 414.884 130.392 411.178 119.262L432.174 114.728Z" fill="#FFB8B8"/>
<path d="M419 125.445C429.005 125.445 437.115 117.325 437.115 107.308C437.115 97.2916 429.005 89.1714 419 89.1714C408.996 89.1714 400.886 97.2916 400.886 107.308C400.886 117.325 408.996 125.445 419 125.445Z" fill="#FFB8B8"/>
<path d="M439.996 140.285C439.996 140.285 427.646 146.88 415.707 141.934C403.768 136.987 404.18 158.422 404.18 158.422L410.355 174.498L453.17 170.376L450.289 145.644L439.996 140.285Z" fill="#F2F2F2"/>
<path d="M433.86 126.181C436.053 126.646 438.113 127.6 439.888 128.971C441.663 130.343 443.107 132.096 444.113 134.102L463.874 140.285L468.814 147.292L463.051 197.994C463.051 197.994 473.755 208.299 473.755 214.07C473.755 219.841 486.929 239.626 480.342 237.153C473.755 234.68 461.816 226.024 461.816 226.024C461.816 226.024 431.763 227.26 422.294 235.504C412.825 243.748 409.12 241.275 409.12 241.275C409.12 241.275 399.239 198.406 398.828 191.811C398.416 185.215 386.889 145.644 386.889 145.644L407.473 134.102L412.716 128.145L427.234 151.414L440.408 135.338C440.408 135.338 433.899 130.213 433.86 126.181Z" fill="#3F3D56"/>
<path d="M474.99 179.032L477.46 192.223C477.46 192.223 488.575 233.443 486.929 247.458C486.929 247.458 488.164 278.786 481.165 275.076C474.166 271.366 477.872 248.695 477.872 248.695L467.991 207.887L462.639 183.979L474.99 179.032Z" fill="#FFB8B8"/>
<path d="M464.698 144.819L468.814 147.292C468.814 147.292 484.458 179.857 480.753 182.33C477.048 184.803 460.992 190.162 460.992 190.162L464.698 144.819Z" fill="#3F3D56"/>
<path d="M396.769 145.644L387.095 145.437L384.831 149.353L387.712 189.338L402.533 192.635L396.769 145.644Z" fill="#3F3D56"/>
<path d="M433.751 91.9692L437.016 90.7804C437.016 90.7804 430.189 83.9451 420.691 84.5395L423.363 81.8647C423.363 81.8647 416.833 79.4872 410.896 85.7282C407.776 89.0089 404.165 92.8653 401.914 97.2094H398.418L399.877 100.132L394.769 103.054L400.012 102.529C399.515 105.052 399.686 107.661 400.508 110.098L401.695 113.367C401.695 113.367 406.444 103.857 406.444 102.668V105.64C406.444 105.64 409.709 102.965 409.709 101.182L411.49 103.262L412.38 99.9933L423.363 103.262L421.582 100.588L428.408 101.479L425.737 98.2102C425.737 98.2102 433.454 102.074 433.751 105.343C434.048 108.612 436.085 112.873 436.085 112.873L438.556 109.988C438.556 109.988 442.359 96.4271 433.751 91.9692Z" fill="#2F2E41"/>
<path d="M434.233 111.224C435.029 111.224 435.674 109.563 435.674 107.515C435.674 105.466 435.029 103.805 434.233 103.805C433.437 103.805 432.792 105.466 432.792 107.515C432.792 109.563 433.437 111.224 434.233 111.224Z" fill="#FFB8B8"/>
<path d="M29.3971 386.727C38.1726 403.022 56.7974 410.017 56.7974 410.017C56.7974 410.017 61.1942 390.592 52.4187 374.297C43.6432 358.002 25.0185 351.007 25.0185 351.007C25.0185 351.007 20.6216 370.432 29.3971 386.727Z" fill="#3F3D56"/>
<path d="M35.4288 381.366C51.2722 390.91 57.374 409.866 57.374 409.866C57.374 409.866 37.7885 413.35 21.9452 403.806C6.10179 394.262 0 375.305 0 375.305C0 375.305 19.5854 371.822 35.4288 381.366Z" fill="#007B77"/>
<path d="M287.905 398.504C292.195 398.504 295.672 395.022 295.672 390.727C295.672 386.432 292.195 382.951 287.905 382.951C283.616 382.951 280.138 386.432 280.138 390.727C280.138 395.022 283.616 398.504 287.905 398.504Z" fill="white"/>
<rect x="239" y="227" width="113" height="9" rx="4.5" fill="#F5F5F5"/>
<rect x="248" y="246" width="113" height="9" rx="4.5" fill="#F5F5F5"/>
<rect x="223" y="265" width="113" height="9" rx="4.5" fill="#F5F5F5"/>
<rect x="236" y="284" width="114" height="10" rx="5" fill="#F5F5F5"/>
<path d="M294.547 93.0793C299.631 93 304.686 93.047 309.735 93C310.041 98.9958 312.18 105.103 316.532 109.342C320.877 113.687 327.021 115.676 333 116.348V132.121C327.397 131.936 321.768 130.761 316.684 128.328C314.47 127.318 312.407 126.016 310.388 124.686C310.361 136.131 310.434 147.561 310.315 158.959C310.012 164.435 308.22 169.884 305.062 174.397C299.98 181.908 291.161 186.805 282.103 186.958C276.546 187.278 270.996 185.751 266.261 182.936C258.415 178.271 252.894 169.732 252.09 160.566C251.988 158.625 251.973 156.68 252.043 154.738C252.742 147.285 256.399 140.155 262.075 135.305C268.508 129.656 277.52 126.965 285.957 128.557C286.036 134.359 285.806 140.155 285.806 145.957C281.951 144.7 277.447 145.052 274.079 147.411C271.614 149.048 269.752 151.456 268.779 154.265C267.975 156.251 268.205 158.457 268.251 160.566C269.175 166.994 275.305 172.396 281.849 171.811C286.187 171.764 290.345 169.226 292.606 165.51C293.337 164.209 294.156 162.878 294.2 161.348C294.581 154.341 294.43 147.364 294.477 140.358C294.509 124.568 294.43 108.822 294.549 93.0823L294.547 93.0793Z" fill="#F5F5F5"/>
</svg>
