<svg width="77" height="82" viewBox="0 0 77 82" fill="none" xmlns="http://www.w3.org/2000/svg">
<g clip-path="url(#clip0)">
<path d="M77 18.1866H76.5809V6.66717C76.5809 5.79162 76.4091 4.92465 76.0752 4.11575C75.7412 3.30686 75.2518 2.57187 74.6348 1.95277C74.0178 1.33366 73.2853 0.842565 72.4792 0.507508C71.673 0.172451 70.809 -1.21686e-06 69.9365 -1.90733e-06H45.6139C44.7413 -3.97875e-06 43.8773 0.172445 43.0712 0.5075C42.265 0.842554 41.5325 1.33365 40.9155 1.95275C40.2985 2.57186 39.8091 3.30684 39.4752 4.11573C39.1413 4.92463 38.9694 5.7916 38.9694 6.66715V69.8639C38.9694 71.6322 39.6694 73.328 40.9155 74.5783C42.1616 75.8287 43.8516 76.5311 45.6139 76.5311H69.9364C71.6987 76.5311 73.3887 75.8287 74.6348 74.5783C75.8809 73.328 76.5809 71.6322 76.5809 69.864V26.3864H77L77 18.1866Z" fill="#3F3D56"/>
<path d="M70.2046 1.73457H67.0297C67.1757 2.09375 67.2314 2.48345 67.192 2.86933C67.1525 3.25522 67.0191 3.62545 66.8035 3.9474C66.5878 4.26936 66.2966 4.53317 65.9554 4.71558C65.6142 4.898 65.2336 4.99342 64.847 4.99345H50.9129C50.5263 4.99342 50.1457 4.898 49.8045 4.71558C49.4633 4.53317 49.1721 4.26936 48.9565 3.9474C48.7408 3.62545 48.6074 3.25522 48.5679 2.86933C48.5285 2.48345 48.5842 2.09375 48.7302 1.73457H45.7649C44.4489 1.73457 43.1868 2.25913 42.2562 3.19287C41.3256 4.12661 40.8029 5.39302 40.8029 6.71353V69.8176C40.8029 71.1381 41.3256 72.4045 42.2562 73.3383C43.1868 74.272 44.4489 74.7966 45.7649 74.7966H70.2046C70.8562 74.7966 71.5014 74.6678 72.1035 74.4176C72.7055 74.1673 73.2525 73.8006 73.7132 73.3383C74.174 72.8759 74.5395 72.327 74.7889 71.723C75.0382 71.1189 75.1666 70.4714 75.1666 69.8176V6.71353C75.1666 6.05968 75.0382 5.41224 74.7889 4.80816C74.5395 4.20409 74.174 3.65521 73.7132 3.19287C73.2525 2.73053 72.7055 2.36379 72.1035 2.11357C71.5014 1.86336 70.8562 1.73457 70.2046 1.73457Z" fill="white"/>
<path d="M59.2673 70.3269C57.1076 70.3279 55.0132 69.5841 53.3351 68.22C51.657 66.8559 50.4971 64.9546 50.0499 62.8345C49.6026 60.7144 49.8952 58.5045 50.8785 56.5752C51.8619 54.6458 53.4762 53.1142 55.4511 52.237C57.4259 51.3599 59.6412 51.1905 61.7257 51.7572C63.8102 52.324 65.6373 53.5924 66.9006 55.35C68.164 57.1076 68.7869 59.2475 68.665 61.411C68.5431 63.5746 67.6838 65.6304 66.231 67.2339L68.1976 69.446L67.2162 69.8637C65.6981 70.5098 64.2124 69.8811 63.3786 69.3793C62.0971 70.0027 60.6915 70.3266 59.2673 70.3269ZM59.2673 52.9815C58.0663 52.9819 56.8813 53.2577 55.8028 53.788C54.7243 54.3183 53.7808 55.0889 53.0446 56.041C52.3083 56.9931 51.7987 58.1015 51.5548 59.2815C51.3108 60.4615 51.3388 61.6818 51.6368 62.8493C51.9348 64.0167 52.4948 65.1003 53.274 66.0174C54.0533 66.9344 55.0311 67.6605 56.1329 68.1403C57.2346 68.6201 58.431 68.8408 59.6308 68.7856C60.8306 68.7303 62.0019 68.4006 63.0552 67.8217L63.4753 67.59L63.8659 67.8689C64.3123 68.1947 64.8191 68.4274 65.3566 68.5533L64.1191 67.1614L64.6616 66.6499C65.4495 65.9134 66.0771 65.0212 66.5047 64.0296C66.9324 63.0379 67.1509 61.9682 67.1466 60.8877C67.1442 58.7916 66.3133 56.782 64.8362 55.2998C63.3591 53.8176 61.3563 52.9839 59.2673 52.9815Z" fill="#E6E6E6"/>
<path d="M67.9106 60.8877C67.9098 58.9877 67.287 57.1405 66.138 55.6303C64.9889 54.1201 63.3772 53.0305 61.5508 52.5291C59.7244 52.0277 57.7844 52.1422 56.0292 52.8551C54.274 53.5679 52.8007 54.8397 51.8361 56.4746C50.8715 58.1096 50.4688 60.0173 50.6901 61.9043C50.9114 63.7912 51.7444 65.553 53.0609 66.9186C54.3775 68.2842 56.1047 69.1781 57.9769 69.4626C59.849 69.7471 61.7625 69.4067 63.4231 68.4935C64.0205 68.9201 65.4781 69.7709 66.918 69.158L65.1847 67.2085C66.0463 66.3984 66.7329 65.4194 67.2018 64.3321C67.6707 63.2448 67.9119 62.0724 67.9106 60.8877Z" fill="white"/>
<path d="M60.9918 59.1144H54.8158V59.6899H60.9918V59.1144Z" fill="#7F0027"/>
<path d="M65.5801 61.1052H54.8158V61.6807H65.5801V61.1052Z" fill="#E6E6E6"/>
<path d="M65.5696 63.096H54.8158V63.6715H65.5696V63.096Z" fill="#E6E6E6"/>
<path d="M59.2673 28.3692C57.1077 28.3702 55.0133 27.6263 53.3352 26.2623C51.657 24.8982 50.4972 22.9968 50.0499 20.8767C49.6027 18.7567 49.8952 16.5468 50.8786 14.6174C51.8619 12.6881 53.4763 11.1565 55.4511 10.2793C57.426 9.40215 59.6413 9.23276 61.7258 9.7995C63.8103 10.3663 65.6373 11.6347 66.9007 13.3923C68.164 15.1498 68.7869 17.2897 68.665 19.4533C68.5431 21.6169 67.6838 23.6727 66.231 25.2762L68.1976 27.4882L67.2163 27.9059C65.6981 28.5521 64.2125 27.9233 63.3786 27.4215C62.0971 28.0449 60.6915 28.3689 59.2673 28.3692ZM59.2673 11.0238C58.0663 11.0241 56.8813 11.3 55.8028 11.8303C54.7243 12.3605 53.7809 13.1311 53.0446 14.0833C52.3084 15.0354 51.7988 16.1438 51.5548 17.3238C51.3108 18.5038 51.3389 19.7241 51.6368 20.8915C51.9348 22.059 52.4948 23.1426 53.2741 24.0596C54.0533 24.9766 55.0312 25.7028 56.1329 26.1826C57.2346 26.6623 58.4311 26.883 59.6308 26.8278C60.8306 26.7726 62.0019 26.4429 63.0552 25.8639L63.4753 25.6323L63.8659 25.9112C64.3123 26.2369 64.8192 26.4696 65.3566 26.5956L64.1191 25.2036L64.6616 24.6921C65.4495 23.9556 66.0771 23.0635 66.5048 22.0718C66.9324 21.0802 67.151 20.0105 67.1466 18.9299C67.1443 16.8338 66.3134 14.8242 64.8362 13.342C63.3591 11.8599 61.3563 11.0261 59.2673 11.0238V11.0238Z" fill="#E6E6E6"/>
<path d="M67.9106 18.9299C67.9099 17.0299 67.2871 15.1828 66.138 13.6726C64.989 12.1624 63.3773 11.0728 61.5509 10.5714C59.7245 10.0699 57.7845 10.1845 56.0292 10.8973C54.274 11.6102 52.8008 12.8819 51.8361 14.5169C50.8715 16.1519 50.4689 18.0595 50.6902 19.9465C50.9115 21.8335 51.7444 23.5953 53.061 24.9609C54.3775 26.3265 56.1047 27.2203 57.9769 27.5049C59.8491 27.7894 61.7626 27.4489 63.4231 26.5358C64.0206 26.9623 65.4782 27.8131 66.918 27.2003L65.1848 25.2507C66.0464 24.4407 66.7329 23.4617 67.2018 22.3743C67.6707 21.287 67.912 20.1147 67.9106 18.9299Z" fill="white"/>
<path d="M60.9918 17.1567H54.8158V17.7322H60.9918V17.1567Z" fill="#7F0027"/>
<path d="M65.5801 19.1475H54.8158V19.723H65.5801V19.1475Z" fill="#E6E6E6"/>
<path d="M65.5696 21.1383H54.8158V21.7138H65.5696V21.1383Z" fill="#E6E6E6"/>
<path d="M71.2393 29.1755C71.9917 29.1755 72.6017 28.5634 72.6017 27.8084C72.6017 27.0534 71.9917 26.4414 71.2393 26.4414C70.4869 26.4414 69.8769 27.0534 69.8769 27.8084C69.8769 28.5634 70.4869 29.1755 71.2393 29.1755Z" fill="#E6E6E6"/>
<path d="M71.2393 71.1332C71.9917 71.1332 72.6017 70.5212 72.6017 69.7662C72.6017 69.0112 71.9917 68.3991 71.2393 68.3991C70.4869 68.3991 69.8769 69.0112 69.8769 69.7662C69.8769 70.5212 70.4869 71.1332 71.2393 71.1332Z" fill="#E6E6E6"/>
<path d="M41.152 50.0557C40.155 50.6556 38.3787 51.4074 36.5634 50.6348L35.3901 50.1354L37.7414 47.4905C35.8651 45.4146 34.827 42.7115 34.8298 39.9089C34.8327 37.1063 35.8763 34.4054 37.7569 32.3333C39.6375 30.2612 42.2202 28.9667 45.0008 28.7024C47.7814 28.4381 50.5604 29.223 52.7953 30.904C55.0302 32.5849 56.5606 35.0412 57.0878 37.7934C57.6151 40.5456 57.1013 43.3961 55.6467 45.7887C54.1922 48.1812 51.9013 49.944 49.2212 50.733C46.5411 51.522 43.6642 51.2805 41.152 50.0557H41.152Z" fill="#7F0027"/>
<path opacity="0.1" d="M55.5403 39.8502C55.5401 37.2588 54.573 34.7613 52.8293 32.8496C51.0857 30.9379 48.6919 29.7505 46.1193 29.5214C46.4204 29.4949 46.7248 29.4806 47.0327 29.4806C49.7724 29.4824 52.3993 30.5756 54.3359 32.5201C56.2726 34.4646 57.3605 37.1012 57.3605 39.8502C57.3605 42.5993 56.2726 45.2358 54.3359 47.1803C52.3993 49.1248 49.7724 50.2181 47.0327 50.2199C46.7253 50.2199 46.4213 50.2054 46.1208 50.179C48.693 49.9495 51.0865 48.762 52.8298 46.8504C54.5732 44.9387 55.5401 42.4415 55.5403 39.8502Z" fill="black"/>
<path d="M47.5181 37.7824H40.1336V38.4705H47.5181V37.7824Z" fill="white"/>
<path d="M53.0041 40.1627H40.1336V40.8508H53.0041V40.1627Z" fill="white"/>
<path d="M52.9915 42.5431H40.1336V43.2312H52.9915V42.5431Z" fill="white"/>
<path d="M0.104799 82H40.0334C40.0612 82 40.0878 81.9889 40.1075 81.9692C40.1271 81.9495 40.1382 81.9227 40.1382 81.8948C40.1382 81.8669 40.1271 81.8402 40.1075 81.8205C40.0878 81.8008 40.0612 81.7897 40.0334 81.7897H0.104799C0.0770049 81.7897 0.0503487 81.8008 0.030695 81.8205C0.0110413 81.8402 0 81.8669 0 81.8948C0 81.9227 0.0110413 81.9495 0.030695 81.9692C0.0503487 81.9889 0.0770049 82 0.104799 82Z" fill="#CCCCCC"/>
<path d="M19.2606 36.7545L19.4184 35.9628C19.4184 35.9628 21.7396 35.171 21.9994 36.7545H19.2606Z" fill="#E6E6E6"/>
<path d="M23.7155 80.3504L25.2373 80.3503L25.9612 74.4606L23.7152 74.4607L23.7155 80.3504Z" fill="#9F616A"/>
<path d="M23.3273 79.8519L26.3242 79.8517H26.3243C26.8309 79.8518 27.3166 80.0537 27.6748 80.4131C28.0329 80.7725 28.2342 81.2599 28.2342 81.7681V81.8304L23.3274 81.8306L23.3273 79.8519Z" fill="#2F2E41"/>
<path d="M16.3795 80.3504L17.9013 80.3503L18.6253 74.4606L16.3792 74.4607L16.3795 80.3504Z" fill="#9F616A"/>
<path d="M15.9913 79.8519L18.9882 79.8517H18.9884C19.4949 79.8518 19.9807 80.0537 20.3388 80.4131C20.697 80.7725 20.8982 81.2599 20.8983 81.7681V81.8304L15.9914 81.8306L15.9913 79.8519Z" fill="#2F2E41"/>
<path d="M17.0512 40.0799L15.3152 39.9216L14.2105 45.1473L14.3683 49.8978L16.1043 56.232L18.4716 54.8068L17.209 48.3143L17.0512 40.0799Z" fill="#2F2E41"/>
<path d="M15.9524 55.6777L16.341 59.0031L16.706 66.7624L15.8676 78.3253L18.866 78.1639L20.3357 66.1291L21.2332 60.5866L22.4957 66.9208L23.2849 78.7972L26.3622 78.5498V66.879L26.4411 58.3697L25.3364 55.0443L15.9524 55.6777Z" fill="#2F2E41"/>
<path d="M22.4169 36.9129C22.4169 36.9129 21.3122 35.3294 19.2606 36.4378L18.3137 37.7046L15.3152 39.9216L15.9465 47.3642L15.1574 56.707L26.3622 56.5486L24.4685 47.2058V37.2296L22.4169 36.9129Z" fill="#2F2E41"/>
<path opacity="0.25" d="M16.341 42.55L15.4362 53.4063L16.5777 47.5226L16.341 42.55Z" fill="black"/>
<path d="M35.1762 51.6523C35.0151 51.7073 34.8439 51.7261 34.6748 51.7074C34.5056 51.6888 34.3426 51.6332 34.1972 51.5445C34.0518 51.4558 33.9275 51.3362 33.8332 51.1941C33.7388 51.0521 33.6766 50.8909 33.6511 50.7221L31.0689 50.0818L31.074 48.4124L34.7078 49.3681C34.9933 49.3437 35.2777 49.4253 35.5072 49.5973C35.7368 49.7694 35.8954 50.0199 35.9532 50.3015C36.0109 50.583 35.9637 50.8761 35.8205 51.125C35.6773 51.374 35.448 51.5616 35.1762 51.6523Z" fill="#9F616A"/>
<path d="M32.4761 48.3925L32.0419 50.8884L33.1301 51.079L33.5643 48.5831L32.4761 48.3925Z" fill="#E6E6E6"/>
<path d="M22.1807 34.6941C23.7164 33.8517 24.2808 31.9196 23.4413 30.3787C22.6018 28.8377 20.6763 28.2714 19.1406 29.1137C17.6048 29.9561 17.0404 31.8882 17.8799 33.4292C18.7194 34.9701 20.645 35.5365 22.1807 34.6941Z" fill="#9F616A"/>
<path d="M20.8973 34.7089C20.122 34.8957 19.3051 34.7867 18.6054 34.403C17.9057 34.0194 17.3731 33.3885 17.111 32.6329C16.8489 31.8773 16.876 31.0509 17.187 30.3142C17.4981 29.5775 18.0709 28.9831 18.7942 28.6465C19.3512 28.397 19.9604 28.2873 20.5691 28.3269C21.5169 28.3769 22.438 28.7284 23.3868 28.7025L23.5243 28.9243L24.0425 28.7981L24.1536 29.211L24.2901 29.2063C24.5346 29.6622 24.1412 30.315 23.6252 30.3095C23.4209 30.3073 23.2277 30.2219 23.028 30.1789C22.8282 30.136 22.5929 30.1467 22.4552 30.2981C22.2762 30.4948 22.3541 30.8019 22.3914 31.0656C22.4288 31.3294 22.3355 31.6847 22.0702 31.6933C21.9346 31.6977 21.8057 31.6001 21.6725 31.6258C21.5173 31.6557 21.4389 31.8436 21.4615 32.0005C21.5 32.1545 21.5626 32.3012 21.6472 32.4353C22.0318 33.2059 21.707 34.254 20.9547 34.6697" fill="#2F2E41"/>
<path d="M23.7152 37.8414L24.4685 37.2296C24.4685 37.2296 25.9887 37.1235 25.9612 38.7406L28.3937 46.3755L33.0601 48.0342L32.4313 51.2941L25.829 48.7703L22.4754 43.1928L23.7152 37.8414Z" fill="#2F2E41"/>
</g>
<defs>
<clipPath id="clip0">
<rect width="77" height="82" fill="white"/>
</clipPath>
</defs>
</svg>
