<svg width="111" height="73" viewBox="0 0 111 73" fill="none" xmlns="http://www.w3.org/2000/svg">
<g clip-path="url(#clip0)">
<path d="M39.7455 63.2538C40.147 60.0145 42.1481 56.8228 45.2274 55.7686C44.013 59.1028 44.0133 62.7605 45.2281 66.0945C45.7013 67.3786 46.3609 68.7574 45.9158 70.0516C45.6389 70.8568 44.9614 71.4729 44.2041 71.8582C43.4468 72.2434 42.6064 72.427 41.7764 72.6069L41.6131 72.7425C40.2956 69.7578 39.3439 66.4932 39.7455 63.2538Z" fill="#F0F0F0"/>
<path d="M45.258 55.83C43.4647 57.8458 42.3502 60.3773 42.0726 63.0648C42.0026 63.6423 42.0238 64.2272 42.1354 64.7981C42.262 65.3507 42.5338 65.8592 42.9225 66.2708C43.2773 66.6618 43.6853 67.0206 43.9391 67.4914C44.0655 67.7343 44.1392 68.0013 44.1556 68.2748C44.1719 68.5483 44.1304 68.8222 44.0338 69.0785C43.8097 69.7233 43.368 70.249 42.9182 70.748C42.4188 71.302 41.8914 71.8695 41.6791 72.604C41.6534 72.693 41.5173 72.6477 41.5429 72.5589C41.9123 71.281 43.1487 70.5551 43.7383 69.4042C44.0135 68.8671 44.129 68.2436 43.871 67.6767C43.6455 67.181 43.225 66.8106 42.8624 66.4178C42.4773 66.0219 42.1947 65.5374 42.0393 65.0066C41.8991 64.4433 41.8555 63.8601 41.9104 63.2821C42.0131 61.9788 42.3195 60.6999 42.8182 59.4921C43.3799 58.1104 44.1729 56.8354 45.1631 55.7221C45.2244 55.6532 45.3189 55.7615 45.258 55.83Z" fill="white"/>
<path d="M42.1112 62.194C41.668 62.0861 41.2776 61.8237 41.0095 61.4536C40.7415 61.0835 40.6133 60.6299 40.6478 60.1737C40.6551 60.0815 40.7984 60.0885 40.7911 60.1809C40.7581 60.6056 40.8776 61.0282 41.1279 61.3723C41.3782 61.7164 41.7429 61.9594 42.1561 62.0574C42.2459 62.0789 42.2004 62.2153 42.1112 62.194Z" fill="white"/>
<path d="M42.7166 66.0962C43.5169 65.6167 44.1077 64.8523 44.3712 63.9553C44.3972 63.8664 44.5334 63.9116 44.5074 64.0004C44.2314 64.9333 43.615 65.7276 42.7811 66.2247C42.7015 66.272 42.6375 66.1432 42.7166 66.0962L42.7166 66.0962Z" fill="white"/>
<path d="M43.5129 58.2467C43.6757 58.3243 43.8551 58.3601 44.0351 58.3509C44.2151 58.3418 44.39 58.2879 44.5441 58.1941C44.623 58.1458 44.687 58.2746 44.6086 58.3226C44.4379 58.4254 44.2446 58.4847 44.0458 58.4952C43.847 58.5058 43.6486 58.4674 43.4679 58.3833C43.4503 58.3768 43.4357 58.3638 43.4272 58.3469C43.4188 58.33 43.417 58.3105 43.4223 58.2924C43.4284 58.2743 43.4413 58.2594 43.4582 58.2508C43.4752 58.2423 43.4948 58.2408 43.5129 58.2467Z" fill="white"/>
<path d="M54.6136 61.5546C54.5652 61.5861 54.5168 61.6177 54.4683 61.6505C53.8198 62.0783 53.207 62.5583 52.636 63.0857C52.5912 63.1258 52.5464 63.1671 52.5029 63.2083C51.1406 64.4937 50.0281 66.0216 49.2218 67.7144C48.9016 68.3883 48.6329 69.0856 48.4181 69.8004C48.1216 70.7876 47.8783 71.8816 47.2914 72.6891C47.2311 72.774 47.1656 72.8551 47.0953 72.9319H41.7906C41.7785 72.9258 41.7664 72.921 41.7543 72.9149L41.5425 72.9246C41.551 72.887 41.5606 72.8481 41.5691 72.8105C41.574 72.7886 41.58 72.7668 41.5849 72.7449C41.5885 72.7304 41.5921 72.7158 41.5945 72.7024C41.5957 72.6976 41.597 72.6927 41.5981 72.6891C41.6006 72.6757 41.6042 72.6636 41.6067 72.6514C41.6599 72.4341 41.7148 72.2167 41.7712 71.9994C41.7712 71.9982 41.7712 71.9982 41.7724 71.997C42.207 70.342 42.783 68.7088 43.5879 67.2153C43.6121 67.1704 43.6363 67.1242 43.6629 67.0793C44.0294 66.4081 44.45 65.7681 44.9204 65.1657C45.1791 64.8366 45.4541 64.5209 45.7446 64.2198C46.4966 63.4432 47.3658 62.79 48.3201 62.2843C50.2227 61.2765 52.4254 60.8904 54.4587 61.506C54.5107 61.5218 54.5616 61.5376 54.6136 61.5546Z" fill="#F0F0F0"/>
<path d="M54.6016 61.6221C51.9601 62.1484 49.551 63.4964 47.7166 65.4746C47.3142 65.8934 46.98 66.3733 46.7265 66.8965C46.496 67.4142 46.4078 67.9843 46.4712 68.5478C46.5198 69.0743 46.6303 69.6072 46.5505 70.1364C46.5056 70.4067 46.4043 70.6644 46.2532 70.8927C46.102 71.1209 45.9046 71.3145 45.6736 71.4608C45.1077 71.8403 44.4396 71.9932 43.781 72.12C43.0498 72.2607 42.2881 72.3952 41.6778 72.8534C41.6039 72.9089 41.5224 72.7906 41.5962 72.7351C42.6579 71.9379 44.0807 72.1052 45.2422 71.5424C45.7842 71.2798 46.2506 70.8517 46.3849 70.2433C46.5023 69.7112 46.3888 69.1615 46.335 68.6289C46.2652 68.0801 46.3303 67.5226 46.5247 67.0049C46.7508 66.4705 47.066 65.9785 47.4566 65.5501C48.3208 64.5716 49.3329 63.7355 50.456 63.0724C51.7335 62.3085 53.1319 61.7694 54.5906 61.4786C54.6809 61.4606 54.6913 61.6042 54.6016 61.6221V61.6221Z" fill="white"/>
<path d="M48.2699 64.8027C47.9809 64.4489 47.8266 64.0035 47.8347 63.5461C47.8428 63.0887 48.0127 62.649 48.314 62.3057C48.3752 62.2364 48.4854 62.3286 48.4241 62.398C48.1429 62.7172 47.9847 63.1267 47.978 63.5527C47.9714 63.9786 48.1167 64.3929 48.3878 64.7208C48.4466 64.7921 48.3284 64.8737 48.2699 64.8027Z" fill="white"/>
<path d="M46.4115 68.2841C47.3383 68.3847 48.2688 68.1312 49.0175 67.5741C49.0916 67.5188 49.1732 67.6372 49.0991 67.6924C48.3189 68.2706 47.3501 68.5325 46.3859 68.4256C46.294 68.4154 46.3201 68.2739 46.4115 68.2841Z" fill="white"/>
<path d="M51.758 62.4976C51.8414 62.6579 51.9632 62.7949 52.1124 62.8963C52.2616 62.9977 52.4336 63.0603 52.6129 63.0786C52.7049 63.0876 52.6787 63.2291 52.5873 63.2201C52.3893 63.199 52.1994 63.1296 52.0343 63.018C51.8692 62.9063 51.7339 62.7558 51.6401 62.5795C51.6299 62.5637 51.6261 62.5445 51.6295 62.5259C51.6328 62.5073 51.6431 62.4907 51.6582 62.4795C51.6739 62.4687 51.6932 62.4646 51.7119 62.468C51.7305 62.4714 51.7471 62.482 51.758 62.4976Z" fill="white"/>
<path d="M57.6264 0.804932C57.4018 0.805185 57.1864 0.894815 57.0276 1.05416C56.8688 1.2135 56.7794 1.42955 56.7792 1.6549V37.5962C56.7794 37.8215 56.8688 38.0376 57.0276 38.1969C57.1864 38.3562 57.4018 38.4459 57.6264 38.4461H110.153C110.377 38.4459 110.593 38.3562 110.752 38.1969C110.91 38.0376 111 37.8215 111 37.5962V1.6549C111 1.42955 110.91 1.21351 110.752 1.05417C110.593 0.894828 110.377 0.805194 110.153 0.804932H57.6264Z" fill="#E6E6E6"/>
<path d="M58.8366 2.01917C58.612 2.01942 58.3967 2.10905 58.2378 2.26839C58.079 2.42774 57.9897 2.64378 57.9894 2.86913V36.3819C57.9897 36.6073 58.079 36.8233 58.2378 36.9827C58.3967 37.142 58.612 37.2316 58.8366 37.2319H108.943C109.167 37.2316 109.382 37.142 109.541 36.9826C109.7 36.8233 109.789 36.6073 109.79 36.3819V2.86913C109.789 2.64378 109.7 2.42775 109.541 2.2684C109.382 2.10906 109.167 2.01943 108.943 2.01917H58.8366Z" fill="white"/>
<path opacity="0.1" d="M105.068 9.34758C103.916 8.89625 102.673 10.0282 102.403 11.2392C102.133 12.4503 102.479 13.7028 102.555 14.9414C102.631 16.18 102.307 17.6183 101.206 18.183C99.9393 18.8323 98.4535 17.9882 97.0369 17.8596C96.3298 17.8032 95.6199 17.9277 94.9738 18.2214C94.3276 18.5151 93.7662 18.9684 93.3421 19.5388C92.1739 21.1468 92.2332 23.4817 90.8507 24.9085C89.6496 26.1482 87.6921 26.3096 86.0117 25.9263C84.3313 25.5429 82.7867 24.7101 81.1344 24.2191C79.4821 23.7281 77.5696 23.6256 76.1536 24.611C74.6754 25.6398 74.0176 27.6562 72.3948 28.4354C71.2474 28.9863 69.8892 28.7762 68.6614 28.4426C67.4335 28.109 66.1954 27.6589 64.9277 27.766C63.6602 27.873 62.3387 28.7505 62.2382 30.0227L105.743 29.9009C105.941 24.1398 106.139 18.3788 106.336 12.6177C106.379 11.3662 106.231 9.80301 105.068 9.34758Z" fill="#6C63FF"/>
<path d="M39.9578 40.26C39.882 40.0597 39.8509 39.8452 39.8667 39.6316C39.8825 39.418 39.9448 39.2104 40.0492 39.0236C40.1536 38.8367 40.2976 38.6751 40.471 38.5501C40.6444 38.4251 40.843 38.3398 41.0528 38.3002L41.8171 33.1501L43.8253 34.956L42.7917 39.5698C42.8347 39.9278 42.7454 40.2893 42.5405 40.5856C42.3357 40.882 42.0296 41.0926 41.6803 41.1777C41.331 41.2628 40.9627 41.2163 40.6452 41.0472C40.3277 40.878 40.0831 40.5979 39.9578 40.26Z" fill="#FFB6B6"/>
<path d="M25.9435 41.0418C26.074 40.8722 26.1657 40.676 26.2124 40.4669C26.2591 40.2579 26.2595 40.0412 26.2136 39.832C26.1677 39.6228 26.0767 39.4262 25.9469 39.2561C25.8171 39.086 25.6518 38.9465 25.4624 38.8475L26.2206 33.6965L23.7764 34.8401L23.4312 39.5563C23.2864 39.8864 23.2674 40.2583 23.3777 40.6015C23.488 40.9448 23.72 41.2355 24.0297 41.4186C24.3394 41.6017 24.7052 41.6645 25.058 41.595C25.4107 41.5256 25.7258 41.3287 25.9435 41.0418V41.0418Z" fill="#FFB6B6"/>
<path d="M36.687 70.6581L38.9548 70.658L40.0336 61.8823L36.6867 61.8826L36.687 70.6581Z" fill="#FFB6B6"/>
<path d="M36.1086 69.9153L40.5747 69.9152H40.5749C41.3297 69.9152 42.0536 70.216 42.5873 70.7515C43.121 71.287 43.4209 72.0132 43.421 72.7705V72.8633L36.1088 72.8636L36.1086 69.9153Z" fill="#2F2E41"/>
<path d="M24.5842 70.6581L26.8519 70.658L27.9307 61.8823L24.5838 61.8826L24.5842 70.6581Z" fill="#FFB6B6"/>
<path d="M24.0057 69.9153L28.4718 69.9152H28.472C29.2268 69.9152 29.9507 70.216 30.4844 70.7515C31.0181 71.287 31.318 72.0132 31.3181 72.7705V72.8633L24.0059 72.8636L24.0057 69.9153Z" fill="#2F2E41"/>
<path d="M35.2564 10.7562C37.5188 10.7562 39.3529 8.91614 39.3529 6.6463C39.3529 4.37645 37.5188 2.53638 35.2564 2.53638C32.9939 2.53638 31.1598 4.37645 31.1598 6.6463C31.1598 8.91614 32.9939 10.7562 35.2564 10.7562Z" fill="#FFB6B6"/>
<path d="M25.5592 36.2764C25.5592 36.2764 25.6194 54.6677 25.3268 54.9612C25.0342 55.2548 23.9955 66.2536 23.9955 66.2536H27.6264C27.8684 66.2536 34.0449 42.2945 34.0449 42.2945C34.0449 42.2945 36.6784 55.2114 36.2395 55.9453C35.8005 56.6792 36.1427 66.3002 36.3858 67.1008C36.3858 67.1008 39.4366 68.0803 39.7293 67.3464C40.0219 66.6125 40.4554 56.6611 40.4554 56.6611L41.3026 40.1476L41.3211 35.8361L25.5592 36.2764Z" fill="#2F2E41"/>
<path d="M42.3843 15.1397H44.0143C44.1341 15.1396 44.2503 15.1805 44.3439 15.2555C44.4375 15.3305 44.5028 15.4353 44.5291 15.5525C44.7806 16.6699 45.4288 19.8375 45.3104 22.3321C45.1641 25.4145 44.8715 30.2583 44.8715 30.6987C44.8715 31.139 43.4085 37.891 43.4085 37.891C43.4085 37.891 42.4026 36.2325 41.2962 36.548L41.5065 30.5519L41.7991 28.0566L41.3602 23.6531L42.3843 15.1397Z" fill="#007B77"/>
<path d="M31.9966 12.4523C31.9966 12.4523 26.8027 14.1856 26.2175 15.6534C25.6323 17.1213 28.4735 27.7624 28.4735 27.7624C28.4735 27.7624 27.3843 32.6194 25.9249 37.2305C25.2607 39.329 31.5989 37.5324 34.525 36.5049C36.3381 35.874 39.6918 36.8428 41.5796 36.4966C41.5796 36.4966 41.8722 32.5335 41.5796 31.7996C41.287 31.0657 40.5555 31.506 40.9944 30.4785C41.4333 29.451 41.287 29.3043 41.1407 28.8639C40.9944 28.4236 41.4333 27.8364 41.4333 27.2493C41.4333 26.6622 41.287 25.3411 41.287 25.3411C41.287 25.3411 45.2373 16.0938 44.3594 15.2131C43.4816 14.3324 39.0132 12.6355 39.0132 12.6355C39.0132 12.6355 39.1241 12.7059 31.9966 12.4523Z" fill="#007B77"/>
<path d="M27.1685 15.1397L26.6489 15.4004C26.4467 15.5018 26.2705 15.6489 26.1344 15.83C25.9982 16.0111 25.9056 16.2214 25.864 16.4444L23.8035 27.4695L23.3646 37.891C23.3646 37.891 25.8518 37.1571 26.5833 37.891C26.5833 37.891 25.8518 35.6893 26.2907 34.9554C26.7296 34.2215 26.7296 33.194 26.7296 33.194C26.7296 33.194 26.437 33.194 27.1685 32.4601C27.9001 31.7262 28.0464 31.4326 27.9001 31.2858C27.7538 31.1391 27.6074 29.818 27.6074 29.6712C27.6074 29.5244 29.0705 19.69 29.0705 19.69L27.1685 15.1397Z" fill="#007B77"/>
<path d="M62.0302 29.881C61.966 29.881 61.9044 29.8554 61.859 29.8098C61.8137 29.7643 61.7881 29.7025 61.7881 29.6381C61.7881 29.5737 61.8137 29.5119 61.859 29.4664C61.9044 29.4209 61.966 29.3953 62.0302 29.3953C73.2151 29.3953 83.8819 27.1485 92.0659 23.0687C99.74 19.243 104.63 14.0553 105.483 8.83548C105.488 8.80396 105.499 8.77375 105.516 8.74657C105.532 8.7194 105.554 8.69579 105.58 8.67711C105.606 8.65842 105.635 8.64503 105.666 8.63768C105.697 8.63034 105.729 8.62919 105.76 8.6343C105.792 8.63942 105.822 8.65069 105.849 8.66749C105.876 8.68428 105.9 8.70627 105.918 8.73218C105.937 8.75809 105.95 8.78742 105.957 8.8185C105.965 8.84958 105.966 8.88179 105.961 8.91329L105.96 8.91397C105.518 11.6254 104.08 14.2852 101.689 16.8194C99.3297 19.3189 96.1647 21.5678 92.2813 23.5036C84.0318 27.6161 73.2884 29.881 62.0302 29.881Z" fill="#6C63FF"/>
<path d="M107.974 29.93H61.7414V7.01404H61.9835V29.6872H107.974V29.93Z" fill="#E6E6E6"/>
<path d="M31.3953 8.03082C31.208 7.56975 31.1779 7.05952 31.3096 6.5795C31.6442 7.46993 32.3091 7.19813 32.6478 6.78055C33.0727 6.25689 32.9504 5.04754 33.6211 4.99343C34.2919 4.93931 34.9627 5.06667 35.6236 5.19345C35.5141 5.00532 35.4046 4.81718 35.2951 4.62904C35.7732 4.65882 36.2514 4.68859 36.7295 4.71835C36.5872 4.48335 36.4448 4.24836 36.3024 4.01338C36.9524 4.24253 37.547 4.60651 38.0474 5.0816C38.5478 5.5567 38.9428 6.13225 39.2067 6.77074C39.4547 6.36801 39.6092 5.91445 39.6587 5.44368C39.7083 4.97291 39.6516 4.49698 39.4929 4.05117C39.3342 3.60535 39.0776 3.20107 38.742 2.86827C38.4064 2.53547 38.0005 2.28269 37.5544 2.12865C37.743 1.88038 37.9316 1.63211 38.1202 1.38385L34.281 1.00378C34.2714 0.818127 34.3071 0.632938 34.385 0.464242C34.4628 0.295546 34.5805 0.14843 34.7278 0.0356306C34.225 -0.0782646 33.6918 0.0925889 33.2646 0.381816C32.8374 0.671046 32.4977 1.06989 32.1636 1.4636C31.6578 2.05973 31.1459 2.6652 30.8148 3.37408C30.4751 4.12874 30.3496 4.96277 30.4521 5.78438C30.5545 6.60599 30.8809 7.38332 31.3953 8.03082ZM31.4417 6.22222L31.4418 6.222L31.4456 6.22131L31.4417 6.22222Z" fill="#2F2E41"/>
<path d="M78.4853 73H0.144118C0.10597 72.9999 0.0694241 72.9846 0.0424889 72.9575C0.0155537 72.9304 0.000427246 72.8937 0.000427246 72.8554C0.000427246 72.8171 0.0155537 72.7804 0.0424889 72.7533C0.0694241 72.7262 0.10597 72.7109 0.144118 72.7108H78.4853C78.5235 72.7109 78.56 72.7262 78.587 72.7533C78.6139 72.7804 78.629 72.8171 78.629 72.8554C78.629 72.8937 78.6139 72.9304 78.587 72.9575C78.56 72.9846 78.5235 72.9999 78.4853 73Z" fill="#CACACA"/>
</g>
<defs>
<clipPath id="clip0">
<rect width="111" height="73" fill="white"/>
</clipPath>
</defs>
</svg>
