<svg width="203" height="194" viewBox="0 0 203 194" fill="none" xmlns="http://www.w3.org/2000/svg">
<g clip-path="url(#clip0)">
<g opacity="0.5">
<path opacity="0.5" d="M26.1304 55.4657C26.1303 53.2161 25.5462 51.0049 24.435 49.0473C23.3237 47.0896 21.7232 45.4522 19.7892 44.2945C17.8552 43.1367 15.6536 42.4981 13.3987 42.4406C11.1438 42.3832 8.9124 42.909 6.92169 43.9668C4.93097 45.0246 3.24876 46.5784 2.03879 48.4769C0.828827 50.3755 0.13232 52.5541 0.0170683 54.8007C-0.0981838 57.0474 0.371741 59.2855 1.38111 61.2973C2.39048 63.309 3.90491 65.0259 5.77698 66.2808V66.3394C6.20348 66.747 6.7067 67.0663 7.25761 67.2788L7.27547 67.2203C7.88559 67.7447 10.4639 68.5824 13.4226 68.5747H13.4864C15.3602 68.5747 17.3948 68.2463 19.1843 67.2788C19.1843 67.2788 19.1996 67.2457 19.2251 67.1795C19.6788 66.9675 20.0951 66.6838 20.4581 66.3394L20.4786 66.1917C22.2222 64.995 23.6478 63.3933 24.6324 61.5247C25.6171 59.6561 26.1312 57.5766 26.1304 55.4657V55.4657Z" fill="url(#paint0_linear)"/>
</g>
<path d="M12.9299 67.6403C19.9285 67.6403 25.602 61.9821 25.602 55.0023C25.602 48.0225 19.9285 42.3643 12.9299 42.3643C5.9313 42.3643 0.257812 48.0225 0.257812 55.0023C0.257812 61.9821 5.9313 67.6403 12.9299 67.6403Z" fill="#F5F5F5"/>
<path d="M7.85502 59.9822C7.85502 59.9822 4.83506 60.2368 5.63409 65.7156C6.04885 66.1114 6.53822 66.4212 7.07387 66.6271L8.77148 60.8936L7.85502 59.9822Z" fill="#FDA57D"/>
<path d="M17.6526 59.9822C17.6526 59.9822 20.6725 60.2368 19.8735 65.7156C19.4595 66.1111 18.971 66.4209 18.4363 66.6271L16.7386 60.8936L17.6526 59.9822Z" fill="#FDA57D"/>
<path d="M7.9851 50.9899C7.9851 50.9899 6.54787 55.1602 5.76416 54.7681C5.76416 54.7681 13.3281 61.2831 20.0037 54.7681C19.2003 53.3987 18.2353 52.1303 17.1292 50.9899H7.9851Z" fill="#333333"/>
<path d="M12.8329 56.204C15.9361 56.204 18.4516 53.6952 18.4516 50.6004C18.4516 47.5056 15.9361 44.9968 12.8329 44.9968C9.72981 44.9968 7.21423 47.5056 7.21423 50.6004C7.21423 53.6952 9.72981 56.204 12.8329 56.204Z" fill="#333333"/>
<path opacity="0.1" d="M17.5939 59.9822H7.79628L6.88238 63.8902C6.88238 63.8902 6.34629 65.7003 7.01257 66.4972C7.67885 67.2941 13.923 69.1042 18.5002 66.6271C18.9001 65.5852 18.9458 64.4411 18.6304 63.3708C18.1198 61.5479 18.5002 63.241 18.5002 63.241L17.5939 59.9822Z" fill="black"/>
<path opacity="0.1" d="M17.724 59.9822H7.9264L7.0125 63.8902C7.0125 63.8902 6.47642 65.7003 7.1427 66.4972C7.80898 67.2941 14.0531 69.1042 18.6303 66.6271C19.0302 65.5852 19.0759 64.4411 18.7605 63.3708C18.2499 61.5479 18.6303 63.241 18.6303 63.241L17.724 59.9822Z" fill="black"/>
<path d="M17.6526 59.9822H7.85499L6.94109 63.8902C6.94109 63.8902 6.40501 65.7003 7.07129 66.4972C7.73757 67.2941 13.9817 69.1042 18.5589 66.6271C18.9588 65.5852 19.0045 64.4411 18.6891 63.3708C18.1785 61.5479 18.5589 63.241 18.5589 63.241L17.6526 59.9822Z" fill="#4E4E4E"/>
<path opacity="0.1" d="M10.8571 56.7386H14.7782V60.1069C14.7782 60.5613 14.5971 60.9971 14.275 61.3185C13.9528 61.6398 13.5158 61.8203 13.0601 61.8203H12.5751C12.1194 61.8203 11.6824 61.6398 11.3603 61.3185C11.0381 60.9971 10.8571 60.5613 10.8571 60.1069V56.7386Z" fill="black"/>
<path d="M10.8571 56.5935H14.7782V59.9618C14.7782 60.4162 14.5971 60.8521 14.275 61.1734C13.9528 61.4947 13.5158 61.6752 13.0601 61.6752H12.5751C12.1194 61.6752 11.6824 61.4947 11.3603 61.1734C11.0381 60.8521 10.8571 60.4162 10.8571 59.9618V56.5935Z" fill="#FDA57D"/>
<path opacity="0.1" d="M10.8647 57.1562C12.129 57.6231 13.5191 57.6231 14.7833 57.1562V56.675H10.8647V57.1562Z" fill="black"/>
<path d="M12.8329 57.4184C15.9361 57.4184 18.4516 54.9096 18.4516 51.8148C18.4516 48.72 15.9361 46.2112 12.8329 46.2112C9.72981 46.2112 7.21423 48.72 7.21423 51.8148C7.21423 54.9096 9.72981 57.4184 12.8329 57.4184Z" fill="#FDA57D"/>
<path d="M7.46179 49.689H18.1835C18.1835 49.689 17.2594 45.3736 13.2005 45.6486C9.14153 45.9235 7.46179 49.689 7.46179 49.689Z" fill="#333333"/>
<path d="M7.33167 52.5557C7.6207 52.5557 7.855 52.118 7.855 51.578C7.855 51.0381 7.6207 50.6004 7.33167 50.6004C7.04265 50.6004 6.80835 51.0381 6.80835 51.578C6.80835 52.118 7.04265 52.5557 7.33167 52.5557Z" fill="#FDA57D"/>
<path d="M18.3062 52.5557C18.5952 52.5557 18.8295 52.118 18.8295 51.578C18.8295 51.0381 18.5952 50.6004 18.3062 50.6004C18.0171 50.6004 17.7828 51.0381 17.7828 51.578C17.7828 52.118 18.0171 52.5557 18.3062 52.5557Z" fill="#FDA57D"/>
<path opacity="0.1" d="M7.46179 49.8316H18.1835C18.1835 49.8316 17.2594 45.5187 13.2005 45.7937C9.14153 46.0687 7.46179 49.8316 7.46179 49.8316Z" fill="black"/>
<g opacity="0.5">
<path opacity="0.5" d="M0.181275 13.0301C0.18141 10.7805 0.765524 8.56926 1.87676 6.61161C2.988 4.65396 4.5885 3.01658 6.52249 1.85884C8.45649 0.701096 10.6581 0.062432 12.913 0.00500949C15.1679 -0.052413 17.3993 0.473363 19.39 1.53116C21.3807 2.58896 23.063 4.14274 24.2729 6.04128C25.4829 7.93982 26.1794 10.1184 26.2946 12.3651C26.4099 14.6117 25.94 16.8498 24.9306 18.8616C23.9212 20.8734 22.4068 22.5903 20.5347 23.8452V23.9037C20.1082 24.3113 19.605 24.6306 19.0541 24.8432L19.0362 24.7846C18.4261 25.3091 15.8478 26.1467 12.8891 26.1391H12.8253C10.9515 26.1391 8.91695 25.8106 7.12744 24.8432C7.12744 24.8432 7.11212 24.8101 7.08659 24.7439C6.63293 24.5319 6.21657 24.2482 5.85359 23.9037L5.83317 23.7561C4.08952 22.5594 2.66391 20.9577 1.67928 19.0891C0.694638 17.2204 0.180527 15.141 0.181275 13.0301V13.0301Z" fill="url(#paint1_linear)"/>
</g>
<path d="M13.2541 25.6681C20.2527 25.6681 25.9262 20.0098 25.9262 13.0301C25.9262 6.05029 20.2527 0.392059 13.2541 0.392059C6.25552 0.392059 0.582031 6.05029 0.582031 13.0301C0.582031 20.0098 6.25552 25.6681 13.2541 25.6681Z" fill="#F5F5F5"/>
<path d="M8.28386 17.8444C8.28386 17.8444 5.2639 18.099 6.06292 23.5779C6.47693 23.9734 6.96541 24.2832 7.50015 24.4893L9.19776 18.7559L8.28386 17.8444Z" fill="#BE7C5E"/>
<path d="M18.0839 17.8444C18.0839 17.8444 21.1039 18.099 20.3049 23.5779C19.8909 23.9734 19.4024 24.2832 18.8677 24.4893L17.17 18.7559L18.0839 17.8444Z" fill="#BE7C5E"/>
<path d="M8.41657 8.85474C8.41657 8.85474 8.18427 9.52941 7.85496 10.311C7.13507 12.0193 7.95707 18.5777 9.67511 19.2752C11.605 20.0594 14.1425 20.5609 16.7795 19.6037C19.0771 18.7711 19.7765 11.3065 18.1581 9.48613C17.9692 9.27227 17.77 9.06096 17.5633 8.85474H8.41657Z" fill="#333333"/>
<path d="M13.2643 14.0663C16.3675 14.0663 18.883 11.5574 18.883 8.46267C18.883 5.36789 16.3675 2.85907 13.2643 2.85907C10.1612 2.85907 7.64563 5.36789 7.64563 8.46267C7.64563 11.5574 10.1612 14.0663 13.2643 14.0663Z" fill="#333333"/>
<path opacity="0.1" d="M18.0253 17.8444H8.22768L7.31377 21.7524C7.31377 21.7524 6.77769 23.5626 7.44397 24.3595C8.11025 25.1563 14.3544 26.9665 18.9316 24.4893C19.3348 23.4485 19.3842 22.3045 19.072 21.2331C18.5614 19.4102 18.9418 21.1032 18.9418 21.1032L18.0253 17.8444Z" fill="black"/>
<path opacity="0.1" d="M18.1554 17.8444H8.35011L7.43621 21.7524C7.43621 21.7524 6.90012 23.5626 7.5664 24.3595C8.23268 25.1563 14.4768 26.9665 19.054 24.4893C19.4539 23.4474 19.4996 22.3034 19.1842 21.2331C18.6736 19.4102 19.054 21.1032 19.054 21.1032L18.1554 17.8444Z" fill="black"/>
<path d="M18.084 17.8444H8.28383L7.36993 21.7524C7.36993 21.7524 6.83384 23.5626 7.50012 24.3595C8.1664 25.1563 14.4105 26.9665 18.9877 24.4893C19.3876 23.4474 19.4334 22.3034 19.1179 21.2331C18.6073 19.4102 18.9877 21.1032 18.9877 21.1032L18.084 17.8444Z" fill="#7F0027"/>
<path opacity="0.1" d="M11.2885 14.6009H15.2096V17.9717C15.2096 18.1967 15.1651 18.4195 15.0788 18.6274C14.9924 18.8353 14.8659 19.0242 14.7064 19.1833C14.5468 19.3424 14.3574 19.4686 14.149 19.5547C13.9405 19.6408 13.7171 19.6851 13.4915 19.6851H13.0065C12.7809 19.6851 12.5575 19.6408 12.349 19.5547C12.1406 19.4686 11.9512 19.3424 11.7917 19.1833C11.6321 19.0242 11.5056 18.8353 11.4192 18.6274C11.3329 18.4195 11.2885 18.1967 11.2885 17.9717V14.6009Z" fill="black"/>
<path d="M11.2885 14.4558H15.2096V17.8215C15.2096 18.0465 15.1651 18.2693 15.0788 18.4772C14.9924 18.6851 14.8659 18.874 14.7064 19.0331C14.5468 19.1922 14.3574 19.3184 14.149 19.4045C13.9405 19.4906 13.7171 19.5349 13.4915 19.5349H13.0065C12.5508 19.5349 12.1138 19.3544 11.7917 19.0331C11.4695 18.7117 11.2885 18.2759 11.2885 17.8215V14.4558Z" fill="#BE7C5E"/>
<path opacity="0.1" d="M11.2961 15.021C12.5604 15.4879 13.9505 15.4879 15.2147 15.021V14.5398H11.2961V15.021Z" fill="black"/>
<path d="M13.2643 15.2832C16.3675 15.2832 18.883 12.7744 18.883 9.67962C18.883 6.58484 16.3675 4.07602 13.2643 4.07602C10.1612 4.07602 7.64563 6.58484 7.64563 9.67962C7.64563 12.7744 10.1612 15.2832 13.2643 15.2832Z" fill="#BE7C5E"/>
<path d="M7.89331 7.55123H18.6151C18.6151 7.55123 17.7012 3.23587 13.6499 3.51083C9.59858 3.78579 7.89331 7.55123 7.89331 7.55123Z" fill="#333333"/>
<path d="M7.76051 10.418C8.04953 10.418 8.28383 9.98025 8.28383 9.44031C8.28383 8.90038 8.04953 8.46268 7.76051 8.46268C7.47148 8.46268 7.23718 8.90038 7.23718 9.44031C7.23718 9.98025 7.47148 10.418 7.76051 10.418Z" fill="#BE7C5E"/>
<path d="M18.735 10.418C19.024 10.418 19.2583 9.98025 19.2583 9.44031C19.2583 8.90038 19.024 8.46268 18.735 8.46268C18.446 8.46268 18.2117 8.90038 18.2117 9.44031C18.2117 9.98025 18.446 10.418 18.735 10.418Z" fill="#BE7C5E"/>
<path opacity="0.1" d="M7.89331 7.69637H18.6151C18.6151 7.69637 17.7012 3.38101 13.6499 3.65597C9.59858 3.93094 7.89331 7.69637 7.89331 7.69637Z" fill="black"/>
<g opacity="0.5">
<path opacity="0.5" d="M26.1304 180.891C26.1299 178.642 25.5454 176.431 24.4339 174.473C23.3223 172.516 21.7217 170.879 19.7876 169.721C17.8535 168.564 15.6519 167.926 13.3971 167.868C11.1423 167.811 8.91108 168.337 6.92056 169.395C4.93004 170.453 3.24805 172.007 2.03828 173.906C0.828512 175.804 0.132172 177.983 0.0170356 180.229C-0.098101 182.476 0.371887 184.714 1.38126 186.725C2.39063 188.737 3.905 190.454 5.77698 191.709V191.767C6.20348 192.175 6.7067 192.494 7.25761 192.707L7.27548 192.648C7.88559 193.173 10.4639 194.01 13.4226 194.003H13.4864C15.3602 194.003 17.3948 193.674 19.1843 192.707C19.1843 192.707 19.1996 192.674 19.2251 192.607C19.6788 192.395 20.0952 192.112 20.4581 191.767L20.4786 191.62C22.2226 190.423 23.6484 188.821 24.633 186.951C25.6177 185.082 26.1316 183.002 26.1304 180.891V180.891Z" fill="url(#paint2_linear)"/>
</g>
<path d="M13.0652 193.532C20.0638 193.532 25.7372 187.873 25.7372 180.894C25.7372 173.914 20.0638 168.256 13.0652 168.256C6.06655 168.256 0.393066 173.914 0.393066 180.894C0.393066 187.873 6.06655 193.532 13.0652 193.532Z" fill="#F5F5F5"/>
<path d="M7.58439 185.835C7.58439 185.835 4.56443 186.09 5.36346 191.569C5.77747 191.964 6.26594 192.274 6.80068 192.48L8.4983 186.747L7.58439 185.835Z" fill="#4D8AF0"/>
<path d="M17.382 185.835C17.382 185.835 20.402 186.09 19.603 191.569C19.189 191.964 18.7005 192.274 18.1658 192.48L16.4681 186.747L17.382 185.835Z" fill="#4D8AF0"/>
<path d="M12.5623 182.057C15.6654 182.057 18.181 179.548 18.181 176.453C18.181 173.359 15.6654 170.85 12.5623 170.85C9.45918 170.85 6.9436 173.359 6.9436 176.453C6.9436 179.548 9.45918 182.057 12.5623 182.057Z" fill="#333333"/>
<path d="M17.3233 185.835H7.52565L6.61175 189.743C6.61175 189.743 6.07566 191.553 6.74194 192.35C7.40822 193.147 13.6524 194.957 18.2295 192.48C18.6294 191.438 18.6752 190.294 18.3597 189.224C17.8492 187.401 18.2295 189.094 18.2295 189.094L17.3233 185.835Z" fill="#4D8AF0"/>
<path d="M17.456 185.835H7.65578L6.74187 189.743C6.74187 189.743 6.20579 191.553 6.87207 192.35C7.53835 193.147 13.7825 194.957 18.3597 192.48C18.7596 191.438 18.8053 190.294 18.4899 189.224C17.9793 187.401 18.3597 189.094 18.3597 189.094L17.456 185.835Z" fill="#4D8AF0"/>
<path d="M17.382 185.835H7.58437L6.67046 189.743C6.67046 189.743 6.13438 191.553 6.80066 192.35C7.46694 193.147 13.7111 194.955 18.3061 192.472C18.706 191.431 18.7518 190.287 18.4363 189.216C17.9258 187.393 18.3061 189.086 18.3061 189.086L17.382 185.835Z" fill="#007B77"/>
<path opacity="0.1" d="M10.589 182.592H14.5075V185.96C14.5075 186.185 14.4631 186.408 14.3767 186.616C14.2904 186.824 14.1639 187.012 14.0043 187.172C13.8448 187.331 13.6554 187.457 13.447 187.543C13.2385 187.629 13.0151 187.673 12.7895 187.673H12.3045C12.0788 187.673 11.8554 187.629 11.647 187.543C11.4386 187.457 11.2492 187.331 11.0896 187.172C10.9301 187.012 10.8035 186.824 10.7172 186.616C10.6309 186.408 10.5864 186.185 10.5864 185.96V182.592H10.589Z" fill="black"/>
<path d="M10.589 182.447H14.5075V185.815C14.5075 186.04 14.4631 186.263 14.3767 186.471C14.2904 186.678 14.1639 186.867 14.0043 187.026C13.8448 187.186 13.6554 187.312 13.447 187.398C13.2385 187.484 13.0151 187.528 12.7895 187.528H12.3045C12.0788 187.528 11.8554 187.484 11.647 187.398C11.4386 187.312 11.2492 187.186 11.0896 187.026C10.9301 186.867 10.8035 186.678 10.7172 186.471C10.6309 186.263 10.5864 186.04 10.5864 185.815V182.447H10.589Z" fill="#FDA57D"/>
<path opacity="0.1" d="M10.5967 183.009C11.8609 183.476 13.251 183.476 14.5152 183.009V182.543H10.5967V183.009Z" fill="black"/>
<path d="M12.5623 183.271C15.6654 183.271 18.181 180.763 18.181 177.668C18.181 174.573 15.6654 172.064 12.5623 172.064C9.45918 172.064 6.9436 174.573 6.9436 177.668C6.9436 180.763 9.45918 183.271 12.5623 183.271Z" fill="#FDA57D"/>
<path opacity="0.1" d="M7.19128 175.685H17.913C17.913 175.685 16.9915 171.372 12.9453 171.647C8.8991 171.922 7.19128 175.685 7.19128 175.685Z" fill="black"/>
<path d="M7.19128 175.54H17.913C17.913 175.54 16.9991 171.224 12.9478 171.499C8.89655 171.774 7.19128 175.54 7.19128 175.54Z" fill="#333333"/>
<path d="M7.06104 178.409C7.35007 178.409 7.58437 177.971 7.58437 177.431C7.58437 176.891 7.35007 176.453 7.06104 176.453C6.77202 176.453 6.53772 176.891 6.53772 177.431C6.53772 177.971 6.77202 178.409 7.06104 178.409Z" fill="#FDA57D"/>
<path d="M18.0355 178.409C18.3246 178.409 18.5589 177.971 18.5589 177.431C18.5589 176.891 18.3246 176.453 18.0355 176.453C17.7465 176.453 17.5122 176.891 17.5122 177.431C17.5122 177.971 17.7465 178.409 18.0355 178.409Z" fill="#FDA57D"/>
<g opacity="0.5">
<path opacity="0.5" d="M26.1304 139.517C26.1303 137.268 25.5462 135.056 24.435 133.099C23.3237 131.141 21.7232 129.504 19.7892 128.346C17.8552 127.188 15.6536 126.549 13.3987 126.492C11.1438 126.435 8.9124 126.96 6.92169 128.018C4.93097 129.076 3.24876 130.63 2.03879 132.528C0.828827 134.427 0.13232 136.605 0.0170683 138.852C-0.0981838 141.099 0.371741 143.337 1.38111 145.349C2.39048 147.36 3.90491 149.077 5.77698 150.332V150.391C6.20348 150.798 6.7067 151.118 7.25761 151.33L7.27547 151.272C7.88559 151.796 10.4639 152.634 13.4226 152.626H13.4864C15.3602 152.626 17.3948 152.298 19.1843 151.33C19.1843 151.33 19.1996 151.297 19.2251 151.231C19.6788 151.019 20.0951 150.735 20.4581 150.391L20.4786 150.243C22.2222 149.046 23.6478 147.445 24.6324 145.576C25.6171 143.707 26.1312 141.628 26.1304 139.517V139.517Z" fill="url(#paint3_linear)"/>
</g>
<path d="M12.9299 151.684C19.9285 151.684 25.602 146.026 25.602 139.046C25.602 132.066 19.9285 126.408 12.9299 126.408C5.9313 126.408 0.257812 132.066 0.257812 139.046C0.257812 146.026 5.9313 151.684 12.9299 151.684Z" fill="#F5F5F5"/>
<path d="M7.85502 144.026C7.85502 144.026 4.83506 144.281 5.63409 149.759C6.0481 150.155 6.53658 150.465 7.07132 150.671L8.76893 144.937L7.85502 144.026Z" fill="#BE7C5E"/>
<path d="M17.6526 144.026C17.6526 144.026 20.6725 144.281 19.8735 149.759C19.4595 150.155 18.971 150.465 18.4363 150.671L16.7386 144.937L17.6526 144.026Z" fill="#BE7C5E"/>
<path d="M7.9851 135.036C7.9851 135.036 6.54787 142.419 5.76416 142.017C5.76416 142.017 13.3281 148.532 20.0037 142.017C20.0037 142.017 18.8268 136.732 17.1292 135.036H7.9851Z" fill="#333333"/>
<path d="M12.8329 140.248C15.9361 140.248 18.4516 137.739 18.4516 134.644C18.4516 131.549 15.9361 129.041 12.8329 129.041C9.72981 129.041 7.21423 131.549 7.21423 134.644C7.21423 137.739 9.72981 140.248 12.8329 140.248Z" fill="#333333"/>
<path opacity="0.1" d="M17.5939 144.026H7.79628L6.88238 147.934C6.88238 147.934 6.34629 149.744 7.01257 150.541C7.67885 151.338 13.923 153.148 18.5002 150.671C18.9001 149.629 18.9458 148.485 18.6304 147.415C18.1198 145.592 18.5002 147.285 18.5002 147.285L17.5939 144.026Z" fill="black"/>
<path opacity="0.1" d="M17.724 144.026H7.9264L7.0125 147.934C7.0125 147.934 6.47642 149.744 7.1427 150.541C7.80898 151.338 14.0531 153.148 18.6303 150.671C19.0302 149.629 19.0759 148.485 18.7605 147.415C18.2499 145.592 18.6303 147.285 18.6303 147.285L17.724 144.026Z" fill="black"/>
<path d="M17.6526 144.026H7.85499L6.94109 147.934C6.94109 147.934 6.40501 149.744 7.07129 150.541C7.73757 151.338 13.9817 153.148 18.5589 150.671C18.9588 149.629 19.0045 148.485 18.6891 147.415C18.1785 145.592 18.5589 147.285 18.5589 147.285L17.6526 144.026Z" fill="#7F0027"/>
<path opacity="0.1" d="M10.8571 140.79H14.7782V144.158C14.7782 144.383 14.7337 144.606 14.6474 144.814C14.561 145.022 14.4345 145.211 14.275 145.37C14.1154 145.529 13.926 145.655 13.7176 145.741C13.5091 145.827 13.2857 145.872 13.0601 145.872H12.5751C12.3495 145.872 12.1261 145.827 11.9176 145.741C11.7092 145.655 11.5198 145.529 11.3603 145.37C11.2007 145.211 11.0742 145.022 10.9878 144.814C10.9015 144.606 10.8571 144.383 10.8571 144.158V140.79Z" fill="black"/>
<path d="M10.8571 140.64H14.7782V144.008C14.7782 144.463 14.5971 144.898 14.275 145.22C13.9528 145.541 13.5158 145.722 13.0601 145.722H12.5751C12.1194 145.722 11.6824 145.541 11.3603 145.22C11.0381 144.898 10.8571 144.463 10.8571 144.008V140.64Z" fill="#BE7C5E"/>
<path opacity="0.1" d="M10.8647 141.203C12.129 141.669 13.5191 141.669 14.7833 141.203V140.721H10.8647V141.203Z" fill="black"/>
<path d="M12.8329 141.465C15.9361 141.465 18.4516 138.956 18.4516 135.861C18.4516 132.766 15.9361 130.258 12.8329 130.258C9.72981 130.258 7.21423 132.766 7.21423 135.861C7.21423 138.956 9.72981 141.465 12.8329 141.465Z" fill="#BE7C5E"/>
<path d="M7.46179 133.733H18.1835C18.1835 133.733 17.2594 129.42 13.2005 129.695C9.14153 129.97 7.46179 133.733 7.46179 133.733Z" fill="#333333"/>
<path d="M7.33167 136.599C7.6207 136.599 7.855 136.162 7.855 135.622C7.855 135.082 7.6207 134.644 7.33167 134.644C7.04265 134.644 6.80835 135.082 6.80835 135.622C6.80835 136.162 7.04265 136.599 7.33167 136.599Z" fill="#BE7C5E"/>
<path d="M18.3062 136.599C18.5952 136.599 18.8295 136.162 18.8295 135.622C18.8295 135.082 18.5952 134.644 18.3062 134.644C18.0171 134.644 17.7828 135.082 17.7828 135.622C17.7828 136.162 18.0171 136.599 18.3062 136.599Z" fill="#BE7C5E"/>
<path opacity="0.1" d="M7.46179 133.878H18.1835C18.1835 133.878 17.2594 129.562 13.2005 129.843C9.14153 130.123 7.46179 133.878 7.46179 133.878Z" fill="black"/>
<g opacity="0.5">
<path opacity="0.5" d="M26.1304 97.2775C26.1303 95.0279 25.5462 92.8167 24.435 90.8591C23.3237 88.9014 21.7232 87.264 19.7892 86.1063C17.8552 84.9486 15.6536 84.3099 13.3987 84.2525C11.1438 84.1951 8.9124 84.7208 6.92169 85.7786C4.93097 86.8364 3.24876 88.3902 2.03879 90.2887C0.828827 92.1873 0.13232 94.3659 0.0170683 96.6125C-0.0981838 98.8592 0.371741 101.097 1.38111 103.109C2.39048 105.121 3.90491 106.838 5.77698 108.093V108.151C6.20348 108.559 6.7067 108.878 7.25761 109.091L7.27547 109.032C7.88559 109.557 10.4639 110.394 13.4226 110.387H13.4864C15.3602 110.387 17.3948 110.058 19.1843 109.091C19.1843 109.091 19.1996 109.058 19.2251 108.991C19.6788 108.779 20.0951 108.496 20.4581 108.151L20.4786 108.004C22.2222 106.807 23.6478 105.205 24.6324 103.337C25.6171 101.468 26.1312 99.3885 26.1304 97.2775V97.2775Z" fill="url(#paint4_linear)"/>
</g>
<path d="M13.0652 109.916C20.0638 109.916 25.7372 104.257 25.7372 97.2775C25.7372 90.2977 20.0638 84.6395 13.0652 84.6395C6.06655 84.6395 0.393066 90.2977 0.393066 97.2775C0.393066 104.257 6.06655 109.916 13.0652 109.916Z" fill="#F5F5F5"/>
<path d="M7.58439 102.219C7.58439 102.219 4.56443 102.474 5.36346 107.953C5.77747 108.348 6.26594 108.658 6.80068 108.864L8.4983 103.131L7.58439 102.219Z" fill="#4D8AF0"/>
<path d="M17.382 102.219C17.382 102.219 20.402 102.474 19.603 107.953C19.189 108.348 18.7005 108.658 18.1658 108.864L16.4681 103.131L17.382 102.219Z" fill="#4D8AF0"/>
<path d="M12.5623 98.4436C15.6654 98.4436 18.181 95.9347 18.181 92.84C18.181 89.7452 15.6654 87.2364 12.5623 87.2364C9.45918 87.2364 6.9436 89.7452 6.9436 92.84C6.9436 95.9347 9.45918 98.4436 12.5623 98.4436Z" fill="#333333"/>
<path d="M17.3233 102.219H7.52565L6.61175 106.127C6.61175 106.127 6.07566 107.937 6.74194 108.734C7.40822 109.531 13.6524 111.341 18.2295 108.864C18.6294 107.822 18.6752 106.678 18.3597 105.608C17.8492 103.785 18.2295 105.478 18.2295 105.478L17.3233 102.219Z" fill="#4D8AF0"/>
<path d="M17.456 102.219H7.65578L6.74187 106.127C6.74187 106.127 6.20579 107.937 6.87207 108.734C7.53835 109.531 13.7825 111.341 18.3597 108.864C18.7596 107.822 18.8053 106.678 18.4899 105.608C17.9793 103.785 18.3597 105.478 18.3597 105.478L17.456 102.219Z" fill="#4D8AF0"/>
<path d="M17.382 102.219H7.58437L6.67046 106.127C6.67046 106.127 6.13438 107.937 6.80066 108.734C7.46694 109.531 13.7111 111.341 18.2883 108.864C18.6882 107.822 18.7339 106.678 18.4184 105.608C17.9079 103.785 18.2883 105.478 18.2883 105.478L17.382 102.219Z" fill="#007B77"/>
<path opacity="0.1" d="M10.589 98.9782H14.5075V102.346C14.5075 102.572 14.4631 102.794 14.3768 103.002C14.2904 103.21 14.1639 103.399 14.0043 103.558C13.8448 103.717 13.6554 103.843 13.447 103.929C13.2385 104.016 13.0151 104.06 12.7895 104.06H12.3045C11.8493 104.059 11.4129 103.878 11.0913 103.557C10.7696 103.236 10.589 102.8 10.589 102.346V98.9782Z" fill="black"/>
<path d="M10.589 98.8331H14.5075V102.201C14.5075 102.426 14.4631 102.649 14.3767 102.857C14.2904 103.065 14.1639 103.254 14.0043 103.413C13.8448 103.572 13.6554 103.698 13.447 103.784C13.2385 103.87 13.0151 103.915 12.7895 103.915H12.3045C12.0788 103.915 11.8554 103.87 11.647 103.784C11.4386 103.698 11.2492 103.572 11.0896 103.413C10.9301 103.254 10.8035 103.065 10.7172 102.857C10.6309 102.649 10.5864 102.426 10.5864 102.201V98.8331H10.589Z" fill="#BE7C5E"/>
<path opacity="0.1" d="M10.5967 99.3957C11.8609 99.8627 13.251 99.8627 14.5152 99.3957V98.9146H10.5967V99.3957Z" fill="black"/>
<path d="M12.5623 99.658C15.6654 99.658 18.181 97.1492 18.181 94.0544C18.181 90.9596 15.6654 88.4508 12.5623 88.4508C9.45918 88.4508 6.9436 90.9596 6.9436 94.0544C6.9436 97.1492 9.45918 99.658 12.5623 99.658Z" fill="#BE7C5E"/>
<path opacity="0.1" d="M7.19128 92.0711H17.913C17.913 92.0711 16.9915 87.7583 12.9453 88.0332C8.8991 88.3082 7.19128 92.0711 7.19128 92.0711Z" fill="black"/>
<path d="M7.19128 91.926H17.913C17.913 91.926 16.9991 87.6106 12.9478 87.8856C8.89655 88.1605 7.19128 91.926 7.19128 91.926Z" fill="#333333"/>
<path d="M7.06104 94.7927C7.35007 94.7927 7.58437 94.355 7.58437 93.815C7.58437 93.2751 7.35007 92.8374 7.06104 92.8374C6.77202 92.8374 6.53772 93.2751 6.53772 93.815C6.53772 94.355 6.77202 94.7927 7.06104 94.7927Z" fill="#BE7C5E"/>
<path d="M18.0355 94.7927C18.3246 94.7927 18.5589 94.355 18.5589 93.815C18.5589 93.2751 18.3246 92.8374 18.0355 92.8374C17.7465 92.8374 17.5122 93.2751 17.5122 93.815C17.5122 94.355 17.7465 94.7927 18.0355 94.7927Z" fill="#BE7C5E"/>
<path d="M7.78853 89.1713C7.95517 88.6568 8.24319 88.1897 8.6284 87.8092C9.78226 86.6712 11.6739 86.4319 12.644 85.136C12.6956 85.2279 12.7276 85.3294 12.7379 85.4342C12.7483 85.5391 12.7368 85.6449 12.7042 85.7451C12.6716 85.8452 12.6186 85.9376 12.5485 86.0164C12.4784 86.0951 12.3927 86.1586 12.2968 86.2027C13.226 86.2027 14.3033 86.1162 14.8291 85.3524C14.9589 85.6539 15.0002 85.986 14.9483 86.3101C14.8963 86.6341 14.7532 86.9368 14.5356 87.1829C15.3601 87.2211 16.2383 87.7787 16.2919 88.5984C16.2909 88.8738 16.2202 89.1444 16.0863 89.3852C15.9524 89.626 15.7597 89.8291 15.5261 89.9758C15.0581 90.2655 14.5377 90.461 13.9944 90.5512C12.4346 90.8898 6.76486 92.3384 7.78853 89.1713Z" fill="#333333"/>
<g opacity="0.5">
<path opacity="0.5" d="M202.542 9.03552H52.437V17.1036H202.542V9.03552Z" fill="url(#paint5_linear)"/>
</g>
<path d="M202.118 9.64145H53.0649V16.2965H202.118V9.64145Z" fill="#F5F5F5"/>
<path d="M158.455 9.64145H53.0649V16.2965H158.455V9.64145Z" fill="#3DE2CF"/>
<g opacity="0.5">
<path opacity="0.5" d="M202.542 52.7084H52.437V60.7765H202.542V52.7084Z" fill="url(#paint6_linear)"/>
</g>
<path d="M202.118 53.3144H53.0649V59.9694H202.118V53.3144Z" fill="#F5F5F5"/>
<path d="M199.185 53.3144H53.0649V59.9694H199.185V53.3144Z" fill="#638FFF"/>
<g opacity="0.5">
<path opacity="0.5" d="M202.542 93.283H52.437V101.351H202.542V93.283Z" fill="url(#paint7_linear)"/>
</g>
<path d="M202.118 93.8889H53.0649V100.544H202.118V93.8889Z" fill="#F5F5F5"/>
<path d="M75.9201 93.8889H53.0649V100.544H75.9201V93.8889Z" fill="#F55F44"/>
<g opacity="0.5">
<path opacity="0.5" d="M202.542 135.479H52.437V143.547H202.542V135.479Z" fill="url(#paint8_linear)"/>
</g>
<path d="M202.118 136.085H53.0649V142.74H202.118V136.085Z" fill="#F5F5F5"/>
<path d="M188.322 136.085H53.0649V142.74H188.322V136.085Z" fill="#63DAFF"/>
<g opacity="0.5">
<path opacity="0.5" d="M202.542 176.896H52.437V184.965H202.542V176.896Z" fill="url(#paint9_linear)"/>
</g>
<path d="M202.118 177.502H53.0649V184.158H202.118V177.502Z" fill="#F5F5F5"/>
<path d="M99.5233 177.502H53.0649V184.158H99.5233V177.502Z" fill="#FFD84D"/>
</g>
<defs>
<linearGradient id="paint0_linear" x1="13.0652" y1="68.5747" x2="13.0652" y2="42.4356" gradientUnits="userSpaceOnUse">
<stop stop-color="#808080" stop-opacity="0.25"/>
<stop offset="0.54" stop-color="#808080" stop-opacity="0.12"/>
<stop offset="1" stop-color="#808080" stop-opacity="0.1"/>
</linearGradient>
<linearGradient id="paint1_linear" x1="5322.77" y1="4487.17" x2="5322.77" y2="1803.55" gradientUnits="userSpaceOnUse">
<stop stop-color="#808080" stop-opacity="0.25"/>
<stop offset="0.54" stop-color="#808080" stop-opacity="0.12"/>
<stop offset="1" stop-color="#808080" stop-opacity="0.1"/>
</linearGradient>
<linearGradient id="paint2_linear" x1="6649.41" y1="21888.8" x2="6649.41" y2="19205.2" gradientUnits="userSpaceOnUse">
<stop stop-color="#808080" stop-opacity="0.25"/>
<stop offset="0.54" stop-color="#808080" stop-opacity="0.12"/>
<stop offset="1" stop-color="#808080" stop-opacity="0.1"/>
</linearGradient>
<linearGradient id="paint3_linear" x1="6649.41" y1="17598.9" x2="6649.41" y2="14915.6" gradientUnits="userSpaceOnUse">
<stop stop-color="#808080" stop-opacity="0.25"/>
<stop offset="0.54" stop-color="#808080" stop-opacity="0.12"/>
<stop offset="1" stop-color="#808080" stop-opacity="0.1"/>
</linearGradient>
<linearGradient id="paint4_linear" x1="6649.41" y1="13220.9" x2="6649.41" y2="10537.2" gradientUnits="userSpaceOnUse">
<stop stop-color="#808080" stop-opacity="0.25"/>
<stop offset="0.54" stop-color="#808080" stop-opacity="0.12"/>
<stop offset="1" stop-color="#808080" stop-opacity="0.1"/>
</linearGradient>
<linearGradient id="paint5_linear" x1="75016.1" y1="551.048" x2="75016.1" y2="295.371" gradientUnits="userSpaceOnUse">
<stop stop-color="#808080" stop-opacity="0.25"/>
<stop offset="0.54" stop-color="#808080" stop-opacity="0.12"/>
<stop offset="1" stop-color="#808080" stop-opacity="0.1"/>
</linearGradient>
<linearGradient id="paint6_linear" x1="75016.1" y1="1978.72" x2="75016.1" y2="1723.04" gradientUnits="userSpaceOnUse">
<stop stop-color="#808080" stop-opacity="0.25"/>
<stop offset="0.54" stop-color="#808080" stop-opacity="0.12"/>
<stop offset="1" stop-color="#808080" stop-opacity="0.1"/>
</linearGradient>
<linearGradient id="paint7_linear" x1="75016.1" y1="3305.09" x2="75016.1" y2="3049.42" gradientUnits="userSpaceOnUse">
<stop stop-color="#808080" stop-opacity="0.25"/>
<stop offset="0.54" stop-color="#808080" stop-opacity="0.12"/>
<stop offset="1" stop-color="#808080" stop-opacity="0.1"/>
</linearGradient>
<linearGradient id="paint8_linear" x1="75016.1" y1="4684.51" x2="75016.1" y2="4428.83" gradientUnits="userSpaceOnUse">
<stop stop-color="#808080" stop-opacity="0.25"/>
<stop offset="0.54" stop-color="#808080" stop-opacity="0.12"/>
<stop offset="1" stop-color="#808080" stop-opacity="0.1"/>
</linearGradient>
<linearGradient id="paint9_linear" x1="75016.1" y1="6038.41" x2="75016.1" y2="5782.73" gradientUnits="userSpaceOnUse">
<stop stop-color="#808080" stop-opacity="0.25"/>
<stop offset="0.54" stop-color="#808080" stop-opacity="0.12"/>
<stop offset="1" stop-color="#808080" stop-opacity="0.1"/>
</linearGradient>
<clipPath id="clip0">
<rect width="202.544" height="194" fill="white"/>
</clipPath>
</defs>
</svg>
