<svg width="242" height="161" viewBox="0 0 242 161" fill="none" xmlns="http://www.w3.org/2000/svg">
<g clip-path="url(#clip0)">
<path d="M217.6 28.4589H211.878C212.141 29.1035 212.242 29.8028 212.171 30.4954C212.099 31.1879 211.859 31.8523 211.47 32.4301C211.082 33.0079 210.557 33.4813 209.942 33.8087C209.327 34.136 208.641 34.3073 207.944 34.3073H182.832C182.135 34.3073 181.449 34.136 180.834 33.8087C180.219 33.4813 179.694 33.0079 179.305 32.4301C178.917 31.8523 178.676 31.1879 178.605 30.4954C178.534 29.8028 178.635 29.1035 178.898 28.4589H173.553C171.182 28.4589 168.907 29.4003 167.23 31.076C165.553 32.7517 164.611 35.0244 164.611 37.3942V150.642C164.611 153.012 165.553 155.285 167.23 156.96C168.907 158.636 171.182 159.577 173.553 159.577H217.6C219.972 159.577 222.246 158.636 223.924 156.96C225.601 155.285 226.543 153.012 226.543 150.642V37.3942C226.543 35.0244 225.601 32.7517 223.924 31.076C222.246 29.4003 219.972 28.4589 217.6 28.4589Z" fill="#F0F0F0"/>
<path d="M217.651 71.829C216.534 68.621 214.729 65.6952 212.364 63.2556C209.998 60.816 207.128 58.9214 203.955 57.7038C200.781 56.4863 197.379 55.9751 193.988 56.2059C190.596 56.4367 187.295 57.404 184.316 59.0403C181.337 60.6766 178.751 62.9426 176.738 65.6801C174.725 68.4177 173.335 71.5609 172.663 74.8907C171.991 78.2205 172.054 81.6567 172.848 84.9596C173.641 88.2626 175.147 91.3528 177.258 94.0147C177.468 94.2788 177.686 94.5429 177.909 94.7987C177.926 94.8154 177.938 94.8322 177.955 94.849C178.502 95.4786 179.083 96.0776 179.696 96.6433C179.856 96.79 180.024 96.9409 180.191 97.0835C180.51 97.3685 180.837 97.641 181.177 97.901C181.312 98.0058 181.442 98.1106 181.58 98.2112C182.117 98.6178 182.675 98.9952 183.25 99.3557L183.275 99.3683C183.439 99.4689 183.607 99.5695 183.775 99.6659C184.077 99.8462 184.387 100.018 184.698 100.182L184.895 100.282C185.348 100.517 185.81 100.739 186.284 100.945C186.38 100.987 186.485 101.028 186.582 101.07C186.59 101.075 186.594 101.075 186.602 101.079C186.825 101.171 187.047 101.259 187.274 101.343C188.018 101.627 188.777 101.87 189.548 102.072C191.515 102.596 193.542 102.861 195.577 102.86C196.32 102.86 197.054 102.827 197.78 102.756C199.439 102.603 201.076 102.272 202.664 101.77C202.668 101.77 202.673 101.766 202.677 101.766C203.68 101.447 204.66 101.059 205.61 100.605C205.614 100.601 205.622 100.601 205.626 100.597C205.84 100.496 206.046 100.387 206.256 100.282C206.289 100.265 206.323 100.249 206.356 100.232C206.524 100.144 206.692 100.056 206.86 99.9636C207.28 99.733 207.691 99.4899 208.098 99.2299C208.211 99.1629 208.32 99.0916 208.433 99.0161C208.593 98.9113 208.752 98.8023 208.907 98.6891C209.113 98.5466 209.319 98.3999 209.52 98.2489C209.583 98.2028 209.65 98.1567 209.713 98.1064C213.644 95.1252 216.529 90.977 217.955 86.2565C219.381 81.536 219.275 76.4855 217.651 71.8291L217.651 71.829Z" fill="white"/>
<path d="M207.691 97.1338C205.703 96.0871 203.628 95.2146 201.489 94.5261L201.216 91.5119L190.156 90.3213L188.751 94.174L184.782 95.6623C184.639 95.7161 184.504 95.7864 184.379 95.8719H184.374C184.153 96.0215 183.964 96.2146 183.82 96.4395C183.676 96.6644 183.579 96.9163 183.535 97.1799C183.493 97.442 183.503 97.7098 183.565 97.968L183.775 98.8274C184.077 99.0077 184.387 99.1796 184.698 99.3431L184.895 99.4437C185.348 99.6785 185.81 99.9007 186.284 100.106C186.38 100.148 186.485 100.19 186.582 100.232C186.59 100.236 186.594 100.236 186.602 100.24C186.825 100.332 187.047 100.421 187.274 100.504C188.018 100.788 188.777 101.032 189.548 101.234C191.515 101.758 193.542 102.023 195.577 102.022C196.32 102.022 197.054 101.988 197.78 101.917C199.439 101.764 201.076 101.434 202.664 100.932C202.668 100.932 202.673 100.928 202.677 100.928C203.68 100.608 204.66 100.22 205.61 99.7665C205.614 99.7623 205.622 99.7623 205.626 99.7582C205.84 99.6575 206.046 99.5485 206.256 99.4437C206.289 99.4269 206.323 99.4102 206.356 99.3934C206.524 99.3054 206.692 99.2173 206.86 99.1251C207.279 98.8945 207.691 98.6514 208.098 98.3915C208.211 98.3244 208.32 98.2531 208.433 98.1776C208.593 98.0728 208.752 97.9638 208.907 97.8506C208.517 97.5991 208.11 97.3601 207.691 97.1338Z" fill="#E4E4E4"/>
<path d="M186.934 98.991L186.242 95.8677H184.433C184.415 95.8679 184.397 95.8693 184.379 95.8719H184.374C183.724 95.9268 183.099 96.143 182.553 96.5007C182.184 96.7366 181.855 97.0311 181.58 97.3728C182.117 97.7794 182.675 98.1567 183.25 98.5172L183.275 98.5298C183.439 98.6305 183.607 98.7311 183.774 98.8275C184.076 99.0077 184.387 99.1796 184.697 99.3431L184.895 99.4438C185.348 99.6785 185.809 99.9007 186.284 100.106C186.38 100.148 186.485 100.19 186.581 100.232C186.59 100.236 186.594 100.236 186.602 100.24C186.825 100.333 187.047 100.421 187.274 100.504L186.934 98.991Z" fill="#E4E4E4"/>
<path d="M195.252 88.4156C199.652 88.4156 203.218 84.8523 203.218 80.4567C203.218 76.0611 199.652 72.4978 195.252 72.4978C190.853 72.4978 187.287 76.0611 187.287 80.4567C187.287 84.8523 190.853 88.4156 195.252 88.4156Z" fill="#A0616A"/>
<path d="M189.904 76.5801C190.729 77.5551 192.124 77.8302 193.412 77.943C196.026 78.1721 199.827 77.8005 202.382 77.2111C202.565 78.977 202.067 80.881 203.108 82.3336C203.596 80.575 203.88 78.7661 203.954 76.9427C204.032 76.1604 203.929 75.3706 203.655 74.6338C203.508 74.2645 203.261 73.9438 202.941 73.708C202.621 73.4723 202.241 73.331 201.845 73.3001C202.438 72.8503 203.133 72.5534 203.869 72.4355L201.339 71.1656L201.989 70.4993L197.41 70.2193L198.736 69.3775C196.74 69.1034 194.721 69.0397 192.711 69.1874C191.778 69.2561 190.802 69.3874 190.046 69.9275C189.29 70.4677 188.853 71.5414 189.323 72.3345C188.735 72.4309 188.182 72.6756 187.715 73.0454C187.249 73.4153 186.885 73.898 186.657 74.4478C186.369 75.3218 186.3 76.2528 186.455 77.1597C186.627 78.6148 186.966 80.0454 187.464 81.4237L189.904 76.5801Z" fill="#2F2E41"/>
<path d="M217.651 71.829C216.534 68.621 214.729 65.6952 212.364 63.2556C209.998 60.816 207.128 58.9214 203.955 57.7038C200.781 56.4863 197.379 55.9751 193.988 56.2059C190.596 56.4367 187.295 57.404 184.316 59.0403C181.337 60.6766 178.751 62.9426 176.738 65.6801C174.725 68.4177 173.335 71.5609 172.663 74.8907C171.991 78.2205 172.054 81.6567 172.848 84.9596C173.641 88.2626 175.147 91.3528 177.258 94.0147C177.468 94.2788 177.686 94.5429 177.909 94.7987C177.926 94.8154 177.938 94.8322 177.955 94.849C178.502 95.4786 179.083 96.0776 179.696 96.6433C179.856 96.79 180.024 96.9409 180.191 97.0835C180.51 97.3685 180.837 97.641 181.177 97.901C181.312 98.0058 181.442 98.1106 181.58 98.2112C182.117 98.6178 182.675 98.9952 183.25 99.3557L183.275 99.3683C183.439 99.4689 183.607 99.5695 183.775 99.6659C184.077 99.8462 184.387 100.018 184.698 100.182L184.895 100.282C185.348 100.517 185.81 100.739 186.284 100.945C186.38 100.987 186.485 101.028 186.582 101.07C186.59 101.075 186.594 101.075 186.602 101.079C186.825 101.171 187.047 101.259 187.274 101.343C188.018 101.627 188.777 101.87 189.548 102.072C191.515 102.596 193.542 102.861 195.577 102.86C196.32 102.86 197.054 102.827 197.78 102.756C199.439 102.603 201.076 102.272 202.664 101.77C202.668 101.77 202.673 101.766 202.677 101.766C203.68 101.447 204.66 101.059 205.61 100.605C205.614 100.601 205.622 100.601 205.626 100.597C205.84 100.496 206.046 100.387 206.256 100.282C206.289 100.265 206.323 100.249 206.356 100.232C206.524 100.144 206.692 100.056 206.86 99.9636C207.28 99.733 207.691 99.4899 208.098 99.2299C208.211 99.1629 208.32 99.0916 208.433 99.0161C208.593 98.9113 208.752 98.8023 208.907 98.6891C209.113 98.5466 209.319 98.3999 209.52 98.2489C209.583 98.2028 209.65 98.1567 209.713 98.1064C213.644 95.1252 216.529 90.977 217.955 86.2565C219.381 81.536 219.275 76.4855 217.651 71.8291L217.651 71.829ZM208.941 97.0876C208.803 97.1966 208.66 97.3015 208.517 97.3979C208.379 97.5027 208.24 97.6033 208.098 97.6955C207.976 97.7836 207.854 97.8674 207.728 97.9471L207.691 97.9722C207.598 98.0351 207.506 98.0938 207.414 98.1525C207.065 98.3705 206.713 98.5801 206.356 98.7813C206.319 98.8023 206.281 98.8233 206.243 98.8442C206.084 98.9323 205.924 99.0161 205.765 99.1C205.744 99.1126 205.719 99.1209 205.698 99.1335L205.673 99.1461C205.471 99.2509 205.265 99.3515 205.06 99.4479C204.267 99.8296 203.449 100.16 202.614 100.437C202.505 100.475 202.396 100.513 202.287 100.546C200.783 101.024 199.233 101.339 197.663 101.485C196.975 101.548 196.278 101.582 195.577 101.582C193.652 101.586 191.735 101.335 189.875 100.836C188.921 100.587 187.986 100.27 187.077 99.8881C187.03 99.8671 186.98 99.8504 186.934 99.8294C186.884 99.8084 186.837 99.7917 186.791 99.7707C186.741 99.7497 186.695 99.7288 186.644 99.7036C186.25 99.5317 185.86 99.3431 185.478 99.1461L185.294 99.0496C184.828 98.8065 184.37 98.5466 183.926 98.2699C183.796 98.1902 183.661 98.1064 183.535 98.0183C183.502 97.9974 183.472 97.9764 183.439 97.9554C183.141 97.7584 182.843 97.553 182.554 97.3392C182.356 97.1924 182.159 97.0457 181.966 96.8948C181.643 96.6516 181.333 96.3917 181.031 96.1234C180.871 95.9893 180.716 95.8425 180.565 95.7042C179.97 95.1553 179.407 94.5731 178.878 93.9602C178.702 93.759 178.53 93.5577 178.366 93.3481C178.329 93.3066 178.294 93.2633 178.261 93.2182C175.535 89.7809 173.895 85.6103 173.551 81.2382C173.207 76.8661 174.174 72.4906 176.328 68.6697C178.483 64.8489 181.728 61.7558 185.649 59.7851C189.57 57.8143 193.99 57.0552 198.345 57.6044C202.7 58.1536 206.792 59.9864 210.1 62.8689C213.408 65.7515 215.782 69.5532 216.919 73.7892C218.055 78.0252 217.904 82.5035 216.483 86.653C215.062 90.8025 212.437 94.4351 208.941 97.0876H208.941Z" fill="#E4E4E4"/>
<path d="M211.75 121.17H179.472C178.445 121.169 177.461 120.761 176.736 120.035C176.01 119.309 175.602 118.326 175.602 117.3C175.602 116.274 176.01 115.29 176.736 114.564C177.461 113.839 178.445 113.431 179.472 113.43H211.75C212.777 113.43 213.763 113.837 214.489 114.563C215.215 115.289 215.623 116.273 215.623 117.3C215.623 118.326 215.215 119.311 214.489 120.036C213.763 120.762 212.777 121.17 211.75 121.17Z" fill="white"/>
<path d="M211.75 133.103H179.472C178.445 133.102 177.461 132.694 176.736 131.968C176.01 131.242 175.602 130.258 175.602 129.233C175.602 128.207 176.01 127.223 176.736 126.497C177.461 125.772 178.445 125.363 179.472 125.363H211.75C212.777 125.363 213.763 125.77 214.489 126.496C215.215 127.222 215.623 128.206 215.623 129.233C215.623 130.259 215.215 131.243 214.489 131.969C213.763 132.695 212.777 133.103 211.75 133.103Z" fill="white"/>
<path d="M74.1157 29.1208H68.3937C68.6568 29.7654 68.7573 30.4647 68.6862 31.1572C68.6151 31.8497 68.3746 32.5142 67.986 33.092C67.5974 33.6697 67.0725 34.1432 66.4576 34.4705C65.8427 34.7979 65.1567 34.9692 64.4599 34.9692H39.3471C38.6504 34.9692 37.9644 34.7979 37.3495 34.4706C36.7346 34.1432 36.2097 33.6697 35.8211 33.092C35.4325 32.5142 35.192 31.8497 35.1209 31.1572C35.0498 30.4647 35.1503 29.7654 35.4134 29.1208H30.0691C27.6973 29.1208 25.4226 30.0622 23.7455 31.7379C22.0684 33.4136 21.1262 35.6863 21.1262 38.0561V151.304C21.1262 153.674 22.0684 155.947 23.7455 157.622C25.4226 159.298 27.6973 160.239 30.0691 160.239H74.1157C76.4874 160.239 78.7621 159.298 80.4392 157.622C82.1163 155.947 83.0585 153.674 83.0585 151.304V38.0561C83.0585 35.6863 82.1163 33.4136 80.4392 31.7379C78.7621 30.0622 76.4874 29.1208 74.1157 29.1208Z" fill="#F0F0F0"/>
<path d="M74.1669 72.4909C73.0493 69.2829 71.2448 66.3571 68.8792 63.9175C66.5136 61.4779 63.6438 59.5833 60.4701 58.3657C57.2963 57.1481 53.895 56.6369 50.5032 56.8678C47.1114 57.0986 43.8108 58.0659 40.8316 59.7022C37.8524 61.3385 35.2663 63.6045 33.2536 66.342C31.2409 69.0796 29.8501 72.2228 29.1782 75.5526C28.5062 78.8824 28.5693 82.3186 29.363 85.6215C30.1568 88.9244 31.662 92.0146 33.7738 94.6766C33.9836 94.9407 34.2018 95.2048 34.4243 95.4605C34.4411 95.4773 34.4536 95.4941 34.4704 95.5108C35.0173 96.1405 35.5986 96.7395 36.2116 97.3051C36.3712 97.4519 36.539 97.6028 36.7068 97.7453C37.0256 98.0304 37.353 98.3029 37.6928 98.5628C37.827 98.6676 37.9571 98.7724 38.0956 98.8731C38.6326 99.2797 39.1907 99.657 39.7656 100.018L39.7908 100.03C39.9542 100.131 40.1222 100.231 40.29 100.328C40.592 100.508 40.9026 100.68 41.213 100.843L41.4103 100.944C41.8635 101.179 42.325 101.401 42.7991 101.606C42.8956 101.648 43.0005 101.69 43.097 101.732C43.1054 101.736 43.1095 101.736 43.1179 101.741C43.3404 101.833 43.5627 101.921 43.7893 102.005C44.5336 102.289 45.2927 102.532 46.0634 102.734C48.0303 103.258 50.0572 103.523 52.0928 103.522C52.8355 103.522 53.5697 103.489 54.2956 103.418C55.9542 103.265 57.5915 102.934 59.1796 102.432C59.1837 102.432 59.188 102.428 59.1921 102.428C60.1953 102.109 61.1752 101.721 62.125 101.267C62.1291 101.263 62.1375 101.263 62.1418 101.259C62.3557 101.158 62.5614 101.049 62.7712 100.944C62.8048 100.927 62.8382 100.911 62.8718 100.894C63.0396 100.806 63.2076 100.718 63.3754 100.625C63.795 100.395 64.2062 100.152 64.613 99.8918C64.7263 99.8247 64.8355 99.7535 64.9488 99.678C65.1082 99.5732 65.2676 99.4642 65.4229 99.351C65.6284 99.2085 65.8341 99.0617 66.0355 98.9108C66.0984 98.8647 66.1656 98.8186 66.2285 98.7683C70.1594 95.7871 73.0447 91.6389 74.4708 86.9184C75.8969 82.1978 75.7905 77.1473 74.1669 72.4909L74.1669 72.4909Z" fill="white"/>
<path d="M68.2656 121.832H35.9876C34.9603 121.832 33.9751 121.424 33.2487 120.698C32.5223 119.972 32.1143 118.988 32.1143 117.962C32.1143 116.935 32.5223 115.951 33.2487 115.225C33.9751 114.499 34.9603 114.092 35.9876 114.092H68.2656C69.2922 114.093 70.2765 114.501 71.0022 115.226C71.7278 115.952 72.1354 116.936 72.1354 117.962C72.1354 118.987 71.7278 119.971 71.0022 120.697C70.2765 121.423 69.2922 121.831 68.2656 121.832Z" fill="white"/>
<path d="M68.2656 133.765H35.9877C35.4787 133.765 34.9746 133.665 34.5043 133.471C34.0339 133.277 33.6065 132.992 33.2465 132.632C32.8864 132.273 32.6008 131.846 32.4059 131.376C32.211 130.907 32.1107 130.403 32.1107 129.895C32.1107 129.386 32.211 128.882 32.4059 128.413C32.6008 127.943 32.8864 127.516 33.2465 127.157C33.6065 126.797 34.0339 126.512 34.5043 126.318C34.9746 126.124 35.4787 126.024 35.9877 126.024H68.2656C69.2929 126.024 70.2781 126.432 71.0045 127.158C71.7309 127.884 72.139 128.868 72.139 129.895C72.139 130.921 71.7309 131.905 71.0045 132.631C70.2781 133.357 69.2929 133.765 68.2656 133.765Z" fill="white"/>
<path d="M43.8563 85.6321L45.2139 90.331L62.5629 90.0252L62.4109 81.4157C62.2906 74.6009 57.4704 68.7234 50.6501 68.8436C43.8298 68.9638 39.4931 74.725 39.6134 81.5397L40.6042 90.4122L43.4328 90.3624L43.8563 85.6321Z" fill="#2F2E41"/>
<path d="M51.4254 88.9178C55.7244 88.9178 59.2095 85.4357 59.2095 81.1403C59.2095 76.8449 55.7244 73.3628 51.4254 73.3628C47.1264 73.3628 43.6414 76.8449 43.6414 81.1403C43.6414 85.4357 47.1264 88.9178 51.4254 88.9178Z" fill="#FFB6B6"/>
<path d="M66.9194 93.269L66.743 96.5404C63.0072 100.423 57.9111 102.708 52.5247 102.917C47.1383 103.125 41.8806 101.241 37.8554 97.6584C37.6755 97.5002 37.4991 97.3349 37.3264 97.1659C38.4058 96.0946 41.385 93.4488 44.6915 93.2043L59.6012 92.266C59.6012 92.266 65.2499 91.6046 66.9194 93.269Z" fill="#E4E4E4"/>
<path d="M59.9466 75.6791C59.9362 75.0836 59.7497 74.5044 59.4104 74.0147C59.3746 73.9643 59.3386 73.9176 59.3025 73.8709C59.0141 73.5031 58.6445 73.2069 58.2226 73.0055C57.8006 72.8041 57.3378 72.7028 56.8703 72.7097L51.2755 72.8104L45.6844 72.9074C44.8834 72.9235 44.1213 73.2559 43.5651 73.8319C43.0088 74.4079 42.7035 75.1807 42.7161 75.9811L44.0474 78.6593L44.8137 80.1979L44.9397 80.126C49.7788 77.4083 51.7576 77.3723 58.162 79.8995L58.2915 79.9499L58.7989 78.6521L59.9501 75.7079L59.9466 75.6791Z" fill="#2F2E41"/>
<path d="M68.6855 95.4698C68.2357 96.045 67.8297 96.0345 67.3224 96.5593C66.0416 97.8931 63.9977 99.0352 62.4003 99.9879L62.0514 93.74L66.9193 93.269C67.7295 93.7938 68.3489 94.5655 68.6855 95.4698Z" fill="#E4E4E4"/>
<path d="M74.1669 72.4909C73.0493 69.2829 71.2448 66.3571 68.8792 63.9175C66.5136 61.4779 63.6438 59.5833 60.4701 58.3657C57.2963 57.1481 53.895 56.6369 50.5032 56.8678C47.1114 57.0986 43.8108 58.0659 40.8316 59.7022C37.8524 61.3385 35.2663 63.6045 33.2536 66.342C31.2409 69.0796 29.8501 72.2228 29.1782 75.5526C28.5062 78.8824 28.5693 82.3186 29.363 85.6215C30.1568 88.9244 31.662 92.0146 33.7738 94.6766C33.9836 94.9407 34.2018 95.2048 34.4243 95.4605C34.4411 95.4773 34.4536 95.4941 34.4704 95.5108C35.0173 96.1405 35.5986 96.7395 36.2116 97.3051C36.3712 97.4519 36.539 97.6028 36.7068 97.7453C37.0256 98.0304 37.353 98.3029 37.6928 98.5628C37.827 98.6676 37.9571 98.7724 38.0956 98.8731C38.6326 99.2797 39.1907 99.657 39.7656 100.018L39.7908 100.03C39.9542 100.131 40.1222 100.231 40.29 100.328C40.592 100.508 40.9026 100.68 41.213 100.843L41.4103 100.944C41.8635 101.179 42.325 101.401 42.7991 101.606C42.8956 101.648 43.0005 101.69 43.097 101.732C43.1054 101.736 43.1095 101.736 43.1179 101.741C43.3404 101.833 43.5627 101.921 43.7893 102.005C44.5336 102.289 45.2927 102.532 46.0634 102.734C48.0303 103.258 50.0572 103.523 52.0928 103.522C52.8355 103.522 53.5697 103.489 54.2956 103.418C55.9542 103.265 57.5915 102.934 59.1796 102.432C59.1837 102.432 59.188 102.428 59.1921 102.428C60.1953 102.109 61.1752 101.721 62.125 101.267C62.1291 101.263 62.1375 101.263 62.1418 101.259C62.3557 101.158 62.5614 101.049 62.7712 100.944C62.8048 100.927 62.8382 100.911 62.8718 100.894C63.0396 100.806 63.2076 100.718 63.3754 100.625C63.795 100.395 64.2062 100.152 64.613 99.8918C64.7263 99.8247 64.8355 99.7535 64.9488 99.678C65.1082 99.5732 65.2676 99.4642 65.4229 99.351C65.6284 99.2085 65.8341 99.0617 66.0355 98.9108C66.0984 98.8647 66.1656 98.8186 66.2285 98.7683C70.1594 95.7871 73.0447 91.6389 74.4708 86.9184C75.8969 82.1978 75.7905 77.1473 74.1669 72.4909L74.1669 72.4909ZM65.4565 97.7495C65.318 97.8585 65.1754 97.9633 65.0326 98.0598C64.8941 98.1646 64.7559 98.2652 64.6131 98.3574C64.4914 98.4454 64.3697 98.5293 64.2439 98.609L64.2062 98.6341C64.1138 98.697 64.0216 98.7557 63.9292 98.8144C63.5809 99.0323 63.2285 99.242 62.8718 99.4432C62.8341 99.4642 62.7962 99.4851 62.7585 99.5061C62.5992 99.5941 62.4398 99.678 62.2804 99.7618C62.2593 99.7744 62.2341 99.7828 62.2132 99.7954L62.188 99.8079C61.9866 99.9128 61.7809 100.013 61.5754 100.11C60.782 100.492 59.9649 100.822 59.1292 101.099C59.02 101.137 58.911 101.175 58.802 101.208C57.2989 101.686 55.7487 102.001 54.1782 102.147C53.4901 102.21 52.7935 102.244 52.0928 102.244C50.1675 102.248 48.2501 101.997 46.3908 101.497C45.4366 101.249 44.5013 100.932 43.5922 100.55C43.5459 100.529 43.4955 100.512 43.4494 100.491C43.3992 100.47 43.3529 100.454 43.3068 100.433C43.2564 100.412 43.2103 100.391 43.1599 100.366C42.7656 100.194 42.3753 100.005 41.9936 99.8079L41.809 99.7115C41.3431 99.4684 40.8858 99.2084 40.4411 98.9317C40.311 98.8521 40.1768 98.7682 40.0508 98.6802C40.0174 98.6593 39.9879 98.6383 39.9543 98.6173C39.6564 98.4203 39.3585 98.2149 39.069 98.0011C38.8719 97.8543 38.6746 97.7076 38.4816 97.5567C38.1586 97.3135 37.848 97.0536 37.546 96.7853C37.3866 96.6511 37.2313 96.5044 37.0803 96.3661C36.4854 95.8172 35.9222 95.2349 35.3936 94.6221C35.2174 94.4208 35.0453 94.2196 34.8816 94.01C34.8444 93.9685 34.8094 93.9251 34.7767 93.88C32.0506 90.4428 30.4108 86.2722 30.0666 81.9001C29.7223 77.528 30.6892 73.1525 32.8439 69.3316C34.9986 65.5108 38.2434 62.4177 42.1646 60.447C46.0858 58.4762 50.5056 57.717 54.8603 58.2663C59.2151 58.8155 63.3074 60.6483 66.6155 63.5308C69.9235 66.4134 72.2973 70.215 73.4341 74.451C74.5709 78.687 74.4193 83.1653 72.9984 87.3149C71.5776 91.4644 68.952 95.097 65.4565 97.7495Z" fill="#E4E4E4"/>
<path d="M143.362 91.7885C143.69 91.8544 144.029 91.8476 144.354 91.7686C144.68 91.6896 144.984 91.5402 145.245 91.3311C145.507 91.1219 145.719 90.8581 145.867 90.558C146.015 90.258 146.096 89.9292 146.103 89.5947L163.411 73.3181L159.517 70.2142L143.699 87.2307C143.136 87.2557 142.601 87.4862 142.197 87.8786C141.792 88.2711 141.546 88.7981 141.504 89.3599C141.463 89.9217 141.629 90.4792 141.971 90.9268C142.314 91.3744 142.808 91.681 143.362 91.7885H143.362Z" fill="#FFB7B7"/>
<path d="M160.958 75.9491L157.591 72.0063C157.495 71.8941 157.425 71.7626 157.385 71.6208C157.344 71.4789 157.335 71.33 157.357 71.1843C157.38 71.0385 157.433 70.8993 157.515 70.7761C157.596 70.6529 157.702 70.5486 157.827 70.4704L162.211 67.7285C162.788 67.2418 163.535 67.0036 164.288 67.0663C165.04 67.129 165.738 67.4874 166.226 68.0629C166.715 68.6384 166.955 69.384 166.894 70.1362C166.833 70.8884 166.476 71.5858 165.901 72.0754L162.514 75.9576C162.417 76.0687 162.297 76.1576 162.162 76.2183C162.028 76.279 161.882 76.3099 161.734 76.3091C161.586 76.3083 161.441 76.2757 161.307 76.2136C161.173 76.1515 161.054 76.0612 160.958 75.9491Z" fill="#7F0027"/>
<path d="M151.904 156.265L147.672 156.265L145.659 139.957L151.904 139.957L151.904 156.265Z" fill="#FFB7B7"/>
<path d="M152.983 160.364L139.338 160.363V160.191C139.338 158.784 139.898 157.434 140.894 156.439C141.89 155.444 143.241 154.885 144.649 154.885H144.65L152.983 154.885L152.983 160.364Z" fill="#2F2E41"/>
<path d="M185.73 156.265L181.498 156.265L179.485 139.957L185.731 139.957L185.73 156.265Z" fill="#FFB7B7"/>
<path d="M186.809 160.364L173.164 160.363V160.191C173.164 158.784 173.724 157.434 174.72 156.439C175.716 155.444 177.067 154.885 178.475 154.885H178.476L186.809 154.885L186.809 160.364Z" fill="#2F2E41"/>
<path d="M174.347 84.5939L178.613 68.8477L173.079 65.7399H165.355L162.351 68.9513C162.351 68.9513 157.332 72.4405 158.547 76.3064L160.507 85.1119L157.509 99.0971L142.407 120.023L138.832 140.578L152.905 144.264L168.122 114.325L175.5 147.475L189.226 146.786L184.496 106.591C184.496 106.591 183.148 94.3466 176.081 86.7012L174.347 84.5939Z" fill="#2F2E41"/>
<path d="M183.156 98.526C183.394 98.2905 183.578 98.0058 183.693 97.6918C183.809 97.3779 183.855 97.0424 183.827 96.709C183.799 96.3755 183.698 96.0523 183.531 95.762C183.365 95.4717 183.137 95.2214 182.863 95.0288L179.553 72.7197L174.803 74.2184L179.558 95.7045C179.265 96.1855 179.158 96.7574 179.259 97.3117C179.359 97.8661 179.659 98.3644 180.103 98.7122C180.546 99.06 181.102 99.2331 181.665 99.1988C182.228 99.1645 182.758 98.9251 183.156 98.526V98.526Z" fill="#FFB7B7"/>
<path d="M180.371 76.221L175.218 76.8147C175.071 76.8316 174.923 76.8167 174.782 76.7711C174.642 76.7254 174.513 76.6501 174.405 76.5502C174.296 76.4503 174.21 76.3282 174.153 76.1922C174.096 76.0562 174.069 75.9095 174.074 75.7622L174.241 70.5975C174.158 69.8474 174.377 69.0952 174.849 68.5059C175.321 67.9166 176.007 67.5384 176.758 67.4541C177.508 67.3699 178.262 67.5865 178.852 68.0565C179.443 68.5265 179.824 69.2115 179.91 69.9612L181.246 74.9359C181.284 75.0784 181.291 75.2274 181.266 75.3728C181.242 75.5182 181.186 75.6566 181.103 75.7785C181.02 75.9005 180.912 76.0031 180.785 76.0795C180.659 76.1558 180.518 76.2041 180.371 76.221V76.221Z" fill="#7F0027"/>
<path d="M160.579 61.2619V54.6274C160.581 52.2705 161.519 50.0106 163.187 48.3445C164.856 46.6784 167.118 45.7425 169.477 45.7425C171.836 45.7425 174.098 46.6784 175.767 48.3445C177.435 50.0106 178.374 52.2705 178.375 54.6274V61.2619C178.375 61.5785 178.249 61.8821 178.024 62.106C177.8 62.3299 177.497 62.4558 177.18 62.4562H161.775C161.458 62.4558 161.154 62.3299 160.93 62.106C160.706 61.8821 160.58 61.5785 160.579 61.2619Z" fill="#2F2E41"/>
<path d="M167.649 62.3017C171.252 62.3017 174.172 59.3835 174.172 55.7837C174.172 52.1839 171.252 49.2656 167.649 49.2656C164.046 49.2656 161.125 52.1839 161.125 55.7837C161.125 59.3835 164.046 62.3017 167.649 62.3017Z" fill="#FFB7B7"/>
<path d="M158.474 55.1582C158.477 53.2936 159.219 51.5061 160.538 50.1877C161.858 48.8693 163.647 48.1277 165.513 48.1255H166.841C168.707 48.1277 170.496 48.8693 171.816 50.1877C173.135 51.5061 173.877 53.2936 173.88 55.1582V55.2909H171.073L170.116 52.6127L169.924 55.2909H168.474L167.991 53.9396L167.894 55.2909H158.475L158.474 55.1582Z" fill="#2F2E41"/>
<path d="M167.007 63.2022C166.875 63.024 166.796 62.8121 166.78 62.5911C166.763 62.3701 166.809 62.1489 166.913 61.9531C168.321 59.2785 170.291 54.3366 167.676 51.2888L167.488 51.0698H175.081V62.46L168.183 63.676C168.113 63.6883 168.042 63.6946 167.971 63.6946C167.783 63.6946 167.597 63.65 167.43 63.5644C167.262 63.4788 167.117 63.3547 167.007 63.2022Z" fill="#2F2E41"/>
<path d="M136.349 160.294H82.8352C79.8229 160.291 76.9349 159.094 74.8049 156.965C72.6749 154.837 71.4768 151.952 71.4734 148.942V11.3524C71.4768 8.34265 72.6749 5.4571 74.8049 3.32884C76.9349 1.20058 79.8229 0.00341961 82.8352 0H90.0676L89.7885 0.683855C89.4995 1.39161 89.3891 2.15951 89.4672 2.91992C89.5452 3.68032 89.8092 4.40987 90.2359 5.04432C90.6626 5.67876 91.2389 6.19861 91.9141 6.55808C92.5892 6.91755 93.3425 7.1056 94.1075 7.10566H124.618C125.383 7.10559 126.136 6.91754 126.811 6.55807C127.487 6.19861 128.063 5.67877 128.49 5.04434C128.916 4.4099 129.18 3.68036 129.258 2.91996C129.337 2.15955 129.226 1.39164 128.937 0.683855L128.658 0H136.349C139.362 0.00341341 142.25 1.20057 144.38 3.32882C146.51 5.45708 147.708 8.34263 147.711 11.3524V148.942C147.708 151.952 146.51 154.837 144.38 156.965C142.25 159.094 139.362 160.291 136.349 160.294Z" fill="white"/>
<path d="M136.349 160.294H82.8352C79.8229 160.291 76.9349 159.094 74.8049 156.965C72.6749 154.837 71.4768 151.952 71.4734 148.942V11.3524C71.4768 8.34265 72.6749 5.4571 74.8049 3.32884C76.9349 1.20058 79.8229 0.00341961 82.8352 0H90.0676L89.7885 0.683855C89.4995 1.39161 89.3891 2.15951 89.4672 2.91992C89.5452 3.68032 89.8092 4.40987 90.2359 5.04432C90.6626 5.67876 91.2389 6.19861 91.9141 6.55808C92.5892 6.91755 93.3425 7.1056 94.1075 7.10566H124.618C125.383 7.10559 126.136 6.91754 126.811 6.55807C127.487 6.19861 128.063 5.67877 128.49 5.04434C128.916 4.4099 129.18 3.68036 129.258 2.91996C129.337 2.15955 129.226 1.39164 128.937 0.683855L128.658 0H136.349C139.362 0.00341341 142.25 1.20057 144.38 3.32882C146.51 5.45708 147.708 8.34263 147.711 11.3524V148.942C147.708 151.952 146.51 154.837 144.38 156.965C142.25 159.094 139.362 160.291 136.349 160.294ZM82.8352 0.992817C80.0863 0.995951 77.4509 2.08842 75.5072 4.03055C73.5635 5.97268 72.4701 8.60587 72.467 11.3524V148.942C72.4701 151.688 73.5635 154.322 75.5072 156.264C77.4509 158.206 80.0863 159.298 82.8352 159.301H136.349C139.098 159.298 141.734 158.206 143.677 156.264C145.621 154.322 146.714 151.688 146.718 148.942V11.3524C146.714 8.60586 145.621 5.97266 143.677 4.03053C141.734 2.0884 139.098 0.995943 136.349 0.992817H130.088C130.31 1.83007 130.337 2.70717 130.167 3.55646C129.996 4.40575 129.632 5.20452 129.104 5.89115C128.575 6.57777 127.896 7.13389 127.118 7.5166C126.34 7.89932 125.485 8.09839 124.618 8.09846H94.1076C93.2407 8.09816 92.3855 7.89893 91.6079 7.51613C90.8303 7.13334 90.1511 6.5772 89.6226 5.89062C89.0942 5.20404 88.7306 4.40536 88.56 3.55617C88.3893 2.70698 88.4162 1.82999 88.6384 0.992807L82.8352 0.992817Z" fill="#007B77"/>
<path d="M137.911 48.6718C136.553 44.7742 134.36 41.2195 131.486 38.2556C128.612 35.2916 125.126 32.9897 121.27 31.5105C117.414 30.0312 113.281 29.4101 109.161 29.6905C105.04 29.971 101.03 31.1462 97.4102 33.1342C93.7906 35.1222 90.6486 37.8752 88.2033 41.2012C85.758 44.5271 84.0683 48.346 83.2519 52.3915C82.4355 56.437 82.5122 60.6118 83.4765 64.6247C84.4408 68.6375 86.2696 72.3919 88.8354 75.626C89.0903 75.9469 89.3554 76.2678 89.6254 76.5785C89.6458 76.5989 89.661 76.6193 89.6814 76.6396C90.3461 77.4046 91.0524 78.1323 91.7972 78.8196C91.9908 78.9979 92.1947 79.1812 92.3985 79.3544C92.7861 79.7007 93.1836 80.0318 93.5965 80.3476C94.4028 80.9825 95.2435 81.5726 96.1147 82.115L96.1454 82.1303C96.7111 82.4818 97.2871 82.8077 97.8735 83.1184L98.113 83.2407C98.6636 83.5259 99.2244 83.7958 99.8004 84.0454C99.9176 84.0964 100.045 84.1473 100.162 84.1982C100.172 84.2033 100.178 84.2033 100.188 84.2084C101.352 84.692 102.547 85.0953 103.766 85.4155C106.156 86.0519 108.619 86.3738 111.092 86.3731C111.994 86.3731 112.886 86.3324 113.768 86.2457C115.783 86.0599 117.772 85.6586 119.702 85.0488C119.707 85.0488 119.712 85.0437 119.717 85.0437C120.936 84.6558 122.126 84.1844 123.28 83.6328C123.285 83.6278 123.296 83.6278 123.301 83.6227C123.56 83.5004 123.81 83.368 124.065 83.2407C124.106 83.2203 124.147 83.1999 124.188 83.1795C124.392 83.0726 124.595 82.9656 124.799 82.8536C125.309 82.5734 125.809 82.278 126.303 81.9622C126.441 81.8807 126.573 81.7941 126.711 81.7025C127.16 81.407 127.603 81.0912 128.031 80.7704C128.108 80.7143 128.189 80.6583 128.266 80.5972C133.042 76.9751 136.547 71.9353 138.28 66.2002C140.012 60.465 139.883 54.3291 137.911 48.6718H137.911Z" fill="white"/>
<path d="M120.463 69.6945C122.814 69.6945 124.719 67.7906 124.719 65.442C124.719 63.0934 122.814 61.1895 120.463 61.1895C118.113 61.1895 116.207 63.0934 116.207 65.442C116.207 67.7906 118.113 69.6945 120.463 69.6945Z" fill="#2F2E41"/>
<path d="M121.649 61.3066C122.385 61.3067 123.109 61.4977 123.75 61.861C124.391 62.2244 124.926 62.7477 125.304 63.3796C125.681 64.0116 125.888 64.7307 125.904 65.4665C125.92 66.2023 125.745 66.9298 125.396 67.5776C125.765 67.1164 126.033 66.5833 126.185 66.0126C126.336 65.4418 126.367 64.8458 126.275 64.2625C126.183 63.6793 125.97 63.1215 125.651 62.6248C125.331 62.1281 124.912 61.7034 124.419 61.3777C123.926 61.0519 123.37 60.8324 122.788 60.733C122.205 60.6336 121.609 60.6565 121.035 60.8002C120.462 60.944 119.925 61.2055 119.459 61.5681C118.992 61.9306 118.607 62.3863 118.326 62.906C118.724 62.4068 119.229 62.0038 119.805 61.7269C120.38 61.45 121.011 61.3064 121.649 61.3066H121.649Z" fill="#2F2E41"/>
<path d="M112.51 65.4328C119.415 65.4328 125.012 59.8399 125.012 52.9407C125.012 46.0416 119.415 40.4487 112.51 40.4487C105.605 40.4487 100.007 46.0416 100.007 52.9407C100.007 59.8399 105.605 65.4328 112.51 65.4328Z" fill="#2F2E41"/>
<path d="M102.697 45.1901C104.852 42.7694 107.863 41.2796 111.096 41.0352C114.329 40.7907 117.53 41.8108 120.024 43.8801C119.922 43.7828 119.82 43.685 119.715 43.5908C117.245 41.3828 113.998 40.2451 110.689 40.4278C107.379 40.6106 104.278 42.0989 102.067 44.5655C99.855 47.0321 98.7141 50.2752 98.8948 53.5819C99.0755 56.8886 100.563 59.9884 103.03 62.1997C103.054 62.221 103.078 62.2421 103.102 62.2632C103.208 62.3574 103.317 62.4465 103.425 62.5367C101.076 60.304 99.6875 57.2468 99.5518 54.0103C99.4161 50.7739 100.544 47.6113 102.698 45.1901L102.697 45.1901Z" fill="#2F2E41"/>
<path d="M112.404 65.3269C116.851 65.3269 120.456 61.7248 120.456 57.2813C120.456 52.8379 116.851 49.2358 112.404 49.2358C107.957 49.2358 104.352 52.8379 104.352 57.2813C104.352 61.7248 107.957 65.3269 112.404 65.3269Z" fill="#A0616A"/>
<path d="M126.813 78.244V80.9435C126.318 81.2593 125.819 81.5547 125.309 81.8349C125.105 81.9469 124.901 82.0539 124.697 82.1609C124.657 82.1812 124.616 82.2016 124.575 82.222C124.32 82.3493 124.07 82.4817 123.81 82.604C123.805 82.6091 123.795 82.6091 123.79 82.6141C122.636 83.1657 121.445 83.6371 120.227 84.025C120.222 84.025 120.217 84.0301 120.211 84.0301C118.282 84.64 116.293 85.0412 114.278 85.2271C113.396 85.3137 112.504 85.3544 111.601 85.3544C109.128 85.3551 106.666 85.0332 104.276 84.3968C103.057 84.0766 101.861 83.6733 100.698 83.1897C100.687 83.1846 100.682 83.1846 100.672 83.1795C100.555 83.1286 100.427 83.0777 100.31 83.0267C99.7341 82.7771 99.1733 82.5072 98.6227 82.222L98.3833 82.0997C97.7969 81.789 97.2209 81.4631 96.6551 81.1116L96.6245 81.0963C95.7532 80.5539 94.9125 79.9639 94.1063 79.3289C93.6933 79.0131 93.2958 78.6821 92.9083 78.3357C92.7044 78.1625 92.5005 77.9792 92.3069 77.8009C91.5621 77.1136 90.8558 76.3859 90.1912 75.6209C90.2793 75.0904 90.4089 74.5676 90.5787 74.0572L90.5837 74.0521C90.6142 73.9652 90.6499 73.8801 90.6907 73.7975C90.7188 73.7244 90.7512 73.6529 90.7875 73.5835C91.7 71.8773 93.3518 71.4545 95.4011 71.3628C96.5582 71.3119 97.8376 71.3679 99.1887 71.3526C99.9024 71.3475 100.641 71.3221 101.381 71.2559C106.045 70.8331 105.199 68.0827 105.408 66.6005C105.617 65.1642 106.912 66.407 106.998 66.4885L107.003 66.4936C109.643 67.7278 112.563 68.2393 115.465 67.9757C115.965 67.9146 116.465 67.8789 116.964 67.8637C118.279 67.8484 117.994 68.2253 117.54 68.536C117.32 68.6808 117.09 68.8101 116.852 68.9231C116.852 68.9231 116.643 70.1965 116.429 72.1014C116.225 73.9248 122.653 74.5564 123.912 74.9537H123.917C124.636 75.2178 125.277 75.657 125.783 76.2317C126.289 76.8063 126.643 77.498 126.813 78.244Z" fill="#007B77"/>
<path d="M105.517 47.2244V55.272H107.382L109.755 52.7314L109.437 55.272H117.68L117.17 52.7314L118.19 55.272H119.504V47.2244H105.517Z" fill="#2F2E41"/>
<path d="M104.245 56.7521C104.596 56.7521 104.881 56.2308 104.881 55.5878C104.881 54.9447 104.596 54.4234 104.245 54.4234C103.894 54.4234 103.61 54.9447 103.61 55.5878C103.61 56.2308 103.894 56.7521 104.245 56.7521Z" fill="#A0616A"/>
<path d="M120.563 56.7521C120.914 56.7521 121.198 56.2308 121.198 55.5878C121.198 54.9447 120.914 54.4234 120.563 54.4234C120.211 54.4234 119.927 54.9447 119.927 55.5878C119.927 56.2308 120.211 56.7521 120.563 56.7521Z" fill="#A0616A"/>
<path d="M137.911 48.6718C136.553 44.7742 134.36 41.2195 131.486 38.2556C128.612 35.2916 125.126 32.9897 121.27 31.5105C117.414 30.0312 113.281 29.4101 109.161 29.6905C105.04 29.971 101.03 31.1462 97.4102 33.1342C93.7906 35.1222 90.6486 37.8752 88.2033 41.2012C85.758 44.5271 84.0683 48.346 83.2519 52.3915C82.4355 56.437 82.5122 60.6118 83.4765 64.6247C84.4408 68.6375 86.2696 72.3919 88.8354 75.626C89.0903 75.9469 89.3554 76.2678 89.6254 76.5785C89.6458 76.5989 89.661 76.6193 89.6814 76.6396C90.3461 77.4046 91.0524 78.1323 91.7972 78.8196C91.9908 78.9979 92.1947 79.1812 92.3985 79.3544C92.7861 79.7007 93.1836 80.0318 93.5965 80.3476C94.4028 80.9825 95.2435 81.5726 96.1147 82.115L96.1454 82.1303C96.7111 82.4818 97.2871 82.8077 97.8735 83.1184L98.113 83.2407C98.6636 83.5259 99.2244 83.7958 99.8004 84.0454C99.9176 84.0964 100.045 84.1473 100.162 84.1982C100.172 84.2033 100.178 84.2033 100.188 84.2084C101.352 84.692 102.547 85.0953 103.766 85.4155C106.156 86.0519 108.619 86.3738 111.092 86.3731C111.994 86.3731 112.886 86.3324 113.768 86.2457C115.783 86.0599 117.772 85.6586 119.702 85.0488C119.707 85.0488 119.712 85.0437 119.717 85.0437C120.936 84.6558 122.126 84.1844 123.28 83.6328C123.285 83.6278 123.296 83.6278 123.301 83.6227C123.56 83.5004 123.81 83.368 124.065 83.2407C124.106 83.2203 124.147 83.1999 124.188 83.1795C124.392 83.0726 124.595 82.9656 124.799 82.8536C125.309 82.5734 125.809 82.278 126.303 81.9622C126.441 81.8807 126.573 81.7941 126.711 81.7025C127.16 81.407 127.603 81.0912 128.031 80.7704C128.108 80.7143 128.189 80.6583 128.266 80.5972C133.042 76.9751 136.547 71.9353 138.28 66.2002C140.012 60.465 139.883 54.3291 137.911 48.6718H137.911ZM127.328 79.3595C127.159 79.4919 126.986 79.6193 126.813 79.7364C126.645 79.8637 126.476 79.986 126.303 80.098C126.155 80.205 126.008 80.3069 125.854 80.4036C125.727 80.4902 125.6 80.5717 125.472 80.6532C125.049 80.9181 124.621 81.1727 124.188 81.4172C124.142 81.4427 124.096 81.4681 124.05 81.4936C123.856 81.6006 123.663 81.7025 123.469 81.8043C123.443 81.8196 123.413 81.8298 123.387 81.8451L123.357 81.8603C123.112 81.9877 122.862 82.1099 122.612 82.2271C121.648 82.6909 120.656 83.0924 119.64 83.4291C119.508 83.4749 119.375 83.5208 119.243 83.5616C117.417 84.1419 115.533 84.5244 113.625 84.7025C112.789 84.7788 111.943 84.8196 111.092 84.8196C108.752 84.8244 106.423 84.5196 104.164 83.913C103.005 83.6106 101.868 83.2259 100.764 82.7619C100.647 82.716 100.529 82.6651 100.417 82.6193C100.356 82.5938 100.3 82.5683 100.239 82.5378C99.7595 82.3289 99.2856 82.0998 98.8216 81.8603L98.5973 81.7432C98.0316 81.4478 97.4758 81.132 96.9354 80.7958C96.7368 80.6736 96.5379 80.5462 96.3442 80.4138C95.7324 80.0114 95.136 79.5785 94.5548 79.1252C94.1623 78.8298 93.7852 78.514 93.418 78.188C93.2244 78.025 93.0357 77.8467 92.8523 77.6786C92.1295 77.0118 91.4453 76.3043 90.803 75.5598C90.5889 75.3153 90.3799 75.0708 90.181 74.8162C90.1358 74.7658 90.0932 74.7131 90.0535 74.6583C86.7414 70.4823 84.7492 65.4152 84.331 60.1033C83.9128 54.7915 85.0875 49.4755 87.7053 44.8334C90.3232 40.1913 94.2655 36.4335 99.0295 34.0391C103.793 31.6448 109.163 30.7224 114.454 31.3897C119.745 32.057 124.717 34.2837 128.736 37.7858C132.755 41.288 135.639 45.9068 137.02 51.0532C138.401 56.1997 138.217 61.6406 136.491 66.682C134.764 71.7234 131.575 76.1369 127.328 79.3595Z" fill="#007B77"/>
<path d="M130.69 108.576H91.4742C90.2268 108.575 89.0308 108.08 88.1491 107.198C87.2675 106.316 86.7722 105.121 86.7722 103.874C86.7722 102.628 87.2675 101.433 88.1491 100.551C89.0308 99.6694 90.2268 99.1736 91.4742 99.1725H130.69C131.308 99.172 131.921 99.2933 132.492 99.5293C133.064 99.7654 133.583 100.112 134.02 100.548C134.458 100.985 134.805 101.503 135.041 102.074C135.278 102.645 135.4 103.257 135.4 103.874C135.4 104.492 135.278 105.104 135.041 105.675C134.805 106.246 134.458 106.764 134.02 107.201C133.583 107.637 133.064 107.984 132.492 108.22C131.921 108.456 131.308 108.577 130.69 108.576Z" fill="#7F0027"/>
<path d="M130.69 123.074H91.4742C90.2268 123.073 89.0308 122.577 88.1491 121.696C87.2675 120.814 86.7722 119.619 86.7722 118.372C86.7722 117.126 87.2675 115.931 88.1491 115.049C89.0308 114.167 90.2268 113.671 91.4742 113.67H130.69C131.308 113.67 131.921 113.791 132.492 114.027C133.064 114.263 133.583 114.609 134.02 115.046C134.458 115.483 134.805 116.001 135.041 116.572C135.278 117.143 135.4 117.754 135.4 118.372C135.4 118.99 135.278 119.602 135.041 120.173C134.805 120.743 134.458 121.262 134.02 121.698C133.583 122.135 133.064 122.481 132.492 122.717C131.921 122.953 131.308 123.075 130.69 123.074Z" fill="#7F0027"/>
<path d="M109.71 143.645C112.309 143.645 114.415 141.54 114.415 138.943C114.415 136.346 112.309 134.241 109.71 134.241C107.111 134.241 105.004 136.346 105.004 138.943C105.004 141.54 107.111 143.645 109.71 143.645Z" fill="#007B77"/>
<path d="M132.77 138.943C130.542 138.118 127.779 136.709 126.066 135.217L127.273 138.551H118.729V139.335H127.273L126.066 142.67C127.779 141.178 130.542 139.769 132.77 138.943Z" fill="#007B77"/>
<path d="M86.6494 138.943C88.8767 138.118 91.6402 136.709 93.3533 135.217L92.146 138.551H100.69V139.335H92.146L93.3533 142.67C91.6402 141.178 88.8767 139.769 86.6494 138.943Z" fill="#007B77"/>
<path d="M240.794 160.669L0.331216 161C0.243372 161 0.159126 160.965 0.0970108 160.903C0.0348957 160.841 0 160.757 0 160.669C0 160.581 0.0348957 160.497 0.0970108 160.435C0.159126 160.373 0.243372 160.338 0.331216 160.338L240.794 160.007C240.882 160.007 240.966 160.042 241.029 160.104C241.091 160.166 241.126 160.25 241.126 160.338C241.126 160.426 241.091 160.51 241.029 160.572C240.966 160.634 240.882 160.669 240.794 160.669Z" fill="#007B77"/>
</g>
<defs>
<clipPath id="clip0">
<rect width="241.126" height="161" fill="white"/>
</clipPath>
</defs>
</svg>
