<svg width="338" height="346" viewBox="0 0 338 346" fill="none" xmlns="http://www.w3.org/2000/svg">
<path d="M299.981 22.7569C298.797 19.3681 295.089 17.5812 291.701 18.7657L236.477 38.0688C233.088 39.2533 231.301 42.9608 232.486 46.3496C233.67 49.7383 237.378 51.5252 240.767 50.3407L289.854 33.1824L307.013 82.27C308.197 85.6588 311.905 87.4457 315.293 86.2612C318.682 85.0766 320.469 81.3692 319.285 77.9804L299.981 22.7569ZM-32.3357 303.123C63.7668 259.937 131.265 223.451 182.488 181.532C233.887 139.47 268.648 92.1507 299.701 27.7238L287.99 22.0795C257.6 85.132 223.925 130.825 174.255 171.472C124.41 212.262 58.2063 248.183 -37.6643 291.265L-32.3357 303.123Z" fill="black" fill-opacity="0.1"/>
</svg>
