<svg width="246" height="104" viewBox="0 0 246 104" fill="none" xmlns="http://www.w3.org/2000/svg">
<path d="M42.8838 24.4438C40.7129 23.8198 39.1309 23.0552 38.1377 22.1499C37.1533 21.2358 36.6611 20.1108 36.6611 18.7749C36.6611 17.2632 37.2632 16.0151 38.4673 15.0308C39.6802 14.0376 41.2534 13.541 43.187 13.541C44.5054 13.541 45.6787 13.7959 46.707 14.3057C47.7441 14.8154 48.5439 15.5186 49.1064 16.415C49.6777 17.3115 49.9634 18.2915 49.9634 19.355H47.4189C47.4189 18.1948 47.0498 17.2852 46.3115 16.626C45.5732 15.958 44.5317 15.624 43.187 15.624C41.939 15.624 40.9634 15.9009 40.2603 16.4546C39.5659 16.9995 39.2188 17.7598 39.2188 18.7354C39.2188 19.5176 39.5483 20.1812 40.2075 20.7261C40.8755 21.2622 42.0049 21.7544 43.5957 22.2026C45.1953 22.6509 46.4434 23.1475 47.3398 23.6924C48.2451 24.2285 48.9131 24.8569 49.3438 25.5776C49.7832 26.2983 50.0029 27.1465 50.0029 28.1221C50.0029 29.6777 49.3965 30.9258 48.1836 31.8662C46.9707 32.7979 45.3491 33.2637 43.3188 33.2637C42.0005 33.2637 40.77 33.0132 39.6274 32.5122C38.4849 32.0024 37.6016 31.3081 36.9775 30.4292C36.3623 29.5503 36.0547 28.5527 36.0547 27.4365H38.5991C38.5991 28.5967 39.0254 29.5151 39.8779 30.1919C40.7393 30.8599 41.8862 31.1938 43.3188 31.1938C44.6548 31.1938 45.6787 30.9214 46.3906 30.3765C47.1025 29.8315 47.4585 29.0889 47.4585 28.1484C47.4585 27.208 47.1289 26.4829 46.4697 25.9731C45.8105 25.4546 44.6152 24.9448 42.8838 24.4438ZM58.7964 33.2637C56.8628 33.2637 55.2896 32.6309 54.0767 31.3652C52.8638 30.0908 52.2573 28.3901 52.2573 26.2632V25.8149C52.2573 24.3999 52.5254 23.1387 53.0615 22.0312C53.6064 20.915 54.3623 20.0449 55.3291 19.4209C56.3047 18.7881 57.3594 18.4717 58.4932 18.4717C60.3477 18.4717 61.7891 19.0825 62.8174 20.3042C63.8457 21.5259 64.3599 23.2749 64.3599 25.5513V26.5664H54.6963C54.7314 27.9727 55.1401 29.1108 55.9224 29.981C56.7134 30.8423 57.7153 31.2729 58.9282 31.2729C59.7896 31.2729 60.519 31.0972 61.1167 30.7456C61.7144 30.394 62.2373 29.9282 62.6855 29.3481L64.1753 30.5083C62.98 32.3452 61.187 33.2637 58.7964 33.2637ZM58.4932 20.4756C57.5088 20.4756 56.6826 20.8359 56.0146 21.5566C55.3467 22.2686 54.9336 23.2705 54.7754 24.5625H61.9209V24.3779C61.8506 23.1387 61.5166 22.1807 60.9189 21.5039C60.3213 20.8184 59.5127 20.4756 58.4932 20.4756ZM76.001 31.5894C75.0518 32.7056 73.6587 33.2637 71.8218 33.2637C70.3013 33.2637 69.1411 32.8242 68.3413 31.9453C67.5503 31.0576 67.1504 29.748 67.1416 28.0166V18.7354H69.5806V27.9507C69.5806 30.1128 70.4595 31.1938 72.2173 31.1938C74.0806 31.1938 75.3198 30.4995 75.9351 29.1108V18.7354H78.374V33H76.0537L76.001 31.5894ZM94.9722 33.2637C92.8804 33.2637 91.1753 32.6221 89.8569 31.3389C88.5474 30.0557 87.8926 28.3462 87.8926 26.2104V25.8413C87.8926 24.4087 88.1694 23.1299 88.7231 22.0049C89.2769 20.8711 90.0591 20.001 91.0698 19.3945C92.0894 18.7793 93.2495 18.4717 94.5503 18.4717C96.5015 18.4717 98.0352 19.0869 99.1514 20.3174C100.276 21.5479 100.839 23.2925 100.839 25.5513V27.1069H91.7554C91.8784 28.0386 92.2476 28.7856 92.8628 29.3481C93.4868 29.9106 94.2734 30.1919 95.2227 30.1919C96.6904 30.1919 97.8374 29.6602 98.6636 28.5967L100.536 30.6929C99.9644 31.5015 99.1909 32.1343 98.2153 32.5913C97.2397 33.0396 96.1587 33.2637 94.9722 33.2637ZM94.5371 21.5566C93.7812 21.5566 93.166 21.8115 92.6914 22.3213C92.2256 22.8311 91.9268 23.5605 91.7949 24.5098H97.0947V24.2065C97.0771 23.3628 96.8486 22.7124 96.4092 22.2554C95.9697 21.7896 95.3457 21.5566 94.5371 21.5566ZM106.521 18.7354L106.64 20.3833C107.659 19.1089 109.026 18.4717 110.74 18.4717C112.251 18.4717 113.376 18.9155 114.115 19.8032C114.853 20.6909 115.231 22.0181 115.249 23.7847V33H111.438V23.877C111.438 23.0684 111.263 22.4839 110.911 22.1235C110.56 21.7544 109.975 21.5698 109.158 21.5698C108.085 21.5698 107.281 22.0269 106.745 22.9409V33H102.935V18.7354H106.521ZM117.595 25.7622C117.595 23.5737 118.114 21.8115 119.151 20.4756C120.197 19.1396 121.603 18.4717 123.37 18.4717C124.934 18.4717 126.151 19.0078 127.021 20.0801L127.18 18.7354H130.634V32.5254C130.634 33.7734 130.348 34.8589 129.777 35.7817C129.214 36.7046 128.419 37.4077 127.391 37.8911C126.362 38.3745 125.158 38.6162 123.778 38.6162C122.732 38.6162 121.713 38.4053 120.72 37.9834C119.727 37.5703 118.975 37.0342 118.465 36.375L120.153 34.0547C121.102 35.1182 122.253 35.6499 123.607 35.6499C124.618 35.6499 125.404 35.3774 125.967 34.8325C126.529 34.2964 126.811 33.5317 126.811 32.5386V31.7739C125.932 32.7671 124.776 33.2637 123.343 33.2637C121.629 33.2637 120.241 32.5957 119.177 31.2598C118.123 29.915 117.595 28.1353 117.595 25.9204V25.7622ZM121.405 26.0391C121.405 27.3311 121.665 28.3462 122.183 29.0845C122.702 29.814 123.414 30.1787 124.319 30.1787C125.479 30.1787 126.31 29.7437 126.811 28.8735V22.875C126.301 22.0049 125.479 21.5698 124.345 21.5698C123.431 21.5698 122.71 21.9434 122.183 22.6904C121.665 23.4375 121.405 24.5537 121.405 26.0391ZM141.84 33C141.664 32.6572 141.537 32.231 141.458 31.7212C140.535 32.7495 139.335 33.2637 137.858 33.2637C136.461 33.2637 135.301 32.8594 134.378 32.0508C133.464 31.2422 133.007 30.2227 133.007 28.9922C133.007 27.4805 133.565 26.3203 134.681 25.5117C135.806 24.7031 137.428 24.2944 139.546 24.2856H141.299V23.4683C141.299 22.8091 141.128 22.2817 140.785 21.8862C140.451 21.4907 139.919 21.293 139.19 21.293C138.548 21.293 138.043 21.4468 137.674 21.7544C137.313 22.062 137.133 22.4839 137.133 23.02H133.323C133.323 22.1938 133.578 21.4292 134.088 20.7261C134.598 20.0229 135.318 19.4736 136.25 19.0781C137.182 18.6738 138.228 18.4717 139.388 18.4717C141.146 18.4717 142.539 18.9155 143.567 19.8032C144.604 20.6821 145.123 21.9214 145.123 23.521V29.7041C145.131 31.0576 145.32 32.0815 145.689 32.7759V33H141.84ZM138.689 30.3501C139.251 30.3501 139.77 30.2271 140.245 29.981C140.719 29.7261 141.071 29.3877 141.299 28.9658V26.5137H139.875C137.968 26.5137 136.953 27.1729 136.83 28.4912L136.817 28.7153C136.817 29.1899 136.984 29.5811 137.318 29.8887C137.652 30.1963 138.109 30.3501 138.689 30.3501ZM152.083 18.7354V33.7778C152.083 35.3511 151.666 36.5728 150.831 37.4429C149.996 38.3218 148.792 38.7612 147.219 38.7612C146.56 38.7612 145.931 38.6865 145.333 38.5371V35.5181C145.791 35.5972 146.19 35.6367 146.533 35.6367C147.685 35.6367 148.26 35.0259 148.26 33.8042V18.7354H152.083ZM147.957 15.0439C147.957 14.4727 148.146 14.0024 148.524 13.6333C148.911 13.2642 149.434 13.0796 150.093 13.0796C150.752 13.0796 151.271 13.2642 151.648 13.6333C152.035 14.0024 152.229 14.4727 152.229 15.0439C152.229 15.624 152.031 16.0986 151.635 16.4678C151.249 16.8369 150.734 17.0215 150.093 17.0215C149.451 17.0215 148.933 16.8369 148.537 16.4678C148.15 16.0986 147.957 15.624 147.957 15.0439ZM163.329 33C163.153 32.6572 163.026 32.231 162.947 31.7212C162.024 32.7495 160.824 33.2637 159.348 33.2637C157.95 33.2637 156.79 32.8594 155.867 32.0508C154.953 31.2422 154.496 30.2227 154.496 28.9922C154.496 27.4805 155.054 26.3203 156.17 25.5117C157.295 24.7031 158.917 24.2944 161.035 24.2856H162.789V23.4683C162.789 22.8091 162.617 22.2817 162.274 21.8862C161.94 21.4907 161.409 21.293 160.679 21.293C160.038 21.293 159.532 21.4468 159.163 21.7544C158.803 22.062 158.623 22.4839 158.623 23.02H154.812C154.812 22.1938 155.067 21.4292 155.577 20.7261C156.087 20.0229 156.808 19.4736 157.739 19.0781C158.671 18.6738 159.717 18.4717 160.877 18.4717C162.635 18.4717 164.028 18.9155 165.056 19.8032C166.093 20.6821 166.612 21.9214 166.612 23.521V29.7041C166.621 31.0576 166.81 32.0815 167.179 32.7759V33H163.329ZM160.178 30.3501C160.741 30.3501 161.259 30.2271 161.734 29.981C162.208 29.7261 162.56 29.3877 162.789 28.9658V26.5137H161.365C159.458 26.5137 158.442 27.1729 158.319 28.4912L158.306 28.7153C158.306 29.1899 158.473 29.5811 158.807 29.8887C159.141 30.1963 159.598 30.3501 160.178 30.3501ZM173.111 18.7354L173.23 20.3306C174.241 19.0913 175.607 18.4717 177.33 18.4717C179.167 18.4717 180.428 19.1968 181.114 20.647C182.116 19.1968 183.544 18.4717 185.398 18.4717C186.945 18.4717 188.097 18.9243 188.853 19.8296C189.608 20.7261 189.986 22.0796 189.986 23.8901V33H186.163V23.9033C186.163 23.0947 186.005 22.5059 185.688 22.1367C185.372 21.7588 184.814 21.5698 184.014 21.5698C182.872 21.5698 182.081 22.1147 181.641 23.2046L181.654 33H177.844V23.9165C177.844 23.0903 177.682 22.4927 177.356 22.1235C177.031 21.7544 176.478 21.5698 175.695 21.5698C174.614 21.5698 173.832 22.0181 173.349 22.9146V33H169.539V18.7354H173.111ZM199.492 33.2637C197.4 33.2637 195.695 32.6221 194.376 31.3389C193.067 30.0557 192.412 28.3462 192.412 26.2104V25.8413C192.412 24.4087 192.689 23.1299 193.243 22.0049C193.796 20.8711 194.579 20.001 195.589 19.3945C196.609 18.7793 197.769 18.4717 199.07 18.4717C201.021 18.4717 202.555 19.0869 203.671 20.3174C204.796 21.5479 205.358 23.2925 205.358 25.5513V27.1069H196.275C196.398 28.0386 196.767 28.7856 197.382 29.3481C198.006 29.9106 198.793 30.1919 199.742 30.1919C201.21 30.1919 202.357 29.6602 203.183 28.5967L205.055 30.6929C204.484 31.5015 203.71 32.1343 202.735 32.5913C201.759 33.0396 200.678 33.2637 199.492 33.2637ZM199.057 21.5566C198.301 21.5566 197.686 21.8115 197.211 22.3213C196.745 22.8311 196.446 23.5605 196.314 24.5098H201.614V24.2065C201.597 23.3628 201.368 22.7124 200.929 22.2554C200.489 21.7896 199.865 21.5566 199.057 21.5566ZM211.041 18.7354L211.159 20.3833C212.179 19.1089 213.545 18.4717 215.259 18.4717C216.771 18.4717 217.896 18.9155 218.634 19.8032C219.373 20.6909 219.75 22.0181 219.768 23.7847V33H215.958V23.877C215.958 23.0684 215.782 22.4839 215.431 22.1235C215.079 21.7544 214.495 21.5698 213.677 21.5698C212.605 21.5698 211.801 22.0269 211.265 22.9409V33H207.455V18.7354H211.041ZM227.23 15.2285V18.7354H229.669V21.5303H227.23V28.6494C227.23 29.1768 227.331 29.5547 227.533 29.7832C227.735 30.0117 228.122 30.126 228.693 30.126C229.115 30.126 229.489 30.0952 229.814 30.0337V32.9209C229.067 33.1494 228.298 33.2637 227.507 33.2637C224.835 33.2637 223.473 31.9146 223.42 29.2163V21.5303H221.337V18.7354H223.42V15.2285H227.23ZM230.803 25.7358C230.803 24.3208 231.075 23.0596 231.62 21.9521C232.165 20.8447 232.947 19.9878 233.967 19.3813C234.995 18.7749 236.186 18.4717 237.54 18.4717C239.464 18.4717 241.033 19.0605 242.246 20.2383C243.468 21.416 244.149 23.0156 244.29 25.0371L244.316 26.0127C244.316 28.2012 243.705 29.959 242.483 31.2861C241.262 32.6045 239.623 33.2637 237.566 33.2637C235.509 33.2637 233.866 32.6045 232.635 31.2861C231.414 29.9678 230.803 28.1748 230.803 25.9072V25.7358ZM234.613 26.0127C234.613 27.3662 234.868 28.4033 235.377 29.124C235.887 29.8359 236.617 30.1919 237.566 30.1919C238.489 30.1919 239.209 29.8403 239.728 29.1372C240.247 28.4253 240.506 27.2915 240.506 25.7358C240.506 24.4087 240.247 23.3804 239.728 22.6509C239.209 21.9214 238.48 21.5566 237.54 21.5566C236.608 21.5566 235.887 21.9214 235.377 22.6509C234.868 23.3716 234.613 24.4922 234.613 26.0127ZM42.8838 56.4438C40.7129 55.8198 39.1309 55.0552 38.1377 54.1499C37.1533 53.2358 36.6611 52.1108 36.6611 50.7749C36.6611 49.2632 37.2632 48.0151 38.4673 47.0308C39.6802 46.0376 41.2534 45.541 43.187 45.541C44.5054 45.541 45.6787 45.7959 46.707 46.3057C47.7441 46.8154 48.5439 47.5186 49.1064 48.415C49.6777 49.3115 49.9634 50.2915 49.9634 51.355H47.4189C47.4189 50.1948 47.0498 49.2852 46.3115 48.626C45.5732 47.958 44.5317 47.624 43.187 47.624C41.939 47.624 40.9634 47.9009 40.2603 48.4546C39.5659 48.9995 39.2188 49.7598 39.2188 50.7354C39.2188 51.5176 39.5483 52.1812 40.2075 52.7261C40.8755 53.2622 42.0049 53.7544 43.5957 54.2026C45.1953 54.6509 46.4434 55.1475 47.3398 55.6924C48.2451 56.2285 48.9131 56.8569 49.3438 57.5776C49.7832 58.2983 50.0029 59.1465 50.0029 60.1221C50.0029 61.6777 49.3965 62.9258 48.1836 63.8662C46.9707 64.7979 45.3491 65.2637 43.3188 65.2637C42.0005 65.2637 40.77 65.0132 39.6274 64.5122C38.4849 64.0024 37.6016 63.3081 36.9775 62.4292C36.3623 61.5503 36.0547 60.5527 36.0547 59.4365H38.5991C38.5991 60.5967 39.0254 61.5151 39.8779 62.1919C40.7393 62.8599 41.8862 63.1938 43.3188 63.1938C44.6548 63.1938 45.6787 62.9214 46.3906 62.3765C47.1025 61.8315 47.4585 61.0889 47.4585 60.1484C47.4585 59.208 47.1289 58.4829 46.4697 57.9731C45.8105 57.4546 44.6152 56.9448 42.8838 56.4438ZM61.6836 63.5894C60.7344 64.7056 59.3413 65.2637 57.5044 65.2637C55.9839 65.2637 54.8237 64.8242 54.0239 63.9453C53.2329 63.0576 52.833 61.748 52.8242 60.0166V50.7354H55.2632V59.9507C55.2632 62.1128 56.1421 63.1938 57.8999 63.1938C59.7632 63.1938 61.0024 62.4995 61.6177 61.1108V50.7354H64.0566V65H61.7363L61.6836 63.5894ZM76.5811 65C76.4404 64.7188 76.3262 64.2178 76.2383 63.4971C75.1045 64.6748 73.751 65.2637 72.1777 65.2637C70.7715 65.2637 69.6157 64.8682 68.7104 64.0771C67.814 63.2773 67.3657 62.2666 67.3657 61.0449C67.3657 59.5596 67.9282 58.4082 69.0532 57.5908C70.187 56.7646 71.7778 56.3516 73.8257 56.3516H76.1987V55.231C76.1987 54.3784 75.9438 53.7017 75.4341 53.2007C74.9243 52.6909 74.1729 52.436 73.1797 52.436C72.3096 52.436 71.5801 52.6558 70.9912 53.0952C70.4023 53.5347 70.1079 54.0664 70.1079 54.6904H67.6558C67.6558 53.9785 67.9062 53.293 68.4072 52.6338C68.917 51.9658 69.6025 51.4385 70.4639 51.0518C71.334 50.665 72.2876 50.4717 73.3247 50.4717C74.9683 50.4717 76.2559 50.8848 77.1875 51.7109C78.1191 52.5283 78.6025 53.6577 78.6377 55.0991V61.6646C78.6377 62.9741 78.8047 64.0156 79.1387 64.7891V65H76.5811ZM72.5337 63.1411C73.2983 63.1411 74.0234 62.9434 74.709 62.5479C75.3945 62.1523 75.8911 61.6382 76.1987 61.0054V58.0786H74.2871C71.2988 58.0786 69.8047 58.9531 69.8047 60.7021C69.8047 61.4668 70.0596 62.0645 70.5693 62.4951C71.0791 62.9258 71.7339 63.1411 72.5337 63.1411ZM94.7085 62.1919C95.4116 62.1919 95.9829 61.9985 96.4224 61.6118C96.8618 61.2251 97.0903 60.7109 97.1079 60.0693H100.681C100.672 61.0361 100.408 61.9238 99.8896 62.7324C99.3711 63.5322 98.6592 64.1562 97.7539 64.6045C96.8574 65.0439 95.8643 65.2637 94.7744 65.2637C92.7354 65.2637 91.127 64.6177 89.9492 63.3257C88.7715 62.0249 88.1826 60.2319 88.1826 57.9468V57.6963C88.1826 55.499 88.7671 53.7456 89.936 52.436C91.105 51.1265 92.709 50.4717 94.748 50.4717C96.5322 50.4717 97.9604 50.9814 99.0327 52.001C100.114 53.0117 100.663 54.3608 100.681 56.0483H97.1079C97.0903 55.3101 96.8618 54.7124 96.4224 54.2554C95.9829 53.7896 95.4028 53.5566 94.6821 53.5566C93.7944 53.5566 93.1221 53.8818 92.665 54.5322C92.2168 55.1738 91.9927 56.2197 91.9927 57.6699V58.0654C91.9927 59.5332 92.2168 60.5879 92.665 61.2295C93.1133 61.8711 93.7944 62.1919 94.7085 62.1919ZM102.263 57.7358C102.263 56.3208 102.535 55.0596 103.08 53.9521C103.625 52.8447 104.407 51.9878 105.427 51.3813C106.455 50.7749 107.646 50.4717 109 50.4717C110.924 50.4717 112.493 51.0605 113.706 52.2383C114.928 53.416 115.609 55.0156 115.75 57.0371L115.776 58.0127C115.776 60.2012 115.165 61.959 113.943 63.2861C112.722 64.6045 111.083 65.2637 109.026 65.2637C106.969 65.2637 105.326 64.6045 104.095 63.2861C102.874 61.9678 102.263 60.1748 102.263 57.9072V57.7358ZM106.073 58.0127C106.073 59.3662 106.328 60.4033 106.837 61.124C107.347 61.8359 108.077 62.1919 109.026 62.1919C109.949 62.1919 110.669 61.8403 111.188 61.1372C111.707 60.4253 111.966 59.2915 111.966 57.7358C111.966 56.4087 111.707 55.3804 111.188 54.6509C110.669 53.9214 109.94 53.5566 109 53.5566C108.068 53.5566 107.347 53.9214 106.837 54.6509C106.328 55.3716 106.073 56.4922 106.073 58.0127ZM121.629 50.7354L121.748 52.3833C122.768 51.1089 124.134 50.4717 125.848 50.4717C127.36 50.4717 128.485 50.9155 129.223 51.8032C129.961 52.6909 130.339 54.0181 130.357 55.7847V65H126.547V55.877C126.547 55.0684 126.371 54.4839 126.02 54.1235C125.668 53.7544 125.083 53.5698 124.266 53.5698C123.194 53.5698 122.39 54.0269 121.854 54.9409V65H118.043V50.7354H121.629ZM140.983 61.0581C140.983 60.5923 140.75 60.2275 140.284 59.9639C139.827 59.6914 139.089 59.4497 138.069 59.2388C134.677 58.5269 132.98 57.0854 132.98 54.9146C132.98 53.6489 133.503 52.5942 134.549 51.7505C135.604 50.8979 136.979 50.4717 138.676 50.4717C140.486 50.4717 141.932 50.8979 143.013 51.7505C144.103 52.603 144.648 53.7104 144.648 55.0728H140.838C140.838 54.5278 140.662 54.0796 140.311 53.728C139.959 53.3677 139.41 53.1875 138.663 53.1875C138.021 53.1875 137.524 53.3325 137.173 53.6226C136.821 53.9126 136.646 54.2817 136.646 54.73C136.646 55.1519 136.843 55.4946 137.239 55.7583C137.643 56.0132 138.32 56.2373 139.269 56.4307C140.218 56.6152 141.018 56.8262 141.668 57.0635C143.681 57.8018 144.688 59.0806 144.688 60.8999C144.688 62.2007 144.129 63.2554 143.013 64.064C141.897 64.8638 140.456 65.2637 138.689 65.2637C137.494 65.2637 136.43 65.0527 135.499 64.6309C134.576 64.2002 133.851 63.6157 133.323 62.8774C132.796 62.1304 132.532 61.3262 132.532 60.4648H136.145C136.18 61.1416 136.43 61.6602 136.896 62.0205C137.362 62.3809 137.986 62.561 138.768 62.561C139.498 62.561 140.047 62.4248 140.416 62.1523C140.794 61.8711 140.983 61.5063 140.983 61.0581ZM151.174 65H147.351V50.7354H151.174V65ZM147.126 47.0439C147.126 46.4727 147.315 46.0024 147.693 45.6333C148.08 45.2642 148.603 45.0796 149.262 45.0796C149.913 45.0796 150.431 45.2642 150.818 45.6333C151.205 46.0024 151.398 46.4727 151.398 47.0439C151.398 47.624 151.2 48.0986 150.805 48.4678C150.418 48.8369 149.904 49.0215 149.262 49.0215C148.621 49.0215 148.102 48.8369 147.707 48.4678C147.32 48.0986 147.126 47.624 147.126 47.0439ZM162.05 61.0581C162.05 60.5923 161.817 60.2275 161.352 59.9639C160.895 59.6914 160.156 59.4497 159.137 59.2388C155.744 58.5269 154.048 57.0854 154.048 54.9146C154.048 53.6489 154.571 52.5942 155.617 51.7505C156.671 50.8979 158.047 50.4717 159.743 50.4717C161.554 50.4717 163 50.8979 164.081 51.7505C165.17 52.603 165.715 53.7104 165.715 55.0728H161.905C161.905 54.5278 161.729 54.0796 161.378 53.728C161.026 53.3677 160.477 53.1875 159.73 53.1875C159.088 53.1875 158.592 53.3325 158.24 53.6226C157.889 53.9126 157.713 54.2817 157.713 54.73C157.713 55.1519 157.911 55.4946 158.306 55.7583C158.71 56.0132 159.387 56.2373 160.336 56.4307C161.286 56.6152 162.085 56.8262 162.736 57.0635C164.749 57.8018 165.755 59.0806 165.755 60.8999C165.755 62.2007 165.197 63.2554 164.081 64.064C162.964 64.8638 161.523 65.2637 159.756 65.2637C158.561 65.2637 157.498 65.0527 156.566 64.6309C155.643 64.2002 154.918 63.6157 154.391 62.8774C153.863 62.1304 153.6 61.3262 153.6 60.4648H157.212C157.247 61.1416 157.498 61.6602 157.963 62.0205C158.429 62.3809 159.053 62.561 159.835 62.561C160.565 62.561 161.114 62.4248 161.483 62.1523C161.861 61.8711 162.05 61.5063 162.05 61.0581ZM172.782 47.2285V50.7354H175.221V53.5303H172.782V60.6494C172.782 61.1768 172.883 61.5547 173.085 61.7832C173.287 62.0117 173.674 62.126 174.245 62.126C174.667 62.126 175.041 62.0952 175.366 62.0337V64.9209C174.619 65.1494 173.85 65.2637 173.059 65.2637C170.387 65.2637 169.024 63.9146 168.972 61.2163V53.5303H166.889V50.7354H168.972V47.2285H172.782ZM183.909 65.2637C181.817 65.2637 180.112 64.6221 178.793 63.3389C177.484 62.0557 176.829 60.3462 176.829 58.2104V57.8413C176.829 56.4087 177.106 55.1299 177.66 54.0049C178.213 52.8711 178.996 52.001 180.006 51.3945C181.026 50.7793 182.186 50.4717 183.487 50.4717C185.438 50.4717 186.972 51.0869 188.088 52.3174C189.213 53.5479 189.775 55.2925 189.775 57.5513V59.1069H180.692C180.815 60.0386 181.184 60.7856 181.799 61.3481C182.423 61.9106 183.21 62.1919 184.159 62.1919C185.627 62.1919 186.774 61.6602 187.6 60.5967L189.472 62.6929C188.901 63.5015 188.127 64.1343 187.152 64.5913C186.176 65.0396 185.095 65.2637 183.909 65.2637ZM183.474 53.5566C182.718 53.5566 182.103 53.8115 181.628 54.3213C181.162 54.8311 180.863 55.5605 180.731 56.5098H186.031V56.2065C186.014 55.3628 185.785 54.7124 185.346 54.2554C184.906 53.7896 184.282 53.5566 183.474 53.5566ZM188.114 48.4414V48.5996H185.082L183.052 46.688L181.021 48.5996H178.042V48.3887L181.944 44.75H184.159L188.114 48.4414ZM195.458 50.7354L195.576 52.3833C196.596 51.1089 197.962 50.4717 199.676 50.4717C201.188 50.4717 202.313 50.9155 203.051 51.8032C203.79 52.6909 204.167 54.0181 204.185 55.7847V65H200.375V55.877C200.375 55.0684 200.199 54.4839 199.848 54.1235C199.496 53.7544 198.912 53.5698 198.094 53.5698C197.022 53.5698 196.218 54.0269 195.682 54.9409V65H191.872V50.7354H195.458ZM213.018 62.1919C213.721 62.1919 214.292 61.9985 214.732 61.6118C215.171 61.2251 215.4 60.7109 215.417 60.0693H218.99C218.981 61.0361 218.718 61.9238 218.199 62.7324C217.681 63.5322 216.969 64.1562 216.063 64.6045C215.167 65.0439 214.174 65.2637 213.084 65.2637C211.045 65.2637 209.437 64.6177 208.259 63.3257C207.081 62.0249 206.492 60.2319 206.492 57.9468V57.6963C206.492 55.499 207.077 53.7456 208.246 52.436C209.415 51.1265 211.019 50.4717 213.058 50.4717C214.842 50.4717 216.27 50.9814 217.342 52.001C218.423 53.0117 218.973 54.3608 218.99 56.0483H215.417C215.4 55.3101 215.171 54.7124 214.732 54.2554C214.292 53.7896 213.712 53.5566 212.992 53.5566C212.104 53.5566 211.432 53.8818 210.975 54.5322C210.526 55.1738 210.302 56.2197 210.302 57.6699V58.0654C210.302 59.5332 210.526 60.5879 210.975 61.2295C211.423 61.8711 212.104 62.1919 213.018 62.1919ZM225.187 65H221.363V50.7354H225.187V65ZM221.139 47.0439C221.139 46.4727 221.328 46.0024 221.706 45.6333C222.093 45.2642 222.616 45.0796 223.275 45.0796C223.925 45.0796 224.444 45.2642 224.831 45.6333C225.217 46.0024 225.411 46.4727 225.411 47.0439C225.411 47.624 225.213 48.0986 224.817 48.4678C224.431 48.8369 223.917 49.0215 223.275 49.0215C222.633 49.0215 222.115 48.8369 221.719 48.4678C221.333 48.0986 221.139 47.624 221.139 47.0439ZM236.604 65C236.428 64.6572 236.3 64.231 236.221 63.7212C235.298 64.7495 234.099 65.2637 232.622 65.2637C231.225 65.2637 230.064 64.8594 229.142 64.0508C228.228 63.2422 227.771 62.2227 227.771 60.9922C227.771 59.4805 228.329 58.3203 229.445 57.5117C230.57 56.7031 232.191 56.2944 234.31 56.2856H236.063V55.4683C236.063 54.8091 235.892 54.2817 235.549 53.8862C235.215 53.4907 234.683 53.293 233.954 53.293C233.312 53.293 232.807 53.4468 232.438 53.7544C232.077 54.062 231.897 54.4839 231.897 55.02H228.087C228.087 54.1938 228.342 53.4292 228.852 52.7261C229.361 52.0229 230.082 51.4736 231.014 51.0781C231.945 50.6738 232.991 50.4717 234.151 50.4717C235.909 50.4717 237.302 50.9155 238.331 51.8032C239.368 52.6821 239.886 53.9214 239.886 55.521V61.7041C239.895 63.0576 240.084 64.0815 240.453 64.7759V65H236.604ZM233.453 62.3501C234.015 62.3501 234.534 62.2271 235.008 61.981C235.483 61.7261 235.834 61.3877 236.063 60.9658V58.5137H234.639C232.732 58.5137 231.717 59.1729 231.594 60.4912L231.581 60.7153C231.581 61.1899 231.748 61.5811 232.082 61.8887C232.416 62.1963 232.873 62.3501 233.453 62.3501ZM42.8838 88.4438C40.7129 87.8198 39.1309 87.0552 38.1377 86.1499C37.1533 85.2358 36.6611 84.1108 36.6611 82.7749C36.6611 81.2632 37.2632 80.0151 38.4673 79.0308C39.6802 78.0376 41.2534 77.541 43.187 77.541C44.5054 77.541 45.6787 77.7959 46.707 78.3057C47.7441 78.8154 48.5439 79.5186 49.1064 80.415C49.6777 81.3115 49.9634 82.2915 49.9634 83.355H47.4189C47.4189 82.1948 47.0498 81.2852 46.3115 80.626C45.5732 79.958 44.5317 79.624 43.187 79.624C41.939 79.624 40.9634 79.9009 40.2603 80.4546C39.5659 80.9995 39.2188 81.7598 39.2188 82.7354C39.2188 83.5176 39.5483 84.1812 40.2075 84.7261C40.8755 85.2622 42.0049 85.7544 43.5957 86.2026C45.1953 86.6509 46.4434 87.1475 47.3398 87.6924C48.2451 88.2285 48.9131 88.8569 49.3438 89.5776C49.7832 90.2983 50.0029 91.1465 50.0029 92.1221C50.0029 93.6777 49.3965 94.9258 48.1836 95.8662C46.9707 96.7979 45.3491 97.2637 43.3188 97.2637C42.0005 97.2637 40.77 97.0132 39.6274 96.5122C38.4849 96.0024 37.6016 95.3081 36.9775 94.4292C36.3623 93.5503 36.0547 92.5527 36.0547 91.4365H38.5991C38.5991 92.5967 39.0254 93.5151 39.8779 94.1919C40.7393 94.8599 41.8862 95.1938 43.3188 95.1938C44.6548 95.1938 45.6787 94.9214 46.3906 94.3765C47.1025 93.8315 47.4585 93.0889 47.4585 92.1484C47.4585 91.208 47.1289 90.4829 46.4697 89.9731C45.8105 89.4546 44.6152 88.9448 42.8838 88.4438ZM58.7964 97.2637C56.8628 97.2637 55.2896 96.6309 54.0767 95.3652C52.8638 94.0908 52.2573 92.3901 52.2573 90.2632V89.8149C52.2573 88.3999 52.5254 87.1387 53.0615 86.0312C53.6064 84.915 54.3623 84.0449 55.3291 83.4209C56.3047 82.7881 57.3594 82.4717 58.4932 82.4717C60.3477 82.4717 61.7891 83.0825 62.8174 84.3042C63.8457 85.5259 64.3599 87.2749 64.3599 89.5513V90.5664H54.6963C54.7314 91.9727 55.1401 93.1108 55.9224 93.981C56.7134 94.8423 57.7153 95.2729 58.9282 95.2729C59.7896 95.2729 60.519 95.0972 61.1167 94.7456C61.7144 94.394 62.2373 93.9282 62.6855 93.3481L64.1753 94.5083C62.98 96.3452 61.187 97.2637 58.7964 97.2637ZM58.4932 84.4756C57.5088 84.4756 56.6826 84.8359 56.0146 85.5566C55.3467 86.2686 54.9336 87.2705 54.7754 88.5625H61.9209V88.3779C61.8506 87.1387 61.5166 86.1807 60.9189 85.5039C60.3213 84.8184 59.5127 84.4756 58.4932 84.4756ZM76.001 95.5894C75.0518 96.7056 73.6587 97.2637 71.8218 97.2637C70.3013 97.2637 69.1411 96.8242 68.3413 95.9453C67.5503 95.0576 67.1504 93.748 67.1416 92.0166V82.7354H69.5806V91.9507C69.5806 94.1128 70.4595 95.1938 72.2173 95.1938C74.0806 95.1938 75.3198 94.4995 75.9351 93.1108V82.7354H78.374V97H76.0537L76.001 95.5894ZM90.3975 93.2163C90.3975 92.5571 90.147 92.0474 89.646 91.687C89.1538 91.3179 88.2881 91.0015 87.0488 90.7378C85.8184 90.4741 84.8384 90.1577 84.1089 89.7886C83.3882 89.4194 82.8521 88.98 82.5005 88.4702C82.1577 87.9604 81.9863 87.354 81.9863 86.6509C81.9863 85.4819 82.4785 84.4932 83.4629 83.6846C84.4561 82.876 85.7217 82.4717 87.2598 82.4717C88.877 82.4717 90.1865 82.8892 91.1885 83.7241C92.1992 84.5591 92.7046 85.627 92.7046 86.9277H90.2524C90.2524 86.2598 89.9668 85.6841 89.3955 85.2007C88.833 84.7173 88.1211 84.4756 87.2598 84.4756C86.3721 84.4756 85.6777 84.6689 85.1768 85.0557C84.6758 85.4424 84.4253 85.9478 84.4253 86.5718C84.4253 87.1606 84.6582 87.6045 85.124 87.9033C85.5898 88.2021 86.4292 88.4878 87.6421 88.7603C88.8638 89.0327 89.8525 89.3579 90.6084 89.7358C91.3643 90.1138 91.9224 90.5708 92.2827 91.1069C92.6519 91.6343 92.8364 92.2803 92.8364 93.0449C92.8364 94.3193 92.3267 95.3433 91.3071 96.1167C90.2876 96.8813 88.9648 97.2637 87.3389 97.2637C86.1963 97.2637 85.1855 97.0615 84.3066 96.6572C83.4277 96.2529 82.7378 95.6904 82.2368 94.9697C81.7446 94.2402 81.4985 93.4536 81.4985 92.6099H83.9375C83.9814 93.4272 84.3066 94.0776 84.9131 94.561C85.5283 95.0356 86.3369 95.2729 87.3389 95.2729C88.2617 95.2729 89 95.0884 89.5537 94.7192C90.1162 94.3413 90.3975 93.8403 90.3975 93.2163ZM101.735 89.7622C101.735 87.5386 102.232 85.7676 103.225 84.4492C104.227 83.1309 105.594 82.4717 107.325 82.4717C108.714 82.4717 109.861 82.9902 110.766 84.0273V76.75H114.589V97H111.148L110.964 95.4839C110.015 96.6704 108.793 97.2637 107.299 97.2637C105.62 97.2637 104.271 96.6045 103.251 95.2861C102.241 93.959 101.735 92.1177 101.735 89.7622ZM105.545 90.0391C105.545 91.375 105.778 92.3989 106.244 93.1108C106.71 93.8228 107.387 94.1787 108.274 94.1787C109.452 94.1787 110.283 93.6821 110.766 92.689V87.0596C110.292 86.0664 109.47 85.5698 108.301 85.5698C106.464 85.5698 105.545 87.0596 105.545 90.0391ZM124.108 97.2637C122.016 97.2637 120.311 96.6221 118.993 95.3389C117.683 94.0557 117.028 92.3462 117.028 90.2104V89.8413C117.028 88.4087 117.305 87.1299 117.859 86.0049C118.413 84.8711 119.195 84.001 120.206 83.3945C121.225 82.7793 122.385 82.4717 123.686 82.4717C125.637 82.4717 127.171 83.0869 128.287 84.3174C129.412 85.5479 129.975 87.2925 129.975 89.5513V91.1069H120.891C121.014 92.0386 121.383 92.7856 121.999 93.3481C122.623 93.9106 123.409 94.1919 124.358 94.1919C125.826 94.1919 126.973 93.6602 127.799 92.5967L129.671 94.6929C129.1 95.5015 128.327 96.1343 127.351 96.5913C126.375 97.0396 125.294 97.2637 124.108 97.2637ZM123.673 85.5566C122.917 85.5566 122.302 85.8115 121.827 86.3213C121.361 86.8311 121.062 87.5605 120.931 88.5098H126.23V88.2065C126.213 87.3628 125.984 86.7124 125.545 86.2554C125.105 85.7896 124.481 85.5566 123.673 85.5566ZM139.875 93.0581C139.875 92.5923 139.643 92.2275 139.177 91.9639C138.72 91.6914 137.981 91.4497 136.962 91.2388C133.569 90.5269 131.873 89.0854 131.873 86.9146C131.873 85.6489 132.396 84.5942 133.442 83.7505C134.497 82.8979 135.872 82.4717 137.568 82.4717C139.379 82.4717 140.825 82.8979 141.906 83.7505C142.996 84.603 143.541 85.7104 143.541 87.0728H139.73C139.73 86.5278 139.555 86.0796 139.203 85.728C138.852 85.3677 138.302 85.1875 137.555 85.1875C136.914 85.1875 136.417 85.3325 136.065 85.6226C135.714 85.9126 135.538 86.2817 135.538 86.73C135.538 87.1519 135.736 87.4946 136.131 87.7583C136.536 88.0132 137.212 88.2373 138.162 88.4307C139.111 88.6152 139.911 88.8262 140.561 89.0635C142.574 89.8018 143.58 91.0806 143.58 92.8999C143.58 94.2007 143.022 95.2554 141.906 96.064C140.79 96.8638 139.348 97.2637 137.582 97.2637C136.386 97.2637 135.323 97.0527 134.391 96.6309C133.468 96.2002 132.743 95.6157 132.216 94.8774C131.688 94.1304 131.425 93.3262 131.425 92.4648H135.037C135.072 93.1416 135.323 93.6602 135.789 94.0205C136.254 94.3809 136.878 94.561 137.661 94.561C138.39 94.561 138.939 94.4248 139.309 94.1523C139.687 93.8711 139.875 93.5063 139.875 93.0581ZM150.607 79.2285V82.7354H153.046V85.5303H150.607V92.6494C150.607 93.1768 150.708 93.5547 150.91 93.7832C151.112 94.0117 151.499 94.126 152.07 94.126C152.492 94.126 152.866 94.0952 153.191 94.0337V96.9209C152.444 97.1494 151.675 97.2637 150.884 97.2637C148.212 97.2637 146.85 95.9146 146.797 93.2163V85.5303H144.714V82.7354H146.797V79.2285H150.607ZM163.435 97C163.259 96.6572 163.131 96.231 163.052 95.7212C162.129 96.7495 160.93 97.2637 159.453 97.2637C158.056 97.2637 156.896 96.8594 155.973 96.0508C155.059 95.2422 154.602 94.2227 154.602 92.9922C154.602 91.4805 155.16 90.3203 156.276 89.5117C157.401 88.7031 159.022 88.2944 161.141 88.2856H162.894V87.4683C162.894 86.8091 162.723 86.2817 162.38 85.8862C162.046 85.4907 161.514 85.293 160.785 85.293C160.143 85.293 159.638 85.4468 159.269 85.7544C158.908 86.062 158.728 86.4839 158.728 87.02H154.918C154.918 86.1938 155.173 85.4292 155.683 84.7261C156.192 84.0229 156.913 83.4736 157.845 83.0781C158.776 82.6738 159.822 82.4717 160.982 82.4717C162.74 82.4717 164.133 82.9155 165.162 83.8032C166.199 84.6821 166.717 85.9214 166.717 87.521V93.7041C166.726 95.0576 166.915 96.0815 167.284 96.7759V97H163.435ZM160.284 94.3501C160.846 94.3501 161.365 94.2271 161.839 93.981C162.314 93.7261 162.666 93.3877 162.894 92.9658V90.5137H161.47C159.563 90.5137 158.548 91.1729 158.425 92.4912L158.412 92.7153C158.412 93.1899 158.579 93.5811 158.913 93.8887C159.247 94.1963 159.704 94.3501 160.284 94.3501ZM169.051 89.7358C169.051 87.4946 169.547 85.7236 170.541 84.4229C171.542 83.1221 172.914 82.4717 174.654 82.4717C176.183 82.4717 177.4 83.0562 178.306 84.2251L178.556 82.7354H181.905V102.484H178.082V95.7739C177.203 96.7671 176.051 97.2637 174.627 97.2637C172.931 97.2637 171.578 96.6045 170.567 95.2861C169.556 93.9678 169.051 92.1177 169.051 89.7358ZM172.861 90.0127C172.861 91.375 173.098 92.4121 173.573 93.124C174.056 93.8359 174.733 94.1919 175.603 94.1919C176.772 94.1919 177.598 93.7261 178.082 92.7944V86.9014C177.607 86.0049 176.79 85.5566 175.629 85.5566C174.75 85.5566 174.069 85.9126 173.586 86.6245C173.103 87.3364 172.861 88.4658 172.861 90.0127ZM193.454 95.5498C192.513 96.6924 191.212 97.2637 189.551 97.2637C188.022 97.2637 186.853 96.8242 186.044 95.9453C185.245 95.0664 184.836 93.7788 184.818 92.0825V82.7354H188.628V91.9507C188.628 93.436 189.305 94.1787 190.659 94.1787C191.951 94.1787 192.838 93.7305 193.322 92.834V82.7354H197.145V97H193.559L193.454 95.5498ZM206.584 97.2637C204.493 97.2637 202.788 96.6221 201.469 95.3389C200.16 94.0557 199.505 92.3462 199.505 90.2104V89.8413C199.505 88.4087 199.782 87.1299 200.335 86.0049C200.889 84.8711 201.671 84.001 202.682 83.3945C203.702 82.7793 204.862 82.4717 206.163 82.4717C208.114 82.4717 209.647 83.0869 210.764 84.3174C211.889 85.5479 212.451 87.2925 212.451 89.5513V91.1069H203.368C203.491 92.0386 203.86 92.7856 204.475 93.3481C205.099 93.9106 205.886 94.1919 206.835 94.1919C208.303 94.1919 209.45 93.6602 210.276 92.5967L212.148 94.6929C211.577 95.5015 210.803 96.1343 209.828 96.5913C208.852 97.0396 207.771 97.2637 206.584 97.2637ZM206.149 85.5566C205.394 85.5566 204.778 85.8115 204.304 86.3213C203.838 86.8311 203.539 87.5605 203.407 88.5098H208.707V88.2065C208.689 87.3628 208.461 86.7124 208.021 86.2554C207.582 85.7896 206.958 85.5566 206.149 85.5566ZM222.352 93.0581C222.352 92.5923 222.119 92.2275 221.653 91.9639C221.196 91.6914 220.458 91.4497 219.438 91.2388C216.046 90.5269 214.35 89.0854 214.35 86.9146C214.35 85.6489 214.873 84.5942 215.918 83.7505C216.973 82.8979 218.349 82.4717 220.045 82.4717C221.855 82.4717 223.301 82.8979 224.382 83.7505C225.472 84.603 226.017 85.7104 226.017 87.0728H222.207C222.207 86.5278 222.031 86.0796 221.68 85.728C221.328 85.3677 220.779 85.1875 220.032 85.1875C219.39 85.1875 218.894 85.3325 218.542 85.6226C218.19 85.9126 218.015 86.2817 218.015 86.73C218.015 87.1519 218.212 87.4946 218.608 87.7583C219.012 88.0132 219.689 88.2373 220.638 88.4307C221.587 88.6152 222.387 88.8262 223.038 89.0635C225.05 89.8018 226.057 91.0806 226.057 92.8999C226.057 94.2007 225.499 95.2554 224.382 96.064C223.266 96.8638 221.825 97.2637 220.058 97.2637C218.863 97.2637 217.799 97.0527 216.868 96.6309C215.945 96.2002 215.22 95.6157 214.692 94.8774C214.165 94.1304 213.901 93.3262 213.901 92.4648H217.514C217.549 93.1416 217.799 93.6602 218.265 94.0205C218.731 94.3809 219.355 94.561 220.137 94.561C220.867 94.561 221.416 94.4248 221.785 94.1523C222.163 93.8711 222.352 93.5063 222.352 93.0581Z" fill="black"/>
<g clip-path="url(#clip0)">
<path d="M12.2638 25.6361L8.28475 21.657L6.57617 23.3656L12.2638 29.0532L23.9931 17.3239L22.2845 15.6154L12.2638 25.6361Z" fill="black"/>
</g>
<path d="M13.0822 58.8331L9.10311 54.854L7.39453 56.5626L13.0822 62.2502L24.8114 50.521L23.1029 48.8124L13.0822 58.8331Z" fill="black"/>
<path d="M12.0822 93.8331L8.10311 89.854L6.39453 91.5626L12.0822 97.2502L23.8114 85.521L22.1029 83.8124L12.0822 93.8331Z" fill="black"/>
<defs>
<clipPath id="clip0">
<rect width="29" height="29" fill="white" transform="translate(1)"/>
</clipPath>
</defs>
</svg>
