<svg width="42" height="42" viewBox="0 0 42 42" fill="none" xmlns="http://www.w3.org/2000/svg">
<path fill-rule="evenodd" clip-rule="evenodd" d="M12.7983 1.8275C14.8093 1.73493 15.4504 1.71436 20.573 1.71436C25.6956 1.71436 26.3367 1.73664 28.346 1.8275C30.3552 1.91837 31.7267 2.23896 32.9268 2.70355C34.1834 3.17843 35.3235 3.92076 36.2664 4.88081C37.2265 5.822 37.9671 6.96035 38.4402 8.2187C38.9066 9.41877 39.2254 10.7903 39.318 12.7961C39.4106 14.8105 39.4312 15.4517 39.4312 20.5725C39.4312 25.6951 39.4089 26.3362 39.318 28.3472C39.2271 30.353 38.9066 31.7245 38.4402 32.9246C37.9671 34.1831 37.2252 35.3234 36.2664 36.2659C35.3235 37.226 34.1834 37.9666 32.9268 38.4398C31.7267 38.9061 30.3552 39.2249 28.3494 39.3175C26.3367 39.4101 25.6956 39.4307 20.573 39.4307C15.4504 39.4307 14.8093 39.4084 12.7983 39.3175C10.7925 39.2267 9.42097 38.9061 8.22091 38.4398C6.96242 37.9665 5.82219 37.2247 4.87959 36.2659C3.92019 35.3242 3.17775 34.1845 2.70404 32.9263C2.23944 31.7262 1.92057 30.3547 1.82799 28.3489C1.73542 26.3345 1.71484 25.6934 1.71484 20.5725C1.71484 15.4499 1.73713 14.8088 1.82799 12.7995C1.91885 10.7903 2.23944 9.41877 2.70404 8.2187C3.17845 6.96049 3.92145 5.82083 4.8813 4.8791C5.82256 3.9199 6.96165 3.17748 8.21919 2.70355C9.41926 2.23896 10.7908 1.92008 12.7966 1.8275H12.7983ZM28.1934 5.22197C26.2047 5.13111 25.6081 5.11225 20.573 5.11225C15.5379 5.11225 14.9413 5.13111 12.9526 5.22197C11.1131 5.30598 10.1153 5.61285 9.45012 5.87172C8.57064 6.2146 7.94146 6.6209 7.28143 7.28094C6.65576 7.88963 6.17425 8.63064 5.87221 9.44963C5.61334 10.1148 5.30647 11.1126 5.22246 12.9521C5.1316 14.9408 5.11274 15.5374 5.11274 20.5725C5.11274 25.6076 5.1316 26.2042 5.22246 28.1929C5.30647 30.0324 5.61334 31.0302 5.87221 31.6954C6.17394 32.5132 6.65568 33.2555 7.28143 33.8641C7.89003 34.4898 8.63236 34.9716 9.45012 35.2733C10.1153 35.5322 11.1131 35.839 12.9526 35.923C14.9413 36.0139 15.5362 36.0328 20.573 36.0328C25.6098 36.0328 26.2047 36.0139 28.1934 35.923C30.0329 35.839 31.0307 35.5322 31.6959 35.2733C32.5754 34.9304 33.2045 34.5241 33.8646 33.8641C34.4903 33.2555 34.9721 32.5132 35.2738 31.6954C35.5327 31.0302 35.8395 30.0324 35.9235 28.1929C36.0144 26.2042 36.0333 25.6076 36.0333 20.5725C36.0333 15.5374 36.0144 14.9408 35.9235 12.9521C35.8395 11.1126 35.5327 10.1148 35.2738 9.44963C34.9309 8.57015 34.5246 7.94098 33.8646 7.28094C33.2558 6.65531 32.5148 6.17381 31.6959 5.87172C31.0307 5.61285 30.0329 5.30598 28.1934 5.22197ZM18.1643 26.386C19.5095 26.9459 21.0074 27.0215 22.4021 26.5998C23.7969 26.1781 25.0019 25.2852 25.8115 24.0737C26.621 22.8622 26.9849 21.4072 26.8408 19.9572C26.6968 18.5073 26.0539 17.1523 25.0218 16.1237C24.3639 15.4662 23.5684 14.9627 22.6925 14.6496C21.8167 14.3364 20.8823 14.2214 19.9567 14.3127C19.031 14.404 18.1371 14.6994 17.3393 15.1776C16.5416 15.6558 15.8597 16.305 15.343 17.0784C14.8262 17.8517 14.4873 18.73 14.3507 19.6501C14.2141 20.5702 14.2832 21.5091 14.553 22.3992C14.8229 23.2894 15.2867 24.1086 15.9111 24.798C16.5356 25.4873 17.3051 26.0297 18.1643 26.386ZM13.7189 13.7184C14.619 12.8183 15.6876 12.1043 16.8636 11.6172C18.0396 11.1301 19.3001 10.8794 20.573 10.8794C21.8459 10.8794 23.1064 11.1301 24.2824 11.6172C25.4584 12.1043 26.527 12.8183 27.4271 13.7184C28.3272 14.6185 29.0412 15.6871 29.5283 16.8631C30.0154 18.0391 30.2661 19.2996 30.2661 20.5725C30.2661 21.8454 30.0154 23.1059 29.5283 24.2819C29.0412 25.4579 28.3272 26.5265 27.4271 27.4266C25.6093 29.2444 23.1438 30.2656 20.573 30.2656C18.0022 30.2656 15.5367 29.2444 13.7189 27.4266C11.9011 25.6088 10.8799 23.1433 10.8799 20.5725C10.8799 18.0017 11.9011 15.5362 13.7189 13.7184ZM32.4159 12.3229C32.639 12.1125 32.8175 11.8595 32.941 11.5788C33.0646 11.2982 33.1305 10.9956 33.135 10.689C33.1394 10.3824 33.0823 10.078 32.9671 9.79389C32.8518 9.50976 32.6807 9.25164 32.4639 9.03481C32.247 8.818 31.9889 8.64688 31.7048 8.53161C31.4206 8.41633 31.1163 8.35924 30.8097 8.36371C30.5031 8.36818 30.2005 8.43412 29.9198 8.55763C29.6392 8.68114 29.3862 8.8597 29.1757 9.08275C28.7665 9.51654 28.5425 10.0927 28.5512 10.689C28.5599 11.2853 28.8006 11.8547 29.2223 12.2764C29.644 12.698 30.2134 12.9388 30.8097 12.9475C31.4059 12.9562 31.9821 12.7321 32.4159 12.3229Z" fill="black"/>
</svg>
