<svg width="31" height="37" viewBox="0 0 31 37" fill="none" xmlns="http://www.w3.org/2000/svg">
<path d="M15.9929 0.0305518C17.9041 0 19.8042 0.0181048 21.7022 0C21.8172 2.30949 22.6211 4.66198 24.2573 6.29481C25.8902 7.96837 28.2 8.73443 30.4473 8.99356V15.0688C28.3413 14.9976 26.2254 14.5449 24.3142 13.608C23.4819 13.2188 22.7065 12.7175 21.9475 12.2049C21.9377 16.6134 21.965 21.0163 21.9201 25.4067C21.8062 27.5159 21.1327 29.6149 19.9455 31.353C18.0355 34.2463 14.7203 36.1326 11.3154 36.1915C9.22682 36.3148 7.14047 35.7264 5.36077 34.6424C2.41141 32.8455 0.336007 29.5561 0.0337332 26.0256C-0.00434155 25.2779 -0.0101884 24.5289 0.01621 23.7806C0.279057 20.9099 1.65353 18.1636 3.78697 16.2954C6.20517 14.1195 9.59261 13.083 12.7643 13.6963C12.7939 15.9311 12.7074 18.1636 12.7074 20.3984C11.2584 19.9141 9.56523 20.0499 8.29918 20.9586C7.37291 21.589 6.67293 22.5166 6.30702 23.5985C6.00475 24.3634 6.09127 25.2132 6.10879 26.0256C6.45597 28.5015 8.76026 30.5824 11.2201 30.3572C12.8508 30.3391 14.4137 29.3614 15.2635 27.93C15.5384 27.4288 15.8462 26.9162 15.8626 26.3266C16.0061 23.6279 15.9491 20.9405 15.9667 18.2417C15.9787 12.1596 15.9491 6.09453 15.994 0.0316834L15.9929 0.0305518Z" fill="white"/>
</svg>
