<svg width="94" height="70" viewBox="0 0 94 70" fill="none" xmlns="http://www.w3.org/2000/svg">
<g clip-path="url(#clip0)">
<path opacity="0.1" d="M9.45604 7.00992C8.87099 7.25284 8.27055 7.56463 7.94905 8.11119C7.60853 8.68856 7.64928 9.40552 7.71268 10.0735C8.26512 15.8672 9.72048 22.0289 7.20733 27.2769C5.98743 29.823 3.94703 31.8633 2.32412 34.1755C0.701214 36.4877 -0.524118 39.3746 0.229375 42.0947C1.1495 45.4184 4.58369 47.2611 6.89851 49.819C8.41364 51.4912 9.47596 53.5234 10.8897 55.2827C12.3034 57.042 14.2405 58.5919 16.4974 58.6953C19.7432 58.8448 22.384 56.0395 25.5665 55.3897C28.8268 54.7244 32.1097 56.4175 34.7533 58.4442C37.3968 60.4709 39.8013 62.9263 42.8814 64.1917C46.283 65.5902 50.1175 65.3763 53.6984 66.2165C56.9587 66.9825 59.96 68.6112 63.1967 69.4796C66.4335 70.3479 70.2272 70.2953 72.7349 68.0774C76.0034 65.1769 75.7462 60.0105 77.8337 56.1737C79.7726 52.6088 83.5682 50.4806 86.123 47.3291C90.72 41.6569 90.5697 32.9872 86.6664 26.8183C82.7631 20.6494 75.6927 16.9141 68.463 15.9415C65.2027 15.5037 61.8455 15.5636 58.7111 14.5674C50.3212 11.9026 45.3284 2.35468 36.7629 0.367859C31.3182 -0.892936 26.0229 1.29057 21.3851 3.97803C17.3596 6.31109 13.6455 5.27055 9.45604 7.00992Z" fill="#007B77"/>
<path d="M17.631 25.7262C17.631 25.7262 14.54 28.6457 11.2227 28.7327C9.82964 28.7605 8.48318 29.2398 7.38549 30.0987C6.86664 30.5092 6.38645 30.9664 5.95096 31.4646" stroke="#535461" stroke-width="2" stroke-miterlimit="10"/>
<path d="M3.85891 31.5362C4.30449 31.3096 6.00528 31.4601 6.00528 31.4601C6.00528 31.4601 5.12318 32.9239 4.67761 33.1505C4.5709 33.2138 4.45233 33.2545 4.32925 33.2701C4.20617 33.2856 4.08122 33.2757 3.96213 33.2409C3.84304 33.2062 3.73236 33.1473 3.63695 33.0679C3.54154 32.9886 3.46344 32.8904 3.40749 32.7796C3.35154 32.6688 3.31894 32.5477 3.31169 32.4237C3.30445 32.2998 3.32273 32.1757 3.3654 32.0591C3.40806 31.9425 3.4742 31.8359 3.55972 31.746C3.64524 31.6561 3.74831 31.5847 3.86253 31.5362H3.85891Z" fill="#007B77"/>
<path d="M5.64935 28.9485C6.14655 29.001 7.49233 30.0525 7.49233 30.0525C7.49233 30.0525 5.95274 30.8011 5.46008 30.7495C5.22958 30.7146 5.02139 30.5922 4.87882 30.4076C4.73626 30.223 4.67031 29.9905 4.6947 29.7584C4.71908 29.5264 4.83193 29.3127 5.00974 29.1619C5.18756 29.011 5.41666 28.9346 5.64935 28.9485Z" fill="#007B77"/>
<path d="M9.89504 26.8628C10.2971 27.1592 10.9293 28.7472 10.9293 28.7472C10.9293 28.7472 9.22578 28.6176 8.82367 28.3221C8.64243 28.1756 8.5246 27.9648 8.49468 27.7335C8.46476 27.5022 8.52505 27.2683 8.66302 27.0804C8.80098 26.8925 9.00601 26.765 9.23546 26.7245C9.46492 26.684 9.70115 26.7335 9.89504 26.8628Z" fill="#007B77"/>
<path d="M13.4623 26.0099C13.9088 26.2338 14.8 27.6922 14.8 27.6922C14.8 27.6922 13.0992 27.8526 12.6527 27.6287C12.54 27.5795 12.4386 27.5078 12.3545 27.4181C12.2704 27.3284 12.2055 27.2224 12.1636 27.1067C12.1217 26.9911 12.1038 26.8681 12.111 26.7453C12.1182 26.6225 12.1502 26.5024 12.2053 26.3924C12.2603 26.2824 12.3371 26.1847 12.4311 26.1054C12.525 26.026 12.6341 25.9667 12.7517 25.9309C12.8693 25.8951 12.993 25.8837 13.1151 25.8972C13.2373 25.9108 13.3554 25.9492 13.4623 26.0099Z" fill="#007B77"/>
<path d="M8.43874 31.703C8.58727 31.2253 8.15256 29.5721 8.15256 29.5721C8.15256 29.5721 6.85931 30.6887 6.71078 31.1664C6.66893 31.2817 6.65089 31.4043 6.65777 31.5268C6.66464 31.6492 6.69628 31.769 6.75077 31.8789C6.80526 31.9888 6.88147 32.0865 6.97478 32.166C7.06808 32.2455 7.17655 32.3053 7.29361 32.3416C7.41066 32.378 7.53388 32.3902 7.65578 32.3775C7.77768 32.3648 7.89574 32.3274 8.0028 32.2677C8.10986 32.208 8.2037 32.1272 8.27864 32.0301C8.35357 31.933 8.40804 31.8218 8.43874 31.703Z" fill="#007B77"/>
<path d="M12.5984 30.6488C12.5984 30.1485 11.6882 28.7019 11.6882 28.7019C11.6882 28.7019 10.788 30.1521 10.7889 30.6543C10.7896 30.8947 10.8857 31.1249 11.0561 31.2944C11.2264 31.4639 11.4571 31.5587 11.6973 31.5579C11.9375 31.5572 12.1675 31.461 12.3369 31.2906C12.5062 31.1201 12.6009 30.8892 12.6002 30.6488H12.5984Z" fill="#007B77"/>
<path d="M16.5008 29.0753C16.5841 28.5823 15.932 27.0024 15.932 27.0024C15.932 27.0024 14.7991 28.2822 14.7167 28.7753C14.6888 29.0067 14.7511 29.2398 14.8905 29.4264C15.0299 29.613 15.2357 29.7388 15.4653 29.7775C15.6949 29.8162 15.9305 29.765 16.1234 29.6344C16.3162 29.5038 16.4513 29.3039 16.5008 29.0763V29.0753Z" fill="#007B77"/>
<path d="M21.6475 17.9947C21.6475 17.9947 17.9244 15.948 16.8177 12.8128C16.3631 11.4944 15.4933 10.3593 14.339 9.57787C13.7882 9.21104 13.2049 8.89551 12.5966 8.63522" stroke="#535461" stroke-width="2" stroke-miterlimit="10"/>
<path d="M11.8901 6.66383C12.2424 7.01823 12.6219 8.68509 12.6219 8.68509C12.6219 8.68509 10.9591 8.29534 10.6069 7.94003C10.4513 7.76712 10.3681 7.54095 10.3746 7.30835C10.381 7.07576 10.4766 6.85456 10.6415 6.69055C10.8064 6.52654 11.028 6.43229 11.2605 6.42732C11.4929 6.42234 11.7184 6.50702 11.8901 6.66383Z" fill="#007B77"/>
<path d="M14.9014 7.57294C15.0046 8.06239 14.4187 9.66762 14.4187 9.66762C14.4187 9.66762 13.235 8.43582 13.1318 7.94546C13.1011 7.82688 13.0948 7.7033 13.1132 7.5822C13.1316 7.4611 13.1744 7.34499 13.2389 7.24089C13.3034 7.13678 13.3883 7.04684 13.4885 6.9765C13.5887 6.90615 13.7021 6.85686 13.8218 6.8316C13.9416 6.80634 14.0652 6.80564 14.1853 6.82953C14.3053 6.85343 14.4192 6.90143 14.5202 6.97063C14.6212 7.03983 14.7071 7.1288 14.7728 7.23217C14.8385 7.33553 14.8825 7.45115 14.9023 7.57203L14.9014 7.57294Z" fill="#007B77"/>
<path d="M18.1889 10.9801C18.0313 11.4541 16.7154 12.5445 16.7154 12.5445C16.7154 12.5445 16.3151 10.8831 16.4727 10.4081C16.5485 10.1798 16.7118 9.99088 16.9268 9.88303C17.1417 9.77517 17.3906 9.75719 17.6188 9.83303C17.847 9.90888 18.0357 10.0723 18.1435 10.2874C18.2512 10.5026 18.2692 10.7517 18.1934 10.9801H18.1889Z" fill="#007B77"/>
<path d="M20.0979 14.1117C20.0228 14.6057 18.9097 15.9027 18.9097 15.9027C18.9097 15.9027 18.2341 14.3328 18.3093 13.8389C18.3218 13.7168 18.359 13.5985 18.4185 13.4912C18.4781 13.384 18.5588 13.2899 18.6558 13.2148C18.7527 13.1396 18.8639 13.085 18.9826 13.0541C19.1013 13.0233 19.225 13.0169 19.3462 13.0353C19.4674 13.0537 19.5837 13.0966 19.6879 13.1614C19.792 13.2261 19.882 13.3113 19.9523 13.4119C20.0226 13.5124 20.0717 13.6262 20.0968 13.7464C20.1218 13.8665 20.1222 13.9905 20.0979 14.1108V14.1117Z" fill="#007B77"/>
<path d="M13.139 11.0771C13.6389 11.0716 15.0771 10.1489 15.0771 10.1489C15.0771 10.1489 13.6181 9.26064 13.1182 9.26608C12.878 9.26884 12.6487 9.36699 12.4809 9.53893C12.313 9.71086 12.2202 9.94251 12.223 10.1829C12.2257 10.4233 12.3238 10.6527 12.4956 10.8208C12.6674 10.9888 12.8988 11.0816 13.139 11.0789V11.0771Z" fill="#007B77"/>
<path d="M15.4176 14.7153C15.8922 14.5603 16.9889 13.2497 16.9889 13.2497C16.9889 13.2497 15.3307 12.8391 14.8561 12.9941C14.739 13.0275 14.6299 13.0843 14.5352 13.1609C14.4405 13.2376 14.3622 13.3325 14.305 13.4402C14.2479 13.5478 14.213 13.6658 14.2024 13.7872C14.1919 13.9087 14.2059 14.031 14.2437 14.1469C14.2815 14.2627 14.3422 14.3698 14.4223 14.4616C14.5024 14.5535 14.6001 14.6282 14.7097 14.6813C14.8193 14.7345 14.9385 14.765 15.0601 14.771C15.1818 14.777 15.3034 14.7583 15.4176 14.7162V14.7153Z" fill="#007B77"/>
<path d="M18.1164 17.9475C18.6109 17.875 19.9132 16.7692 19.9132 16.7692C19.9132 16.7692 18.3482 16.084 17.8547 16.1565C17.7331 16.1691 17.6153 16.2061 17.5084 16.2654C17.4016 16.3247 17.3078 16.405 17.2327 16.5015C17.1577 16.5981 17.1029 16.7088 17.0718 16.8271C17.0406 16.9453 17.0337 17.0687 17.0515 17.1897C17.0692 17.3107 17.1112 17.4269 17.175 17.5312C17.2388 17.6355 17.323 17.7258 17.4226 17.7967C17.5222 17.8676 17.635 17.9176 17.7544 17.9437C17.8738 17.9698 17.9973 17.9714 18.1173 17.9485L18.1164 17.9475Z" fill="#007B77"/>
<path d="M47.269 67.6543C65.3752 67.6543 80.0532 52.964 80.0532 34.8427C80.0532 16.7214 65.3752 2.03123 47.269 2.03123C29.1628 2.03123 14.4848 16.7214 14.4848 34.8427C14.4848 52.964 29.1628 67.6543 47.269 67.6543Z" fill="url(#paint0_linear)"/>
<path d="M47.269 67.1104C65.0751 67.1104 79.5098 52.6637 79.5098 34.8428C79.5098 17.0218 65.0751 2.57509 47.269 2.57509C29.4629 2.57509 15.0282 17.0218 15.0282 34.8428C15.0282 52.6637 29.4629 67.1104 47.269 67.1104Z" fill="#007B77"/>
<path d="M47.269 60.4937C61.4238 60.4937 72.8986 49.0094 72.8986 34.8427C72.8986 20.6761 61.4238 9.19174 47.269 9.19174C33.1141 9.19174 21.6394 20.6761 21.6394 34.8427C21.6394 49.0094 33.1141 60.4937 47.269 60.4937Z" fill="#DDE1EC"/>
<path opacity="0.3" d="M47.9935 13.7237H46.5445V36.3836H47.9935V13.7237Z" fill="#535461"/>
<g opacity="0.1">
<path opacity="0.1" d="M69.2761 34.2989H48.8086V36.1117H69.2761V34.2989Z" fill="black"/>
<path opacity="0.1" d="M34.3583 27.5167L33.5181 29.1226L46.3964 35.8723L47.2367 34.2664L34.3583 27.5167Z" fill="black"/>
<path opacity="0.1" d="M47.269 37.9245C48.7696 37.9245 49.986 36.7071 49.986 35.2053C49.986 33.7035 48.7696 32.4861 47.269 32.4861C45.7685 32.4861 44.5521 33.7035 44.5521 35.2053C44.5521 36.7071 45.7685 37.9245 47.269 37.9245Z" fill="black"/>
</g>
<path d="M69.2761 33.9363H48.8086V35.7491H69.2761V33.9363Z" fill="#535461"/>
<path d="M47.2426 33.906L34.3643 27.1562L33.524 28.7622L46.4024 35.5119L47.2426 33.906Z" fill="#535461"/>
<path d="M47.269 37.5619C48.7695 37.5619 49.9859 36.3445 49.9859 34.8427C49.9859 33.341 48.7695 32.1235 47.269 32.1235C45.7685 32.1235 44.5521 33.341 44.5521 34.8427C44.5521 36.3445 45.7685 37.5619 47.269 37.5619Z" fill="#535461"/>
<g opacity="0.1">
<path opacity="0.1" d="M23.6299 37.9245C23.6299 23.7575 35.1044 12.2735 49.2596 12.2735C53.2326 12.27 57.1518 13.1924 60.7069 14.9676C64.2619 16.7428 67.3551 19.3221 69.7415 22.5012C65.38 14.5685 56.9575 9.19174 47.2672 9.19174C33.112 9.19174 21.6375 20.6758 21.6375 34.8427C21.6292 40.4081 23.4377 45.8239 26.7879 50.2659C24.7103 46.4852 23.6238 42.2393 23.6299 37.9245Z" fill="black"/>
</g>
<path d="M70.9496 15.9734C70.6453 15.6806 68.0842 17.6049 68.0842 17.6049C68.0842 17.6049 67.1722 17.7717 67.3896 18.398C67.6069 19.0243 66.4341 22.5321 66.4341 22.5321L65.9568 21.8641C66.003 21.08 65.7875 20.5244 65.5774 20.1782C65.5602 20.1501 65.543 20.1229 65.5257 20.0975L65.6091 20.0685C65.5774 19.6407 64.8936 18.989 64.5304 18.6699C64.5304 18.6237 64.5304 18.5793 64.5304 18.5321C64.5531 18.0209 64.7578 17.4816 64.5304 17.0185C64.2732 16.49 63.5207 16.2245 63.4573 15.6444C63.4192 15.2981 63.6529 14.9854 63.7561 14.6519C64.0025 13.8542 63.4908 13.0403 63.0017 12.3533C62.8361 12.0957 62.6345 11.8631 62.4031 11.6626C62.1826 11.5013 61.9406 11.3719 61.684 11.2783C60.9677 10.9882 60.235 10.8423 59.496 10.6438C58.7869 10.4553 58.133 10.3655 57.413 10.6021C57.2422 10.6482 57.0862 10.7378 56.9602 10.8622C56.789 11.0544 56.7664 11.3281 56.6541 11.5574C56.473 11.9263 56.0826 12.1466 55.7376 12.3832C55.3925 12.6197 55.0466 12.9442 55.0448 13.3521C55.0448 13.9313 55.7059 14.2957 55.9269 14.835C56.1334 15.3371 55.9269 15.8964 55.8118 16.4257C55.7638 16.5968 55.7591 16.7771 55.7983 16.9505C55.8439 17.0797 55.9126 17.1995 56.0011 17.304C56.1379 17.4853 56.2846 17.6539 56.4304 17.8261L56.3634 17.8524C55.148 17.7273 54.3664 19.2718 54.3664 19.2718C54.4226 19.2836 54.476 19.2971 54.5286 19.3126L54.4769 19.3796C54.1097 19.857 53.8096 20.3824 53.5849 20.9413L52.5887 22.2774C52.5887 22.2774 52.3713 18.9364 52.893 18.185C53.4146 17.4336 52.4157 16.9741 52.4157 16.9741C52.4157 16.9741 50.2422 14.5522 49.9406 14.7606C49.639 14.9691 50.6787 17.6004 51.5907 18.0182C51.5907 18.0182 51.6812 18.853 51.5001 19.3959C51.3905 19.7395 50.8055 23.3632 50.8055 23.3632C50.8055 23.3632 50.2847 26.4114 52.6729 24.9041C54.2243 23.927 55.2268 22.2447 55.7376 21.1879C55.7732 21.1136 55.8067 21.0426 55.8381 20.9749C55.8617 21.087 55.8778 21.2005 55.8861 21.3148L55.9767 24.8071C55.9996 25.6709 55.8112 26.5273 55.4279 27.3015L54.3637 29.4615L54.4824 29.4977L54.4108 29.601C53.7099 30.6334 52.518 32.9547 54.9714 34.1375L58.2317 34.5554L58.0578 35.3902C58.0578 35.3902 56.7121 37.9372 56.3208 39.691C56.0778 40.7651 55.6983 41.8035 55.1915 42.7809L55.292 42.8344C55.2712 42.858 55.2494 42.8824 55.2286 42.9078C55.0309 43.1304 54.9003 43.4044 54.8519 43.6982L54.4099 44.3254C54.4099 44.3254 54.236 46.9141 54.5838 47.5413C54.774 47.8839 55.4052 48.1015 55.9423 48.2284C56.7392 48.4178 57.3822 47.5939 56.9593 46.915L56.9539 46.9059H56.9457C56.8551 46.4845 56.578 45.1765 56.6686 44.6798C56.6939 44.5384 56.7175 44.3979 56.7293 44.2547C56.7511 44.0665 56.8082 43.8842 56.8977 43.7172C56.9122 43.6891 56.9276 43.6619 56.943 43.6348L56.9901 43.6547C57.1359 43.7172 57.2799 43.7762 57.4166 43.8278C57.2047 44.0209 57.0544 44.4206 57.2355 45.2427C57.2355 45.2427 57.2527 47.2993 57.4094 47.6229C57.5661 47.9465 59.3194 48.3743 59.6237 48.0407C59.928 47.7072 59.4281 46.5579 59.4281 46.5579L59.4127 46.5688C59.3121 45.9026 59.1881 44.7097 59.4933 44.2402C59.6164 44.0508 59.736 43.855 59.8429 43.6719L59.909 43.5586C60.4759 43.8414 61.0754 44.0544 61.4033 43.9067C61.4033 43.9067 62.836 40.5657 62.7491 40.1488C62.6621 39.7318 64.9633 35.0122 64.9633 35.0122C64.9633 35.0122 66.9168 32.8369 64.5295 31.3377C63.7715 30.86 63.2191 30.5392 62.8179 30.3225L62.4819 28.5641C62.3091 27.6423 62.3401 26.6937 62.5725 25.7851L62.9347 24.402L62.9646 24.2841C62.9646 24.2841 63.8766 22.4052 63.8331 21.5278C63.8297 21.4596 63.8374 21.3914 63.8557 21.3257C63.8657 21.3674 63.8766 21.4109 63.8884 21.4562C64.128 22.3681 64.4436 23.2583 64.832 24.1174C65.5248 25.6818 66.5527 25.5576 67.1161 25.3355C67.2366 25.2888 67.3437 25.2129 67.4277 25.1145C67.5116 25.016 67.5698 24.8983 67.5969 24.7718C67.7998 23.7983 68.3568 21.071 68.3921 20.3177C68.4237 19.7288 68.4963 19.1427 68.6095 18.5639C70.0386 17.7273 71.2539 16.2662 70.9496 15.9734Z" fill="url(#paint1_linear)"/>
<path d="M60.3183 42.732C60.3183 42.732 60.1272 43.1154 59.8655 43.5759C59.7631 43.7571 59.649 43.952 59.5322 44.1396C59.1183 44.8022 59.5322 46.9132 59.5322 46.9132L58.6266 47.0374L57.7209 46.5842L57.5552 45.0524V43.9321L58.5876 42.7764L59.0404 42.2761L60.3183 42.732Z" fill="#F8BDC5"/>
<g opacity="0.1">
<path opacity="0.1" d="M60.3184 42.732C60.3184 42.732 60.1273 43.1154 59.8655 43.5759C59.4657 43.362 59.0792 43.1241 58.7081 42.8634L58.6284 42.8072L58.5859 42.7764L59.0387 42.2761L60.3184 42.732Z" fill="black"/>
</g>
<path d="M64.746 34.9896C64.746 34.9896 62.5535 39.6675 62.6368 40.0817C62.7201 40.4959 61.3544 43.8079 61.3544 43.8079C61.0428 43.9547 60.4705 43.7435 59.9307 43.4635C59.5237 43.2464 59.1305 43.0042 58.7534 42.7384L58.6737 42.6822L58.6257 42.6477L62.2247 32.6701L59.0405 30.3325L58.805 30.1594L57.3813 29.108L61.7284 29.8947C61.7284 29.8947 61.8797 29.8757 62.6793 30.3235C63.0633 30.5383 63.5968 30.86 64.3339 31.3441C66.6062 32.8369 64.746 34.9896 64.746 34.9896Z" fill="#7F0027"/>
<g opacity="0.03">
<path opacity="0.03" d="M64.746 34.9896C64.746 34.9896 62.5535 39.6675 62.6368 40.0817C62.7201 40.4959 61.3544 43.8079 61.3544 43.8079C61.0428 43.9547 60.4705 43.7435 59.9307 43.4635C59.5237 43.2464 59.1305 43.0042 58.7534 42.7384L58.6737 42.6822L58.6257 42.6477L62.2247 32.6701L59.0405 30.3325L58.805 30.1594L57.3813 29.108L61.7284 29.8947C61.7284 29.8947 61.8797 29.8757 62.6793 30.3235C63.0633 30.5383 63.5968 30.86 64.3339 31.3441C66.6062 32.8369 64.746 34.9896 64.746 34.9896Z" fill="black"/>
</g>
<path d="M58.0851 43.5595C58.0851 43.5595 57.0092 43.3937 57.3823 45.133C57.3823 45.133 57.3986 47.1724 57.548 47.4897C57.6974 47.8069 59.3683 48.2347 59.6572 47.9039C59.9461 47.573 59.4707 46.4346 59.4707 46.4346C59.4707 46.4346 58.2508 47.3247 57.9193 46.3721C57.5879 45.4195 58.0851 43.5595 58.0851 43.5595Z" fill="#5D3E53"/>
<path d="M57.3397 43.2287C57.2223 43.3406 57.1268 43.4734 57.058 43.6203C56.9726 43.7867 56.9183 43.9673 56.8977 44.1532C56.8869 44.2946 56.8642 44.4351 56.8407 44.5747C56.7374 45.1648 57.1332 46.9132 57.1332 46.9132L55.561 47.1616L54.9823 46.5407L54.8582 45.1747C55.0127 44.7064 55.0963 44.2176 55.1064 43.7245C55.1064 43.3683 55.2875 43.0502 55.4686 42.8181C55.5914 42.6633 55.7322 42.5236 55.888 42.4021C55.888 42.4021 57.6712 42.9387 57.3397 43.2287Z" fill="#F8BDC5"/>
<g opacity="0.1">
<path opacity="0.1" d="M57.3397 43.2287C57.2223 43.3406 57.1268 43.4734 57.0581 43.6203C56.4141 43.3293 55.7376 42.9622 55.4913 42.8263L55.4723 42.8163C55.5951 42.6615 55.7358 42.5218 55.8916 42.4003C55.8916 42.4003 57.6712 42.9387 57.3397 43.2287Z" fill="black"/>
</g>
<path d="M62.4285 33.7478C62.4285 33.7478 61.3951 35.6939 60.7322 37.3081C60.2975 38.3686 59.3991 40.8939 58.8304 42.5018L58.7471 42.7393C58.4971 43.4508 58.3305 43.9321 58.3305 43.9321C58.2203 43.9328 58.1106 43.9166 58.0053 43.8841C57.9075 43.8578 57.7979 43.8224 57.6811 43.7789L57.5498 43.7291C57.4194 43.6783 57.2781 43.6194 57.1432 43.5577C56.4857 43.2641 55.7847 42.8816 55.5302 42.742L55.4342 42.6885C55.9196 41.7152 56.282 40.6852 56.5128 39.6222C56.8851 37.8837 58.1674 35.3621 58.1674 35.3621L58.3332 34.5337L55.2305 34.1194C52.893 32.9502 54.0287 30.6452 54.6961 29.6219C54.8099 29.4443 54.933 29.2727 55.0647 29.108L57.5471 29.6518C57.5471 29.6518 57.9383 29.7769 58.8077 30.1621L59.2071 30.3434C59.6944 30.5673 60.2939 30.8555 61.0184 31.2253C63.4618 32.4616 62.4285 33.7478 62.4285 33.7478Z" fill="#7F0027"/>
<path d="M57.1178 46.789C57.2063 46.9383 57.2487 47.1105 57.2396 47.2838C57.2306 47.4571 57.1704 47.6239 57.0668 47.7631C56.9632 47.9023 56.8207 48.0077 56.6573 48.066C56.4939 48.1242 56.317 48.1328 56.1487 48.0906C55.6407 47.9646 55.0384 47.7489 54.8573 47.409C54.5268 46.7881 54.6916 44.2212 54.6916 44.2212L55.1263 43.5795C55.1263 43.5795 54.899 46.4156 55.4369 46.6612C55.9749 46.9069 57.1123 46.7763 57.1123 46.7763L57.1178 46.789Z" fill="#5D3E53"/>
<path d="M57.5579 10.7861C57.3927 10.8321 57.2427 10.9213 57.1232 11.0444C56.9602 11.2348 56.9421 11.5067 56.8316 11.7342C56.6595 12.0967 56.2882 12.3188 55.9586 12.5499C55.6289 12.7811 55.3002 13.1065 55.2984 13.5107C55.2984 14.0854 55.9323 14.4461 56.1388 14.98C56.3353 15.4785 56.1388 16.0323 56.0292 16.5571C55.9835 16.727 55.9792 16.9054 56.0165 17.0774C56.0597 17.2049 56.1254 17.3237 56.2103 17.4282C56.6097 17.972 57.106 18.4542 57.3732 19.0733C57.5761 19.5437 57.6322 20.063 57.6856 20.5733C57.7626 21.3075 57.8396 22.0553 57.7001 22.7804C57.6866 22.8238 57.6866 22.8703 57.7001 22.9137C57.7239 22.9553 57.7613 22.9873 57.8061 23.0043C58.0696 23.1324 58.3563 23.2059 58.649 23.2204C58.9416 23.2348 59.2341 23.1899 59.509 23.0883C59.7838 22.9867 60.0353 22.8305 60.2483 22.6292C60.4613 22.4278 60.6315 22.1855 60.7485 21.9166C60.9296 21.506 60.9994 21.0102 61.358 20.7438C61.3999 20.7091 61.4502 20.6863 61.5038 20.6776C61.5884 20.6799 61.6703 20.7074 61.7393 20.7564C62.2048 21.0084 62.769 21.0157 63.2879 20.9123C63.6013 20.8498 63.9219 20.7383 64.1293 20.4936C64.5377 20.0078 64.3104 19.2817 64.3376 18.6482C64.3593 18.1415 64.554 17.6067 64.3376 17.1481C64.093 16.6242 63.3749 16.3613 63.3151 15.7885C63.2789 15.4459 63.5016 15.135 63.6004 14.805C63.8349 14.0138 63.3477 13.2071 62.8822 12.5264C62.7256 12.2725 62.5338 12.042 62.3125 11.842C62.1038 11.6829 61.8732 11.5547 61.6279 11.4614C60.9459 11.174 60.2504 11.029 59.5449 10.8332C58.8693 10.6402 58.2471 10.5504 57.5579 10.7861Z" fill="#85555C"/>
<path d="M61.022 22.6109H58.622V18.7189C58.6933 18.3451 58.7351 17.9662 58.747 17.5859C58.747 17.4581 58.747 17.3275 58.747 17.1961C58.7244 16.732 58.6284 16.2689 58.3766 15.9861C57.7146 15.241 60.5275 15.3652 60.5275 15.3652C60.6138 15.7073 60.7258 16.0424 60.8626 16.3677C61.0664 16.8752 61.3375 17.3529 61.6686 17.788C61.96 18.1752 62.3332 18.493 62.7617 18.7189C64.4136 19.5473 61.022 22.6109 61.022 22.6109Z" fill="#F8BDC5"/>
<g opacity="0.1">
<path opacity="0.1" d="M60.8599 16.3677C60.6162 16.6857 60.2903 16.9309 59.9175 17.0769C59.5446 17.2229 59.1389 17.2642 58.7443 17.1961C58.7217 16.732 58.6257 16.2689 58.3739 15.9861C57.7119 15.241 60.5248 15.3652 60.5248 15.3652C60.6112 15.7073 60.7232 16.0424 60.8599 16.3677Z" fill="black"/>
</g>
<path d="M59.1183 17.1055C60.3293 17.1055 61.3109 16.123 61.3109 14.9111C61.3109 13.6992 60.3293 12.7167 59.1183 12.7167C57.9074 12.7167 56.9258 13.6992 56.9258 14.9111C56.9258 16.123 57.9074 17.1055 59.1183 17.1055Z" fill="#F8BDC5"/>
<path d="M68.2191 18.6781C68.1115 19.2523 68.0425 19.8331 68.0126 20.4166C67.9791 21.1625 67.4484 23.8672 67.2546 24.8325C67.2302 24.9563 67.1756 25.0721 67.0956 25.1697C67.0157 25.2673 66.9129 25.3435 66.7964 25.3918C66.2584 25.612 65.2803 25.7353 64.6228 24.1844C64.2521 23.3311 63.9514 22.449 63.7235 21.5468C63.6429 21.2436 63.5824 20.9353 63.5424 20.6241L64.9914 19.8374C65.1278 19.9651 65.2433 20.1134 65.3338 20.277C65.5339 20.6205 65.7395 21.1716 65.696 21.9484L66.1488 22.6109C66.1488 22.6109 67.2655 19.1331 67.0545 18.5122C66.8435 17.8913 67.7165 17.7255 67.7165 17.7255C67.7165 17.7255 70.1572 15.822 70.447 16.1112C70.7368 16.4003 69.5839 17.8496 68.2191 18.6781Z" fill="#F8BDC5"/>
<path d="M56.3471 20.3341C56.2341 20.6579 56.1041 20.9756 55.9577 21.2858C55.4705 22.3345 54.5159 24.005 53.0379 24.9712C50.7629 26.4613 51.2592 23.4394 51.2592 23.4394C51.2592 23.4394 51.8162 19.8464 51.9213 19.5065C52.087 18.9681 52.0037 18.1406 52.0037 18.1406C51.1352 17.7264 50.1426 15.1187 50.4315 14.9111C50.7204 14.7035 52.7861 17.1055 52.7861 17.1055C52.7861 17.1055 53.738 17.5587 53.239 18.3064C52.74 19.0542 52.9492 22.3635 52.9492 22.3635L53.9064 21.041C54.1194 20.4892 54.4054 19.9685 54.7568 19.4929C54.9379 19.2455 55.0647 19.0959 55.0647 19.0959L56.3471 20.3341Z" fill="#F8BDC5"/>
<g opacity="0.1">
<path opacity="0.1" d="M65.3347 20.277C65.0304 20.3894 63.8522 20.8652 63.7217 21.5459C63.6411 21.2427 63.5806 20.9344 63.5406 20.6232L64.9896 19.8365C65.1271 19.9642 65.2435 20.1129 65.3347 20.277Z" fill="black"/>
</g>
<g opacity="0.1">
<path opacity="0.1" d="M56.3471 20.3341C56.2341 20.6579 56.1041 20.9756 55.9577 21.2858C55.9015 20.8761 55.6706 19.8283 54.7568 19.4902C54.9379 19.2428 55.0647 19.0932 55.0647 19.0932L56.3471 20.3341Z" fill="black"/>
</g>
<g opacity="0.1">
<path opacity="0.1" d="M61.022 22.6109H58.622V18.7189C58.6933 18.3451 58.7351 17.9662 58.747 17.5859C59.2406 18.0626 59.1183 18.8014 59.1183 18.8014L60.4007 21.7018L61.022 19.1376L60.8155 18.8068L61.6668 17.7934C61.9581 18.1806 62.3314 18.4985 62.7599 18.7243C64.4136 19.5473 61.022 22.6109 61.022 22.6109Z" fill="black"/>
</g>
<g opacity="0.1">
<path opacity="0.1" d="M62.7174 30.5582C62.7174 30.5582 60.8373 30.4087 59.2062 30.338L59.0423 30.3307C58.8105 30.3216 58.5895 30.3144 58.373 30.309C56.79 30.2709 54.9995 29.7171 54.6953 29.6201C54.8094 29.4431 54.9327 29.2721 55.0647 29.108L57.5471 29.6518C57.5471 29.6518 57.9383 29.7769 58.8078 30.1621L57.3814 29.108L61.7284 29.8947C61.7284 29.8947 61.8797 29.8757 62.6794 30.3235L62.7174 30.5582Z" fill="black"/>
</g>
<path d="M61.022 19.299L60.8156 18.9681L61.7339 17.8687C61.7339 17.8687 63.6276 18.7977 64.1239 18.5938C64.1239 18.5938 65.3238 19.5908 65.3646 20.1673C65.3646 20.1673 63.6276 20.7465 63.6683 21.6175C63.7091 22.4886 62.8442 24.3494 62.8442 24.3494L62.4819 25.8377C62.259 26.7397 62.2282 27.6785 62.3914 28.5931L62.7219 30.4358C62.7219 30.4358 60.1155 30.2292 58.3749 30.1875C56.6342 30.1458 54.6518 29.4841 54.6518 29.4841L55.667 27.3459C56.0331 26.5743 56.2124 25.7272 56.1905 24.8733L56.0999 21.4118C56.0999 21.4118 56.0175 19.6733 54.6509 19.3833C54.6509 19.3833 55.3953 17.8514 56.5527 17.9756C56.5527 17.9756 58.239 17.2714 58.7398 17.7472C59.2407 18.2231 59.1175 18.969 59.1175 18.969L60.3999 21.8695L61.022 19.299Z" fill="#ED677B"/>
<g opacity="0.1">
<path opacity="0.1" d="M57.5362 14.4588C57.8686 14.4588 58.1294 14.1062 58.4618 14.1244C58.6338 14.1334 58.7815 14.2431 58.9237 14.3419C59.4609 14.7143 60.0588 14.9903 60.6906 15.1576C60.936 15.2229 61.1959 15.2719 61.4422 15.212C61.6886 15.1522 61.9195 14.9582 61.9476 14.7054C61.9545 14.5939 61.9397 14.4822 61.9041 14.3763C61.6253 13.404 60.9943 12.5706 60.1345 12.0387C59.7904 11.8276 59.3701 11.6662 58.9889 11.7985C58.6447 11.9173 58.4228 12.24 58.1738 12.5055C57.9861 12.7044 57.7729 12.8775 57.5398 13.0204C57.3587 13.13 57.087 13.2016 56.9829 13.4029C56.7863 13.7781 57.0952 14.4552 57.5362 14.4588Z" fill="black"/>
</g>
<path d="M57.5362 14.3763C57.8686 14.3763 58.1294 14.0237 58.4618 14.0419C58.6338 14.0509 58.7815 14.1606 58.9237 14.2594C59.4609 14.6317 60.0588 14.9078 60.6906 15.0751C60.936 15.1404 61.1959 15.1893 61.4422 15.1295C61.6886 15.0697 61.9195 14.8757 61.9476 14.6229C61.9545 14.5114 61.9397 14.3997 61.9041 14.2938C61.6253 13.3215 60.9943 12.4881 60.1345 11.9562C59.7904 11.745 59.3701 11.5837 58.9889 11.716C58.6447 11.8348 58.4228 12.1575 58.1738 12.423C57.9861 12.6219 57.7729 12.795 57.5398 12.9379C57.3587 13.0475 57.087 13.1191 56.9829 13.3204C56.7863 13.6992 57.0952 14.3718 57.5362 14.3763Z" fill="#85555C"/>
<path opacity="0.05" d="M56.5337 23.8318C56.5337 23.8318 58.5605 24.5769 59.8845 23.9977L60.5465 24.0394C60.5465 24.0394 61.6469 24.8116 62.8106 24.4663" fill="black"/>
<path opacity="0.05" d="M66.1307 22.5901C66.1307 22.5901 65.8002 23.3768 65.965 23.6252L66.1307 22.5901Z" fill="black"/>
<path opacity="0.05" d="M52.9347 22.3418C52.9347 22.3418 53.1004 23.1285 52.9347 23.3769V22.3418Z" fill="black"/>
<path d="M87.2421 40.2693C87.2421 40.2693 83.4529 44.0617 85.5921 49.6886C87.7312 55.3155 81.926 64.6731 81.926 64.6731C81.926 64.6731 81.9885 64.664 82.1072 64.6441C89.8893 63.2691 93.7555 54.362 89.4284 47.7444C87.8154 45.2835 86.495 42.3975 87.2421 40.2693Z" fill="#007B77"/>
<path opacity="0.1" d="M87.2421 40.3328C87.2421 40.3328 83.4529 44.1251 85.5921 49.752C87.7312 55.3789 81.926 64.7357 81.926 64.7357C81.926 64.7357 81.9885 64.7266 82.1072 64.7067C89.8893 63.3317 93.7555 54.4245 89.4284 47.8069C87.8154 45.347 86.495 42.461 87.2421 40.3328Z" fill="black"/>
<path d="M87.2421 40.2693C87.2421 40.2693 85.103 44.9173 87.2421 48.7097C89.3813 52.502 87.6044 63.144 81.9251 64.6731" stroke="#535461" stroke-miterlimit="10"/>
<path d="M93.991 55.6074C93.991 55.6074 89.6674 54.9185 89.2735 58.7961C88.8795 62.6736 80.957 63.2111 80.957 63.2111L81.1055 63.3099C87.6442 67.6062 93.8959 66.0463 92.9531 60.3415C92.6053 58.2214 92.6343 56.0914 93.991 55.6074Z" fill="#007B77"/>
<path d="M93.991 55.6073C93.991 55.6073 90.6347 56.3442 90.9118 59.3988C91.1889 62.4533 85.9308 66.1143 80.9606 63.212" stroke="#535461" stroke-miterlimit="10"/>
<path d="M90.1872 63.3525C90.1872 63.3525 86.782 62.6709 85.8737 61.7618C84.9653 60.8527 80.8791 59.2628 80.4253 60.4022C79.9716 61.5415 74.296 65.401 78.1549 66.0826C82.0138 66.7642 87.2357 66.989 88.3705 66.5358C89.5053 66.0826 90.1872 63.3525 90.1872 63.3525Z" fill="#A8A8A8"/>
<path opacity="0.2" d="M78.1549 65.6575C82.0148 66.3391 87.2358 66.5639 88.3705 66.1107C89.2354 65.7644 89.8359 64.1021 90.0732 63.328L90.1864 63.3516C90.1864 63.3516 89.5053 66.078 88.3705 66.5321C87.2358 66.9862 82.0139 66.7596 78.1549 66.0789C77.041 65.8823 76.7222 65.42 76.8427 64.8354C76.9368 65.217 77.3254 65.5106 78.1549 65.6575Z" fill="black"/>
</g>
<defs>
<linearGradient id="paint0_linear" x1="47.269" y1="67.6543" x2="47.269" y2="2.03123" gradientUnits="userSpaceOnUse">
<stop stop-color="#808080" stop-opacity="0.25"/>
<stop offset="0.54" stop-color="#808080" stop-opacity="0.12"/>
<stop offset="1" stop-color="#808080" stop-opacity="0.1"/>
</linearGradient>
<linearGradient id="paint1_linear" x1="15848.9" y1="22547.5" x2="15848.9" y2="6785.79" gradientUnits="userSpaceOnUse">
<stop stop-color="#808080" stop-opacity="0.25"/>
<stop offset="0.54" stop-color="#808080" stop-opacity="0.12"/>
<stop offset="1" stop-color="#808080" stop-opacity="0.1"/>
</linearGradient>
<clipPath id="clip0">
<rect width="94" height="70" fill="white"/>
</clipPath>
</defs>
</svg>
