<svg width="110" height="86" viewBox="0 0 110 86" fill="none" xmlns="http://www.w3.org/2000/svg">
<g clip-path="url(#clip0)">
<path d="M32.2323 71.8797L32.2206 69.9081L32.0474 40.6547L32.0409 39.56L31.9455 23.4594C30.5143 22.5555 29.0201 21.7562 27.4744 21.0678C21.4187 18.3767 14.2182 17.267 8.25605 20.1593C5.07304 21.7634 2.61049 24.5138 1.36061 27.8608C1.32541 27.9493 1.29295 28.035 1.26323 28.1206C0.268876 30.9668 0.276196 34.0579 1.73187 36.7268C4.33775 41.5231 10.1654 43.2945 15.3414 44.9871C20.5146 46.6797 26.252 49.4361 27.5419 54.7421C26.4555 53.402 25.0331 52.3764 23.4208 51.7706C21.8086 51.1649 20.0648 51.0008 18.3685 51.2954C16.6721 51.5899 15.0846 52.3324 13.7689 53.4466C12.4532 54.5607 11.4569 56.0063 10.8824 57.6348C10.7878 57.9001 10.7014 58.1681 10.6261 58.4388C10.4459 59.0892 10.3375 59.7575 10.3026 60.4317C10.0501 65.5759 13.9793 70.1851 18.6415 72.344C22.8572 74.2933 27.5884 74.6649 32.2499 74.8522L32.2323 71.8797Z" fill="#F0F0F0"/>
<path d="M32.2207 69.9081L32.2324 71.8796C31.1885 69.1943 29.6131 66.7491 27.6012 64.6919C25.5894 62.6346 23.1829 61.008 20.527 59.9101C17.3883 58.6439 13.9958 58.1398 10.6261 58.4387C10.7015 58.1681 10.7878 57.9001 10.8824 57.6348C12.1916 57.5414 13.5064 57.5613 14.8121 57.6941C19.4722 58.1704 23.8559 60.1388 27.3151 63.3083C29.3431 65.1847 31.0065 67.4225 32.2207 69.9081Z" fill="white"/>
<path d="M32.041 39.56L32.0475 40.6547C30.9548 39.5981 29.7762 38.6348 28.5241 37.7748C24.6337 35.0873 20.2389 33.0565 15.7784 31.5361C11.2067 29.97 6.46128 28.9713 1.64784 28.5623C1.53948 28.5523 1.4391 28.5009 1.36749 28.4187C1.29589 28.3365 1.25856 28.2297 1.26324 28.1206C1.26025 28.0245 1.29524 27.9312 1.36059 27.8608C1.39479 27.8281 1.43622 27.8038 1.48151 27.7902C1.5268 27.7765 1.57467 27.7737 1.62122 27.7821C2.21509 27.8309 2.80618 27.8853 3.40002 27.9535C8.32727 28.5115 13.1663 29.6822 17.8057 31.4385C22.2837 33.127 26.7124 35.3066 30.4972 38.2676C31.03 38.6753 31.5464 39.1052 32.041 39.56Z" fill="white"/>
<path d="M6.29522 15.2289C7.20576 15.2289 7.94389 14.4882 7.94389 13.5745C7.94389 12.6607 7.20576 11.92 6.29522 11.92C5.38468 11.92 4.64655 12.6607 4.64655 13.5745C4.64655 14.4882 5.38468 15.2289 6.29522 15.2289Z" fill="#F0F0F0"/>
<path d="M73.8837 20.4368H73.4128V7.49207C73.4128 6.5082 73.2197 5.53396 72.8445 4.62498C72.4693 3.716 71.9194 2.89008 71.2261 2.19438C70.5329 1.49868 69.7098 0.946814 68.8041 0.570302C67.8983 0.19379 66.9274 8.50722e-07 65.947 0H38.618C36.6379 -2.06173e-06 34.739 0.789336 33.3389 2.19437C31.9387 3.5994 31.1522 5.50503 31.1522 7.49205V78.5079C31.1522 80.495 31.9387 82.4006 33.3388 83.8056C34.7389 85.2107 36.6379 86 38.6179 86H65.947C67.927 86 69.826 85.2107 71.2261 83.8057C72.6262 82.4006 73.4128 80.495 73.4128 78.508V29.6511H73.8837V20.4368Z" fill="#3F3D56"/>
<path d="M71.8238 7.5444V78.4564C71.8238 78.5601 71.8212 78.6624 71.8147 78.7648C71.7365 80.1932 71.1159 81.5373 70.0804 82.5206C69.0448 83.5038 67.6732 84.0515 66.2477 84.0509H38.7877C37.3587 84.0513 35.9841 83.5008 34.948 82.5132C33.912 81.5256 33.2935 80.1762 33.2206 78.7441C33.2154 78.6495 33.2128 78.5536 33.2128 78.4564V7.5444C33.2127 6.06049 33.7999 4.63729 34.8454 3.58788C35.8909 2.53847 37.309 1.94881 38.7877 1.94861H42.1199C41.9559 2.35221 41.8932 2.7901 41.9375 3.22372C41.9818 3.65735 42.1316 4.07339 42.3738 4.43523C42.616 4.79706 42.9432 5.09358 43.3264 5.29867C43.7097 5.50376 44.1374 5.61114 44.5717 5.61133H60.2286C60.663 5.6111 61.0906 5.50371 61.4739 5.29861C61.8571 5.0935 62.1843 4.79699 62.4265 4.43516C62.6686 4.07334 62.8185 3.6573 62.8628 3.22369C62.907 2.79009 62.8444 2.35221 62.6804 1.94861H66.2477C67.7265 1.94876 69.1447 2.53836 70.1904 3.58774C71.2361 4.63713 71.8237 6.06035 71.8238 7.5444Z" fill="white"/>
<path d="M71.3168 61.0239H33.7191C33.587 61.0237 33.4604 60.971 33.367 60.8773C33.2736 60.7836 33.2211 60.6565 33.2209 60.524V14.2349C33.2211 14.1023 33.2736 13.9753 33.367 13.8815C33.4604 13.7878 33.587 13.7351 33.7191 13.735H71.3168C71.4488 13.7351 71.5755 13.7878 71.6689 13.8815C71.7623 13.9753 71.8148 14.1023 71.815 14.2349V60.524C71.8148 60.6565 71.7623 60.7836 71.6689 60.8773C71.5755 60.971 71.4488 61.0237 71.3168 61.0239Z" fill="#F0F0F0"/>
<path d="M68.5573 16.9649H36.5554C36.4232 16.965 36.2965 17.0177 36.2031 17.1115C36.1096 17.2052 36.0571 17.3324 36.057 17.465V50.9115C36.0574 51.0439 36.11 51.1708 36.2035 51.2643C36.2969 51.3578 36.4234 51.4103 36.5554 51.4103H68.5573C68.6893 51.4103 68.8159 51.3578 68.9093 51.2643C69.0027 51.1708 69.0554 51.0439 69.0557 50.9115V17.465C69.0557 17.3324 69.0031 17.2052 68.9097 17.1115C68.8162 17.0177 68.6895 16.965 68.5573 16.9649Z" fill="white"/>
<path d="M36.0002 12.0493C36.7133 12.0493 37.2913 11.4692 37.2913 10.7536C37.2913 10.0381 36.7133 9.45801 36.0002 9.45801C35.2872 9.45801 34.7092 10.0381 34.7092 10.7536C34.7092 11.4692 35.2872 12.0493 36.0002 12.0493Z" fill="#7F0027"/>
<path d="M42.1413 53.0596C39.9367 49.4964 40.6963 44.9441 41.0674 40.7665C41.6217 34.4987 41.1216 28.182 39.5879 22.0807C41.4147 24.1278 42.62 26.6565 43.0618 29.3684C43.4258 31.6299 43.2459 33.9565 43.6582 36.2095C44.5423 41.0407 48.1023 45.3977 47.5513 50.2785C47.4296 51.3573 47.0199 52.5176 46.0654 53.0288C44.988 53.6059 43.6729 53.1469 42.5428 52.6824" fill="#F0F0F0"/>
<path d="M38.4207 54.5386C38.1793 54.2951 37.8513 54.1578 37.5091 54.157C37.1668 54.1561 36.8382 54.2917 36.5955 54.534C36.3529 54.7763 36.2161 55.1054 36.2152 55.4489C36.2144 55.7923 36.3495 56.1221 36.591 56.3656L36.5954 56.37L38.4207 58.2015L40.246 56.37C40.4869 56.1269 40.622 55.7978 40.6215 55.4549C40.621 55.112 40.4851 54.7833 40.2434 54.5409C40.0018 54.2984 39.6742 54.162 39.3325 54.1616C38.9908 54.1612 38.6629 54.2968 38.4207 54.5386V54.5386Z" fill="#7F0027"/>
<path d="M44.1014 54.5386C43.86 54.2951 43.5321 54.1578 43.1898 54.157C42.8475 54.1561 42.5189 54.2917 42.2763 54.534C42.0337 54.7763 41.8969 55.1054 41.896 55.4489C41.8951 55.7923 42.0303 56.1221 42.2717 56.3656L42.2761 56.37L44.1014 58.2015L45.9267 56.37C46.1677 56.1269 46.3027 55.7978 46.3023 55.4549C46.3018 55.112 46.1658 54.7833 45.9242 54.5409C45.6826 54.2984 45.355 54.162 45.0133 54.1616C44.6716 54.1612 44.3437 54.2968 44.1014 54.5386V54.5386Z" fill="#7F0027"/>
<path d="M49.7822 54.5386C49.5408 54.2951 49.2129 54.1578 48.8706 54.157C48.5283 54.1561 48.1997 54.2917 47.9571 54.534C47.7144 54.7763 47.5776 55.1054 47.5768 55.4489C47.5759 55.7923 47.7111 56.1221 47.9525 56.3656L47.9569 56.37L49.7822 58.2015L51.6075 56.37C51.8484 56.1269 51.9835 55.7978 51.983 55.4549C51.9825 55.112 51.8466 54.7833 51.6049 54.5409C51.3633 54.2984 51.0357 54.162 50.694 54.1616C50.3523 54.1612 50.0244 54.2968 49.7822 54.5386V54.5386Z" fill="#7F0027"/>
<path d="M59.8166 11.7698H41.6104C41.4795 11.7699 41.3498 11.7442 41.2288 11.694C41.1078 11.6438 40.9978 11.5702 40.9052 11.4774C40.8126 11.3845 40.7391 11.2742 40.689 11.1529C40.6388 11.0315 40.613 10.9014 40.613 10.77C40.613 10.6386 40.6388 10.5085 40.689 10.3872C40.7391 10.2658 40.8126 10.1555 40.9052 10.0627C40.9978 9.96983 41.1078 9.89621 41.2288 9.84604C41.3498 9.79586 41.4795 9.77011 41.6104 9.77026H59.8166C59.9475 9.77011 60.0772 9.79586 60.1982 9.84604C60.3192 9.89621 60.4291 9.96983 60.5218 10.0627C60.6144 10.1555 60.6879 10.2658 60.738 10.3872C60.7881 10.5085 60.8139 10.6386 60.8139 10.77C60.8139 10.9014 60.7881 11.0315 60.738 11.1529C60.6879 11.2742 60.6144 11.3845 60.5218 11.4774C60.4291 11.5702 60.3192 11.6438 60.1982 11.694C60.0772 11.7442 59.9475 11.7699 59.8166 11.7698Z" fill="#7F0027"/>
<path d="M71.3165 69.7058H33.719C33.5868 69.7059 33.4601 69.7586 33.3667 69.8524C33.2732 69.9462 33.2207 70.0733 33.2206 70.2059V78.7441C33.2936 80.1762 33.912 81.5256 34.9481 82.5132C35.9842 83.5008 37.3587 84.0513 38.7877 84.0509H66.2477C67.6733 84.0515 69.0449 83.5038 70.0804 82.5206C71.1159 81.5373 71.7366 80.1933 71.8148 78.7648V70.2059C71.8147 70.0733 71.7622 69.9462 71.6688 69.8524C71.5753 69.7586 71.4486 69.7059 71.3165 69.7058Z" fill="#F0F0F0"/>
<path d="M68.5573 72.9358H36.5554C36.4232 72.9359 36.2965 72.9886 36.2031 73.0824C36.1096 73.1761 36.0571 73.3033 36.057 73.4359V83.3345C36.8904 83.8056 37.8311 84.0524 38.7877 84.0509H66.2477C67.2344 84.0523 68.2037 83.7898 69.0557 83.2904V73.4359C69.0557 73.3033 69.0031 73.1761 68.9097 73.0824C68.8162 72.9886 68.6895 72.9359 68.5573 72.9358Z" fill="white"/>
<path d="M36.0002 68.0202C36.7133 68.0202 37.2913 67.4401 37.2913 66.7246C37.2913 66.009 36.7133 65.429 36.0002 65.429C35.2872 65.429 34.7092 66.009 34.7092 66.7246C34.7092 67.4401 35.2872 68.0202 36.0002 68.0202Z" fill="#E4E4E4"/>
<path d="M59.8166 67.7407H41.6104C41.4795 67.7409 41.3498 67.7151 41.2288 67.6649C41.1078 67.6148 40.9978 67.5411 40.9052 67.4483C40.8126 67.3554 40.7391 67.2452 40.689 67.1238C40.6388 67.0024 40.613 66.8723 40.613 66.7409C40.613 66.6096 40.6388 66.4794 40.689 66.3581C40.7391 66.2367 40.8126 66.1264 40.9052 66.0336C40.9978 65.9407 41.1078 65.8671 41.2288 65.8169C41.3498 65.7667 41.4795 65.741 41.6104 65.7412H59.8166C59.9475 65.741 60.0772 65.7667 60.1982 65.8169C60.3192 65.8671 60.4291 65.9407 60.5218 66.0336C60.6144 66.1264 60.6879 66.2367 60.738 66.3581C60.7881 66.4794 60.8139 66.6096 60.8139 66.7409C60.8139 66.8723 60.7881 67.0024 60.738 67.1238C60.6879 67.2452 60.6144 67.3554 60.5218 67.4483C60.4291 67.5411 60.3192 67.6148 60.1982 67.6649C60.0772 67.7151 59.9475 67.7409 59.8166 67.7407Z" fill="#E4E4E4"/>
<path d="M49.5256 84.0509H40.0659C41.029 82.149 42.8068 80.5994 44.9023 80.5178C45.218 80.506 45.5341 80.5295 45.8447 80.5877C45.9751 80.6111 46.1029 80.6422 46.2308 80.6758C47.0345 80.8833 47.7664 81.3075 48.3471 81.9024C48.9279 82.4973 49.3354 83.2403 49.5256 84.0509Z" fill="#F2F2F2"/>
<path d="M64.6558 84.0509H51.8108C52.0082 83.4595 52.1758 82.8584 52.3131 82.25C52.8901 79.7482 53.4776 76.9393 55.6066 75.5167C56.7918 74.7238 58.2339 74.5942 59.6012 74.944C59.6425 74.9544 59.6851 74.9661 59.7264 74.979C61.3391 75.4279 62.7234 76.4714 63.6022 77.9006C64.6906 79.7326 64.9333 81.9119 64.6558 84.0509Z" fill="#F2F2F2"/>
<path d="M46.3638 82.5234C46.3576 83.0353 46.3123 83.546 46.2283 84.051H45.859C46.0531 82.9044 46.0483 81.7327 45.8448 80.5878C45.9752 80.6111 46.103 80.6422 46.2309 80.6759C46.3287 81.2867 46.3732 81.9049 46.3638 82.5234Z" fill="white"/>
<path d="M59.7742 75.0982C59.7755 75.378 59.7742 75.6592 59.7665 75.9403C59.7095 78.2776 59.3625 80.5987 58.7336 82.8499C58.6226 83.2516 58.5025 83.6519 58.3734 84.051H57.9938C58.2262 83.341 58.4289 82.6219 58.6045 81.9015C59.1476 79.6904 59.4181 77.4208 59.4101 75.1435C59.4104 75.092 59.4304 75.0426 59.4659 75.0054C59.5015 74.9683 59.5499 74.9463 59.6012 74.944C59.6459 74.939 59.6908 74.9515 59.7264 74.979C59.7431 74.9937 59.7561 75.0122 59.7644 75.0329C59.7727 75.0536 59.7761 75.076 59.7742 75.0982Z" fill="white"/>
<path d="M66.5929 77.4868C67.0208 77.4868 67.3676 77.1387 67.3676 76.7094C67.3676 76.28 67.0208 75.932 66.5929 75.932C66.1651 75.932 65.8183 76.28 65.8183 76.7094C65.8183 77.1387 66.1651 77.4868 66.5929 77.4868Z" fill="#F2F2F2"/>
<path d="M48.0247 20.7556C48.4525 20.7556 48.7994 20.4076 48.7994 19.9782C48.7994 19.5489 48.4525 19.2009 48.0247 19.2009C47.5969 19.2009 47.2501 19.5489 47.2501 19.9782C47.2501 20.4076 47.5969 20.7556 48.0247 20.7556Z" fill="#7F0027"/>
<path d="M62.3557 25.2903C62.7835 25.2903 63.1303 24.9422 63.1303 24.5129C63.1303 24.0836 62.7835 23.7355 62.3557 23.7355C61.9279 23.7355 61.5811 24.0836 61.5811 24.5129C61.5811 24.9422 61.9279 25.2903 62.3557 25.2903Z" fill="#E4E4E4"/>
<path d="M61.9684 41.0969C62.3962 41.0969 62.7431 40.7488 62.7431 40.3195C62.7431 39.8902 62.3962 39.5421 61.9684 39.5421C61.5405 39.5421 61.1937 39.8902 61.1937 40.3195C61.1937 40.7488 61.5405 41.0969 61.9684 41.0969Z" fill="#E4E4E4"/>
<path d="M58.5399 48.5056L58.0157 46.8213C57.9256 46.4293 57.8114 46.0433 57.6736 45.6656C57.0823 43.8724 55.7835 40.2563 54.2535 36.4783L52.4538 34.6722L51.9554 34.3457L51.4842 34.0386L51.2815 34.2265L49.3488 36.0171L49.3346 36.135L48.0719 46.9042C48.0719 46.9042 48.068 46.934 48.0615 46.9923C48.0473 47.118 48.0177 47.3745 47.9789 47.7411C47.9053 48.4304 47.7865 49.6341 47.669 51.1512H59.3623L58.5399 48.5056Z" fill="#3F3D56"/>
<path opacity="0.2" d="M50.2535 40.8461L49.7627 43.9187L53.0836 45.2933L50.2535 40.8461Z" fill="black"/>
<path d="M56.1993 27.0979C55.5958 26.4365 54.8072 25.9736 53.937 25.7698C53.0667 25.5659 52.1554 25.6308 51.3225 25.9557C50.4896 26.2807 49.774 26.8507 49.2695 27.5909C48.765 28.3311 48.4952 29.207 48.4954 30.1038V33.4245C48.4955 33.5832 48.5583 33.7354 48.6701 33.8477C48.782 33.9599 48.9337 34.023 49.0918 34.0231H56.7699C56.9279 34.0227 57.0793 33.9595 57.1909 33.8473C57.3024 33.7351 57.3651 33.583 57.3651 33.4245V30.1038C57.3656 28.9906 56.9495 27.9179 56.1993 27.0979Z" fill="#2F2E41"/>
<path d="M53.7782 33.8225C55.5739 33.8225 57.0295 32.3617 57.0295 30.5597C57.0295 28.7577 55.5739 27.2969 53.7782 27.2969C51.9826 27.2969 50.5269 28.7577 50.5269 30.5597C50.5269 32.3617 51.9826 33.8225 53.7782 33.8225Z" fill="#FFB8B8"/>
<path d="M56.1992 27.0979C55.7882 26.9331 55.3495 26.8487 54.9068 26.8492H54.2445C53.6868 26.8493 53.1372 26.983 52.6414 27.2392C52.1455 27.4954 51.7178 27.8667 51.3938 28.3223C51.3719 28.3508 51.3525 28.3806 51.3331 28.4091C50.9434 28.988 50.7357 29.6708 50.7367 30.3694V30.4355H52.1349L52.6126 29.0945L52.7082 30.4355H53.4311L53.6713 29.7592L53.7191 30.4355C55.231 30.9962 56.7996 30.9603 58.4147 30.4355V30.3694C58.4139 29.6643 58.2024 28.9755 57.8075 28.3923C57.4125 27.8091 56.8523 27.3582 56.1992 27.0979Z" fill="#2F2E41"/>
<path d="M54.2187 33.7925C54.2158 33.7849 54.2124 33.7775 54.2084 33.7704C53.7707 32.9335 53.222 31.6521 53.191 30.4355C53.1729 29.7086 53.3408 29.0038 53.8288 28.4325L53.9218 28.3223H50.1376V34.0244L51.2815 34.2265L51.9555 34.3457L53.5758 34.6333C53.6107 34.6396 53.6462 34.6426 53.6817 34.6424C53.7754 34.6423 53.8678 34.6199 53.9512 34.5772C54.0347 34.5344 54.1069 34.4724 54.1619 34.3962C54.2415 34.2887 54.2817 34.1569 54.2755 34.0231C54.2731 33.943 54.2538 33.8644 54.2187 33.7925Z" fill="#2F2E41"/>
<path opacity="0.2" d="M48.1508 46.7543C49.0162 47.7598 50.1899 48.4482 51.4875 48.7114C52.7852 48.9746 54.1332 48.7977 55.3198 48.2084L56.0274 47.857L48.1508 46.7543Z" fill="black"/>
<path d="M84.8179 56.5788C84.8285 56.3548 84.8879 56.1359 84.9919 55.9374C85.0959 55.739 85.242 55.5658 85.4199 55.4301C85.5978 55.2945 85.8032 55.1996 86.0216 55.1522C86.24 55.1048 86.4662 55.106 86.684 55.1558L88.7053 52.2972L90.736 53.1062L87.825 57.1029C87.7174 57.4646 87.4813 57.7742 87.1615 57.973C86.8416 58.1717 86.4602 58.2458 86.0895 58.1812C85.7189 58.1166 85.3847 57.9178 85.1503 57.6225C84.916 57.3272 84.7977 56.9558 84.8179 56.5788H84.8179Z" fill="#A0616A"/>
<path d="M87.0352 54.1204L90.629 48.0549L89.1648 44.1366L91.159 38.7999L91.2325 38.8316C91.2807 38.8523 92.4138 39.3597 92.5818 41.1769L94.8734 48.4046L88.7573 56.367L87.0352 54.1204Z" fill="#3F3D56"/>
<path d="M67.517 31.8215C67.7387 31.8494 67.9516 31.9258 68.1408 32.0452C68.3299 32.1646 68.4907 32.3242 68.6117 32.5127C68.7327 32.7012 68.8111 32.914 68.8413 33.1362C68.8715 33.3584 68.8528 33.5845 68.7865 33.7987L71.4702 36.042L70.5095 38.0112L66.7638 34.7897C66.4127 34.6541 66.1234 34.3939 65.9507 34.0585C65.778 33.7231 65.7338 33.3358 65.8267 32.9699C65.9195 32.6041 66.1428 32.2851 66.4544 32.0734C66.7659 31.8618 67.144 31.7722 67.517 31.8215L67.517 31.8215Z" fill="#A0616A"/>
<path d="M69.788 34.23L75.5363 38.2947L79.5424 37.1327L84.6902 39.5405L84.6531 39.6116C84.6287 39.6583 84.037 40.7527 82.2187 40.7802L74.8607 42.5143L67.4229 35.7794L69.788 34.23Z" fill="#3F3D56"/>
<path d="M80.3064 83.658L78.308 83.6579L77.3572 75.9226L80.3067 75.9227L80.3064 83.658Z" fill="#A0616A"/>
<path d="M76.2767 83.0849H80.7345V85.5201H74.4538V84.9142C74.4538 84.4291 74.6459 83.9638 74.9877 83.6207C75.3296 83.2776 75.7933 83.0849 76.2767 83.0849Z" fill="#2F2E41"/>
<path d="M88.2936 83.658L86.2953 83.6579L85.3445 75.9226L88.294 75.9227L88.2936 83.658Z" fill="#A0616A"/>
<path d="M84.264 83.0849H88.7218V85.5201H82.4411V84.9142C82.4411 84.4291 82.6331 83.9638 82.975 83.6207C83.3168 83.2776 83.7805 83.0849 84.264 83.0849Z" fill="#2F2E41"/>
<path d="M89.0044 55.4234L88.8415 66.874L88.6784 81.9232L85.0923 81.596L83.2993 60.8215L81.0173 81.596H77.315L76.9421 60.658L78.2461 56.0778L89.0044 55.4234Z" fill="#2F2E41"/>
<path d="M77.8885 56.1476L77.3422 56.1239L79.8798 42.0955L78.8408 37.8554C78.7868 37.6348 78.8153 37.402 78.921 37.2011C79.0266 37.0002 79.202 36.8451 79.4139 36.7653L81.2833 36.0619L81.9438 34.2392L87.1546 34.8027L87.2828 36.2271C87.8474 36.4089 92.4974 37.9629 92.1765 39.7336C91.8599 41.4814 89.9902 46.9801 89.8952 47.2588L89.5678 55.1446L89.5275 55.1648C89.479 55.1892 85.8873 56.9614 81.9854 56.9611C80.6114 56.961 79.198 56.7411 77.8885 56.1476Z" fill="#3F3D56"/>
<path d="M87.637 31.3781C88.6309 29.5536 87.9627 27.2659 86.1446 26.2685C84.3264 25.2711 82.0468 25.9417 81.0529 27.7662C80.059 29.5908 80.7272 31.8784 82.5454 32.8758C84.3635 33.8732 86.6431 33.2027 87.637 31.3781Z" fill="#A0616A"/>
<path d="M87.384 33.2168C86.669 33.9812 85.3411 33.5709 85.2479 32.5267C85.2406 32.4456 85.2411 32.364 85.2495 32.2831C85.2976 31.8205 85.5639 31.4006 85.5001 30.9123C85.4857 30.7907 85.4405 30.6749 85.369 30.5758C84.7992 29.8101 83.4617 30.9182 82.924 30.2251C82.5943 29.8001 82.9819 29.1309 82.7288 28.6559C82.3949 28.029 81.4057 28.3382 80.7854 27.9949C80.0953 27.6129 80.1365 26.5502 80.5909 25.9039C81.1449 25.1156 82.1163 24.695 83.0757 24.6344C84.035 24.5738 84.9877 24.834 85.8833 25.1843C86.901 25.5823 87.9101 26.1323 88.5363 27.0302C89.2978 28.1222 89.3711 29.5902 88.9903 30.8671C88.7586 31.6438 87.9678 32.5927 87.384 33.2168Z" fill="#2F2E41"/>
<path d="M109.871 85.7702H0.129108C0.0948664 85.7702 0.0620272 85.7566 0.0378148 85.7323C0.0136023 85.708 0 85.675 0 85.6407C0 85.6063 0.0136023 85.5733 0.0378148 85.5491C0.0620272 85.5248 0.0948664 85.5111 0.129108 85.5111H109.871C109.905 85.5111 109.938 85.5248 109.962 85.5491C109.986 85.5733 110 85.6063 110 85.6407C110 85.675 109.986 85.708 109.962 85.7323C109.938 85.7566 109.905 85.7702 109.871 85.7702Z" fill="#3F3D56"/>
<path d="M60.1652 48.2025H58.1545C58.09 48.2027 58.0277 48.1787 57.98 48.1352C57.9322 48.0917 57.9023 48.0318 57.8962 47.9674L57.4938 43.8277H60.8259L60.4235 47.9673C60.4174 48.0318 60.3876 48.0917 60.3398 48.1352C60.292 48.1787 60.2297 48.2027 60.1652 48.2025Z" fill="#7F0027"/>
<path d="M60.8206 44.3484H57.4991C57.4303 44.3483 57.3644 44.3209 57.3157 44.2721C57.2671 44.2233 57.2397 44.1571 57.2396 44.088V43.4631C57.2397 43.3941 57.2671 43.3279 57.3157 43.2791C57.3644 43.2302 57.4303 43.2028 57.4991 43.2027H60.8206C60.8894 43.2028 60.9553 43.2302 61.004 43.2791C61.0526 43.3279 61.08 43.3941 61.0801 43.4631V44.088C61.08 44.1571 61.0526 44.2233 61.004 44.2721C60.9553 44.3209 60.8894 44.3483 60.8206 44.3484Z" fill="#3F3D56"/>
<path d="M59.4647 46.0032C59.3196 45.8397 59.1406 45.7101 58.9403 45.6235C58.74 45.537 58.5231 45.4955 58.3051 45.5021C58.0871 45.5087 57.8731 45.5632 57.6783 45.6618C57.4836 45.7603 57.3127 45.9006 57.1778 46.0725L53.895 45.1477L52.8484 47.0126L57.5026 48.2533C57.8055 48.4617 58.1741 48.5512 58.5385 48.5051C58.9028 48.4589 59.2377 48.2802 59.4795 48.0029C59.7214 47.7255 59.8534 47.3688 59.8507 47.0002C59.848 46.6317 59.7106 46.2769 59.4647 46.0032Z" fill="#FFB8B8"/>
<path d="M54.1271 44.9918L52.5687 43.9955L52.1246 43.7856L50.1169 42.8359C50.1763 42.6312 50.3468 42.0196 50.5082 41.2449C50.8852 39.4323 51.2067 36.7257 49.9091 36.2515C49.7251 36.1818 49.5311 36.1424 49.3346 36.1349C49.0716 36.1253 48.8107 36.1851 48.578 36.3085C47.6058 36.8177 47.2198 38.2507 47.2056 38.3038L46.0036 41.6141C45.8925 41.767 44.7499 43.3554 44.9346 44.5319C44.9578 44.7008 45.0157 44.8632 45.1046 45.0086C45.1934 45.1539 45.3114 45.2793 45.451 45.3766C46.283 45.975 47.1552 46.5148 48.0615 46.9922C48.272 47.1011 48.4777 47.2017 48.6787 47.2941C49.8045 47.8098 50.7973 48.0728 51.6314 48.0728C51.9041 48.075 52.176 48.0432 52.4409 47.9782L55.6803 47.9044L55.7009 47.8111L55.7086 47.7748L56.1386 45.7795L56.2599 45.2146L54.1271 44.9918Z" fill="#3F3D56"/>
</g>
<defs>
<clipPath id="clip0">
<rect width="110" height="86" fill="white"/>
</clipPath>
</defs>
</svg>
