<svg width="98" height="77" viewBox="0 0 98 77" fill="none" xmlns="http://www.w3.org/2000/svg">
<g clip-path="url(#clip0)">
<path d="M22.4281 76.9448C30.7054 76.9448 37.4155 76.1384 37.4155 75.1436C37.4155 74.1489 30.7054 73.3425 22.4281 73.3425C14.1507 73.3425 7.44058 74.1489 7.44058 75.1436C7.44058 76.1384 14.1507 76.9448 22.4281 76.9448Z" fill="#F2F2F2"/>
<path d="M53.9974 76.9448C62.2748 76.9448 68.9849 76.1384 68.9849 75.1436C68.9849 74.1489 62.2748 73.3425 53.9974 73.3425C45.7201 73.3425 39.0099 74.1489 39.0099 75.1436C39.0099 76.1384 45.7201 76.9448 53.9974 76.9448Z" fill="#F2F2F2"/>
<path d="M73.5205 43.2273L74.8311 35.3525L58.4673 31.8968L59.1391 11.8095H51.1308L50.5153 30.2175L28.4871 25.5656L28.9471 11.8095H20.9388L20.535 23.8863L4.44032 20.4875L3.12969 28.3623L20.2643 31.9808L19.7422 47.5931L1.31067 43.7008L3.05176e-05 51.5756L19.4715 55.6876L18.8217 75.1186H26.83L27.4236 57.3669L49.4518 62.0188L49.0137 75.1186H57.022L57.4039 63.6981L70.3908 66.4406L71.7015 58.5658L57.6746 55.6036L58.1967 39.9913L73.5205 43.2273ZM49.7225 53.9243L27.6943 49.2725L28.2164 33.6601L50.2446 38.3119L49.7225 53.9243Z" fill="#3F3D56"/>
<path opacity="0.2" d="M51.9316 53.9244L52.4537 38.3119L30.4255 33.66L30.41 34.1234L50.2445 38.3119L49.7379 53.461L51.9316 53.9244Z" fill="black"/>
<path opacity="0.2" d="M52.7244 30.2175L53.34 11.8095H51.1308L50.5307 29.7542L52.7244 30.2175Z" fill="black"/>
<path opacity="0.2" d="M60.4058 39.9913L60.3903 40.4545L73.5205 43.2274L73.5955 42.7767L60.4058 39.9913Z" fill="black"/>
<path opacity="0.2" d="M22.7442 23.8863L23.148 11.8095H20.9388L20.5505 23.4231L22.7442 23.8863Z" fill="black"/>
<path opacity="0.2" d="M59.6131 63.6981L59.5975 64.1613L70.3908 66.4407L70.4658 65.9899L59.6131 63.6981Z" fill="black"/>
<path opacity="0.2" d="M29.6328 57.3669L29.6173 57.8302L49.4518 62.0188L49.0137 75.1186H51.2228L51.661 62.0188L29.6328 57.3669Z" fill="black"/>
<path opacity="0.2" d="M19.7577 47.1299L21.9514 47.5931L22.4735 31.9808L5.33886 28.3623L6.57442 20.9382L4.44035 20.4875L3.12964 28.3623L20.2643 31.9808L19.7577 47.1299Z" fill="black"/>
<path opacity="0.2" d="M2.20922 51.5756L3.44478 44.1515L1.31061 43.7008L0 51.5756L19.4715 55.6876L18.8217 75.1186H21.0308L21.6807 55.6876L2.20922 51.5756Z" fill="black"/>
<path d="M86.1418 12.3271H78.0156V26.1604H86.1418V12.3271Z" fill="#2F2E41"/>
<path d="M87.7656 11.7461C86.8877 14.3373 85.5414 16.6982 82.7976 16.6982C80.0538 16.6982 77.9841 14.4767 77.8295 11.7461C77.632 8.25695 79.9905 6.7796 82.7976 6.79405C86.1137 6.81112 88.8076 8.67105 87.7656 11.7461Z" fill="#2F2E41"/>
<path d="M79.4819 31.1903L76.6125 41.9497C76.6125 41.9497 72.7867 42.9031 73.1966 43.8565C73.6065 44.8099 77.7056 43.1755 77.7056 43.1755L81.3948 34.1866L79.4819 31.1903Z" fill="#FFB9B9"/>
<path d="M81.8047 66.6012C81.8047 66.6012 84.4008 69.1889 82.7611 70.9595H86.177L83.9909 65.5116L81.8047 66.6012Z" fill="#FFB9B9"/>
<path d="M84.4814 70.8727C84.4814 70.8727 84.4814 69.7542 83.387 70.4253C82.2925 71.0964 78.766 72.8859 78.766 72.8859C78.766 72.8859 76.3339 74.2281 79.8605 74.4518C83.387 74.6755 86.7919 73.8926 86.7919 73.4452C86.7919 72.9978 86.4271 70.8555 86.4271 70.8555C86.4271 70.8555 85.6975 71.6556 84.4814 70.8727Z" fill="#2F2E41"/>
<path d="M84.9473 68.7803L84.8108 73.2748L87.4068 73.6833V69.3251L84.9473 68.7803Z" fill="#FFB9B9"/>
<path d="M82.4878 17.7069C84.5253 17.7069 86.177 16.0605 86.177 14.0296C86.177 11.9987 84.5253 10.3523 82.4878 10.3523C80.4503 10.3523 78.7986 11.9987 78.7986 14.0296C78.7986 16.0605 80.4503 17.7069 82.4878 17.7069Z" fill="#FFB9B9"/>
<path d="M81.1898 16.9578C81.1898 16.9578 82.9661 21.0437 81.5997 22.4056C80.2334 23.7676 83.6493 22.4056 83.6493 22.4056C83.6493 22.4056 85.4255 19.8179 86.7919 19.6817C86.7919 19.6817 84.7424 18.5922 84.879 15.7321L81.1898 16.9578Z" fill="#FFB9B9"/>
<path d="M78.7987 36.7743L78.5254 43.1755C78.5254 43.1755 73.6065 55.9779 75.5194 58.9742C77.4323 61.9705 81.9413 67.4184 81.9413 67.4184C81.9413 67.4184 84.5374 66.1926 84.5374 65.5116C84.5374 65.5116 81.9413 59.1104 79.7551 57.6123C79.7551 57.6123 79.8917 55.0245 81.9413 52.3006L83.8542 58.9742L84.674 69.1889C84.674 69.1889 86.9968 70.0061 87.8166 69.5975C87.8166 69.5975 89.5929 63.0601 88.3632 59.2466L88.0899 48.7595C88.0899 48.7595 91.6424 43.5841 87.1335 37.4553L86.4503 35.2762C86.4503 35.2762 79.4818 35.9571 78.7987 36.7743Z" fill="#2F2E41"/>
<path d="M85.2206 72.5938C85.2206 72.5938 85.2206 71.2318 83.9909 72.049C82.7612 72.8662 78.7987 75.0453 78.7987 75.0453C78.7987 75.0453 76.066 76.6797 80.0284 76.9521C83.9909 77.2245 87.8167 76.2711 87.8167 75.7263C87.8167 75.1815 87.4068 72.5729 87.4068 72.5729C87.4068 72.5729 86.587 73.5472 85.2206 72.5938Z" fill="#2F2E41"/>
<path d="M82.2829 21.9971L86.5767 19.543C86.5767 19.543 92.9405 19.6817 92.5306 22.9504C92.5306 22.9504 91.3009 27.1725 90.891 26.7639L90.0711 25.9467C90.0711 25.9467 87.0651 32.0756 87.0651 33.3013C87.0528 34.0899 86.9144 34.8715 86.6552 35.6166L79.2769 36.7062C79.2769 36.7062 80.0967 32.0755 78.867 31.2584C77.6373 30.4412 77.2274 28.2621 78.4571 26.3553C78.9246 25.6231 79.3309 24.8538 79.6719 24.0552C79.8866 23.5599 80.1977 23.1118 80.5872 22.737C80.9767 22.3622 81.4368 22.068 81.941 21.8716L82.2829 21.9971Z" fill="#007B77"/>
<path d="M91.8474 22.5418C91.8474 22.5418 99.0891 28.3983 97.8594 29.624C96.6297 30.8498 89.9345 35.7528 89.9345 35.7528C89.9345 35.7528 89.2513 39.8387 87.885 39.7025C86.5186 39.5663 88.1583 34.6633 88.1583 34.6633L93.897 29.2154L90.7543 25.9467L91.8474 22.5418Z" fill="#FFB9B9"/>
<path d="M82.7976 7.83658C83.8806 7.83658 84.7586 6.96141 84.7586 5.88182C84.7586 4.80224 83.8806 3.92706 82.7976 3.92706C81.7145 3.92706 80.8365 4.80224 80.8365 5.88182C80.8365 6.96141 81.7145 7.83658 82.7976 7.83658Z" fill="#2F2E41"/>
<path d="M80.4443 4.83928C80.4443 4.35471 80.6249 3.88742 80.951 3.52805C81.2771 3.16869 81.7255 2.94287 82.2092 2.89439C82.1447 2.88801 82.0793 2.88452 82.0131 2.88452C81.493 2.88452 80.9942 3.09047 80.6264 3.45706C80.2586 3.82365 80.052 4.32085 80.052 4.83928C80.052 5.35772 80.2586 5.85492 80.6264 6.22151C80.9942 6.5881 81.493 6.79404 82.0131 6.79404C82.0793 6.79404 82.1447 6.79056 82.2092 6.78417C81.7255 6.7357 81.2771 6.50987 80.951 6.15051C80.6249 5.79115 80.4443 5.32386 80.4443 4.83928Z" fill="#2F2E41"/>
<path d="M80.5352 10.1056C80.5352 10.1056 80.4943 9.87835 78.8927 10.477C77.2912 11.0756 76.3312 15.4933 77.132 18.0873C77.4547 19.1327 77.1922 19.8865 76.7637 20.4139C75.1559 22.3929 75.7888 25.3653 78.1308 26.383C78.1969 26.4117 78.2643 26.4401 78.3331 26.4682L79.3341 27.0668C79.3341 27.0668 78.0581 25.3933 78.6966 23.2526C79.2512 21.4286 79.3197 19.4921 78.8953 17.6337C78.8221 17.3202 78.7389 16.997 78.6443 16.6672C77.8436 13.8736 78.233 14.1962 81.0357 11.4026C81.0357 11.4026 82.6372 12.5999 84.0385 13.1985C85.4398 13.7971 86.641 14.3958 85.64 16.3912C84.6391 18.3867 82.2368 20.1826 83.8383 22.7766C85.4398 25.3707 85.64 24.373 85.4398 25.3707L85.2396 26.3684L86.4408 25.1712L85.64 26.7675C85.64 26.7675 88.2425 26.7675 89.0433 24.7721L89.4436 25.1712C89.4436 25.1712 91.0451 22.3775 88.0423 19.7835C88.0423 19.7835 87.0414 19.1848 88.4427 17.1894C89.844 15.194 88.7678 10.9037 86.9661 10.1056C85.1644 9.30739 80.5352 10.1056 80.5352 10.1056Z" fill="#2F2E41"/>
<path d="M41.0751 4.29878L39.0472 3.50118L37.0192 2.70357L38.7261 1.35184L40.4331 0L40.7541 2.14944L41.0751 4.29878Z" fill="#F2F2F2"/>
<path d="M39.4615 19.4912L37.4336 18.6936L35.4056 17.8959L37.0159 16.7884L38.6261 15.6809L39.0439 17.586L39.4615 19.4912Z" fill="#F2F2F2"/>
<path d="M35.973 39.8986L33.945 39.101L31.9171 38.3034L33.624 36.9516L35.331 35.5998L35.652 37.7492L35.973 39.8986Z" fill="#F2F2F2"/>
<path d="M14.7083 62.9703L12.793 64.0083L10.8777 65.0465L10.9334 62.874L10.9892 60.7017L12.8487 61.836L14.7083 62.9703Z" fill="#F2F2F2"/>
<path d="M12.7951 14.2325L10.8797 15.2705L8.96442 16.3086L9.02011 14.1362L9.07592 11.9639L10.9354 13.0982L12.7951 14.2325Z" fill="#F2F2F2"/>
<path d="M22.5181 71.8151C23.8266 74.0393 26.4655 74.9199 26.4655 74.9199C26.4655 74.9199 26.9831 72.1943 25.6746 69.9701C24.3661 67.746 21.7272 66.8654 21.7272 66.8654C21.7272 66.8654 21.2097 69.5909 22.5181 71.8151Z" fill="#F2F2F2"/>
<path d="M23.3346 71.0388C25.5974 72.288 26.5454 74.8961 26.5454 74.8961C26.5454 74.8961 23.8246 75.4787 21.5618 74.2295C19.2989 72.9802 18.351 70.3722 18.351 70.3722C18.351 70.3722 21.0718 69.7896 23.3346 71.0388Z" fill="#007B77"/>
<path d="M64.2038 69.9728C62.684 72.0592 62.9325 74.8221 62.9325 74.8221C62.9325 74.8221 65.645 74.2021 67.1647 72.1157C68.6845 70.0293 68.436 67.2664 68.436 67.2664C68.436 67.2664 65.7235 67.8864 64.2038 69.9728Z" fill="#007B77"/>
<path d="M65.2445 70.4072C65.0034 72.9744 62.9864 74.8855 62.9864 74.8855C62.9864 74.8855 61.3602 72.6344 61.6014 70.0672C61.8425 67.5001 63.8595 65.589 63.8595 65.589C63.8595 65.589 65.4856 67.8401 65.2445 70.4072Z" fill="#007B77"/>
<path d="M90.8815 21.4261L90.35 25.4523L90.8815 26.7237C90.8815 26.7237 93.22 23.863 92.4759 22.2737C91.7319 20.6844 90.8815 21.4261 90.8815 21.4261Z" fill="#007B77"/>
</g>
<defs>
<clipPath id="clip0">
<rect width="98" height="77" fill="white"/>
</clipPath>
</defs>
</svg>
